<svg width="184" height="43" viewBox="0 0 184 43" fill="none" xmlns="http://www.w3.org/2000/svg">
<g id="i-voltyre-hor 1" clip-path="url(#clip0_479_795)">
<g id="Group">
<path id="Vector" fill-rule="evenodd" clip-rule="evenodd" d="M34.7361 3.17285L19.0378 29.1651C17.2246 32.0658 13.3148 29.6762 14.8445 27.1182L30.5428 1.12593C31.7889 -1.14896 36.435 0.271637 34.7361 3.17285Z" fill="#1668A5"/>
<path id="Vector_2" fill-rule="evenodd" clip-rule="evenodd" d="M42.0455 3.34362L22.4945 35.5355C20.9648 38.1511 17.055 36.217 18.4705 33.5443L37.7952 1.29678C39.2677 -1.03517 43.6894 0.555699 42.0455 3.34362Z" fill="#1668A5"/>
<path id="Vector_3" fill-rule="evenodd" clip-rule="evenodd" d="M48.8455 3.9121L26.2921 41.7329C24.8176 44.4081 20.5672 42.4169 22.1539 39.7436L44.8214 1.86518C46.296 -0.922736 51.0563 0.214713 48.8455 3.9121Z" fill="#1668A5"/>
<path id="Vector_4" fill-rule="evenodd" clip-rule="evenodd" d="M16.8288 1.58168L21.7012 9.88387C22.2682 10.5654 22.1541 11.362 21.4749 12.6142L15.4113 22.6244C14.7321 23.7043 11.5586 23.7043 10.9345 22.5098L0.280006 3.45628C-0.739772 1.75203 1.18754 0.101562 3.45345 0.101562H14.2774C15.4113 0.101562 16.2618 0.670328 16.8288 1.58168Z" fill="#E63A33"/>
<path id="Vector_5" d="M145.579 40.4249L143.199 35.0791V40.0842V40.881H142.406H142.179H138.325H137.531V40.0842V27.5716V26.7749H138.325H138.553H143.935H144.445L144.672 27.2309L147.676 33.9993L150.735 27.2309L150.962 26.7749H151.472H151.7H157.082H157.876V27.5716V40.0842V40.881H157.082H156.856H153.003H152.21V40.0842V35.0791L149.83 40.4249L149.603 40.881H149.093H148.865H146.316H145.806L145.579 40.4249ZM143.085 31.1563L146.825 39.2876H148.582L152.322 31.1563L153.797 31.497V39.2875H156.289V28.3684H151.984L148.412 36.2742L147.676 37.8671L146.995 36.2742L143.426 28.3684H139.118V39.2875H141.612V31.497L143.085 31.1563Z" fill="#1668A5"/>
<path id="Vector_6" d="M121.437 30.2453H130.674H131.467V31.0414V32.5772V35.3651V36.728V37.5248H130.674H121.437H120.646V36.728V31.0414V30.2453H121.437ZM129.881 31.8381H122.23V35.9889H129.881V35.3651V32.5772V31.8381ZM120.927 26.9463H131.186C132.149 26.9463 133.169 27.4593 133.905 28.1407C134.641 28.8798 135.151 29.8469 135.151 30.8139V32.5195V33.6569V35.3074V37.0136C135.151 37.9231 134.641 38.8902 133.848 39.6292C133.112 40.3126 132.149 40.766 131.186 40.766H120.927C119.907 40.766 118.888 40.3126 118.151 39.6292C117.415 38.9472 116.905 37.9807 116.905 37.0136V30.814C116.905 29.7912 117.415 28.8242 118.151 28.1408C118.888 27.4017 119.907 26.9463 120.927 26.9463ZM131.186 28.5391H120.927C120.305 28.5391 119.681 28.8242 119.228 29.2782C118.775 29.6766 118.492 30.2453 118.492 30.814V37.0136C118.492 37.5247 118.775 38.0377 119.228 38.4918C119.681 38.9472 120.305 39.2328 120.927 39.2328H131.186C131.751 39.2328 132.318 38.8901 132.771 38.4918C133.226 38.0377 133.564 37.5247 133.564 37.0136V35.3074V33.6569V32.5196V30.814C133.564 30.2453 133.281 29.7336 132.771 29.2782C132.318 28.8242 131.751 28.5391 131.186 28.5391Z" fill="#1668A5"/>
<path id="Vector_7" d="M84.603 30.9286V40.1423V40.939H83.8097H83.5262H79.39H78.5967V40.1423V27.7424V26.9463H79.39H79.6164H94.5765H95.3698V27.7424V40.1423V40.939H94.5765H94.3501H90.2139H89.4205V40.1423V30.9286H84.603ZM83.0163 39.3455V30.132V29.3928H83.8096H90.2138H91.0071V30.132V39.3456H93.783V28.5392H80.1833V39.3456H83.0163V39.3455Z" fill="#1668A5"/>
<path id="Vector_8" d="M112.202 36.1039H103.248V40.0843V40.8811H102.455H98.9979H98.2046V40.0843V32.7473V31.9505H98.9979H110.615V31.2114H98.9979H98.2046V30.4153V27.5716V26.7749H98.9979H112.202C113.901 26.7749 115.035 28.0276 115.488 29.6186C115.657 30.245 115.714 30.8136 115.714 31.4394C115.714 32.0658 115.657 32.6896 115.488 33.2602C115.035 34.8518 113.901 36.1039 112.202 36.1039ZM102.455 34.5105H112.202C113.108 34.5105 113.675 33.7713 113.958 32.8049C114.07 32.4066 114.184 31.8954 114.184 31.4395C114.184 30.9841 114.07 30.4724 113.958 30.0747C113.675 29.1076 113.108 28.3685 112.202 28.3685H99.7914V29.6186H111.409H112.202V30.4154V32.7473V33.544H111.409H99.7914V39.2877H101.662V35.3072V34.5105H102.455Z" fill="#1668A5"/>
<path id="Vector_9" d="M97.6947 21.943H94.1234H94.0664L98.1475 11.8181C98.6003 10.851 99.0531 10.1118 99.62 9.59891C100.244 9.08785 100.98 8.80216 102.057 8.69141C103.134 8.7465 103.928 9.08785 104.607 9.59891C105.231 10.1696 105.741 10.9087 106.138 11.8181L110.16 21.8278V21.8835H110.105H106.534L102.737 12.4439H101.605L97.6947 21.943Z" fill="#1668A5"/>
<path id="Vector_10" d="M136.228 12.2734H135.38L131.015 21.943V21.9981H127.274H127.219L127.274 21.943L131.922 11.9327C132.318 10.9656 132.771 10.2246 133.338 9.6585C133.962 9.14483 134.698 8.80224 135.718 8.69141C136.795 8.80224 137.645 9.14483 138.325 9.6585C138.949 10.2246 139.459 10.9656 139.911 11.9327L144.105 21.943L144.162 21.9981H144.105H140.309V21.943L136.228 12.2734Z" fill="#1668A5"/>
<path id="Vector_11" d="M131.922 15.8003H140.083V18.3006H132.035C131.978 18.2455 131.978 18.2455 131.922 18.2455V15.8003Z" fill="#1668A5"/>
<path id="Vector_12" d="M160.313 12.3867L154.361 18.8713L154.192 19.0974C153.003 20.4052 151.869 21.6574 150.509 21.943C150.282 21.9981 150.113 21.9981 149.942 21.9981C149.205 21.9981 148.581 21.713 148.016 21.2589C147.506 20.8055 147.166 20.1791 146.995 19.4381C146.939 19.2127 146.939 18.9847 146.939 18.7566V8.80202V8.74627H146.995H150.397H150.452V8.80202L150.509 18.4159H150.623L156.629 11.9883C156.856 11.7622 157.082 11.4772 157.309 11.2492C158.443 10.1117 159.634 8.86153 160.425 8.74627C162.012 8.51894 162.862 8.91662 163.315 9.54302C163.77 10.1694 163.827 11.1359 163.827 12.0452V21.9428H163.77H160.425H160.37V12.3866L160.313 12.3867Z" fill="#1668A5"/>
<path id="Vector_13" d="M151.133 5.56055H158.726C158.726 6.30155 158.669 6.92729 158.328 7.38137C157.99 7.89439 157.366 8.17746 156.403 8.17746H153.287C152.548 8.17746 151.983 7.89439 151.643 7.49409C151.245 7.04067 151.076 6.35664 151.076 5.56055H151.133Z" fill="#1668A5"/>
<path id="Vector_14" d="M68.5091 21.9427H54.683H54.626V8.80184V8.74609H54.683H68.3969C69.1902 8.74609 70.0958 9.14443 70.72 9.76894C71.287 10.282 71.6827 11.0787 71.6827 11.9881V13.807C71.6827 14.2073 71.4563 14.4904 71.1728 14.7184C70.8342 15.0591 70.3223 15.2871 69.9266 15.3448V15.4575C70.3223 15.5151 70.777 15.8002 71.1176 16.0839C71.4562 16.367 71.6827 16.7077 71.6827 17.0503V18.7565C71.6827 19.438 71.2298 20.2923 70.6058 20.9162C69.9837 21.4868 69.1902 21.9427 68.5091 21.9427ZM68.2827 16.5373H58.083V18.8712H68.2828V16.5373H68.2827ZM68.2827 11.8748H58.083V14.1497H68.2828V11.8748H68.2827Z" fill="#1668A5"/>
<path id="Vector_15" d="M126.936 8.80225H110.67V11.7625H116.905H116.96V21.8836H120.532V11.7625H120.589H126.936V8.80225Z" fill="#1668A5"/>
<path id="Vector_16" d="M171.137 17.0503H181.167C182.528 17.0503 183.376 16.0262 183.774 14.7184C183.886 14.2073 184 13.6962 184 13.1256C184 12.5568 183.886 11.9881 183.774 11.4771C183.376 10.1693 182.528 9.14453 181.167 9.14453H167.623V12.0452H180.374H180.431V14.4904H180.374H167.623V21.9427H171.137V17.1079V17.0503Z" fill="#1668A5"/>
<path id="Vector_17" d="M88.6842 8.80225H78.2009C77.4076 8.80225 76.5571 9.20255 75.9901 9.82886C75.366 10.4526 74.9702 11.2494 74.9702 12.0455V18.7568C74.9702 19.4959 75.3659 20.2926 75.9901 20.9164C76.6142 21.4871 77.4075 21.8835 78.2009 21.8835H88.6842C89.4204 21.8835 90.2139 21.4871 90.8379 20.8613C91.403 20.2926 91.8577 19.4959 91.8577 18.7568V12.0456C91.8577 11.2495 91.4601 10.4527 90.8379 9.82894C90.2139 9.25829 89.4204 8.80225 88.6842 8.80225ZM78.4273 12.3293H78.823H78.9372H79.2206H79.6734H79.7876H79.9569H80.1832H80.2974H80.3526H80.4667H80.8073H81.9964H83.5832H83.9808H84.8293H84.8864H85.0006C85.0006 12.3293 85.0006 12.3293 85.0576 12.3293H85.6798H86.5302H87.9476C88.0599 12.3293 88.1741 12.3293 88.2862 12.3293H88.3433V12.8999V13.5237V14.4908V15.5155V16.482V18.0178V18.4161H87.0971H86.1896H85.6226C85.6226 18.4161 85.6226 18.4161 85.5674 18.4161H84.6598H84.5476H84.4905H83.4707C82.6203 18.4161 81.7126 18.4161 80.8071 18.4161H80.6929H79.7874H78.427V16.8783V15.7409V14.2627V12.7295V12.4996V12.4438V12.3293H78.4273Z" fill="#1668A5"/>
<path id="Vector_18" d="M88.3435 12.3291H78.4272V18.416H88.3435V12.3291Z" stroke="#1668A5" stroke-width="0.028" stroke-miterlimit="10" stroke-linecap="round" stroke-linejoin="round"/>
<path id="Vector_19" d="M145.579 40.4249L143.199 35.0791V40.0842V40.881H142.406H142.179H138.325H137.531V40.0842V27.5716V26.7749H138.325H138.553H143.935H144.445L144.672 27.2309L147.676 33.9993L150.735 27.2309L150.962 26.7749H151.472H151.7H157.082H157.876V27.5716V40.0842V40.881H157.082H156.856H153.003H152.21V40.0842V35.0791L149.83 40.4249L149.603 40.881H149.093H148.865H146.316H145.806L145.579 40.4249ZM143.085 31.1563L146.825 39.2876H148.582L152.322 31.1563L153.797 31.497V39.2875H156.289V28.3684H151.984L148.412 36.2742L147.676 37.8671L146.995 36.2742L143.426 28.3684H139.118V39.2875H141.612V31.497L143.085 31.1563Z" fill="#1668A5"/>
<path id="Vector_20" d="M121.437 30.2453H130.674H131.467V31.0414V32.5772V35.3651V36.728V37.5248H130.674H121.437H120.646V36.728V31.0414V30.2453H121.437ZM129.881 31.8381H122.23V35.9889H129.881V35.3651V32.5772V31.8381ZM120.927 26.9463H131.186C132.149 26.9463 133.169 27.4593 133.905 28.1407C134.641 28.8798 135.151 29.8469 135.151 30.8139V32.5195V33.6569V35.3074V37.0136C135.151 37.9231 134.641 38.8902 133.848 39.6292C133.112 40.3126 132.149 40.766 131.186 40.766H120.927C119.907 40.766 118.888 40.3126 118.151 39.6292C117.415 38.9472 116.905 37.9807 116.905 37.0136V30.814C116.905 29.7912 117.415 28.8242 118.151 28.1408C118.888 27.4017 119.907 26.9463 120.927 26.9463ZM131.186 28.5391H120.927C120.305 28.5391 119.681 28.8242 119.228 29.2782C118.775 29.6766 118.492 30.2453 118.492 30.814V37.0136C118.492 37.5247 118.775 38.0377 119.228 38.4918C119.681 38.9472 120.305 39.2328 120.927 39.2328H131.186C131.751 39.2328 132.318 38.8901 132.771 38.4918C133.226 38.0377 133.564 37.5247 133.564 37.0136V35.3074V33.6569V32.5196V30.814C133.564 30.2453 133.281 29.7336 132.771 29.2782C132.318 28.8242 131.751 28.5391 131.186 28.5391Z" fill="#1668A5"/>
<path id="Vector_21" d="M84.603 30.9286V40.1423V40.939H83.8097H83.5262H79.39H78.5967V40.1423V27.7424V26.9463H79.39H79.6164H94.5765H95.3698V27.7424V40.1423V40.939H94.5765H94.3501H90.2139H89.4205V40.1423V30.9286H84.603ZM83.0163 39.3455V30.132V29.3928H83.8096H90.2138H91.0071V30.132V39.3456H93.783V28.5392H80.1833V39.3456H83.0163V39.3455Z" fill="#1668A5"/>
<path id="Vector_22" d="M112.202 36.1039H103.248V40.0843V40.8811H102.455H98.9979H98.2046V40.0843V32.7473V31.9505H98.9979H110.615V31.2114H98.9979H98.2046V30.4153V27.5716V26.7749H98.9979H112.202C113.901 26.7749 115.035 28.0276 115.488 29.6186C115.657 30.245 115.714 30.8136 115.714 31.4394C115.714 32.0658 115.657 32.6896 115.488 33.2602C115.035 34.8518 113.901 36.1039 112.202 36.1039ZM102.455 34.5105H112.202C113.108 34.5105 113.675 33.7713 113.958 32.8049C114.07 32.4066 114.184 31.8954 114.184 31.4395C114.184 30.9841 114.07 30.4724 113.958 30.0747C113.675 29.1076 113.108 28.3685 112.202 28.3685H99.7914V29.6186H111.409H112.202V30.4154V32.7473V33.544H111.409H99.7914V39.2877H101.662V35.3072V34.5105H102.455Z" fill="#1668A5"/>
<path id="Vector_23" d="M97.6947 21.943H94.1234H94.0664L98.1475 11.8181C98.6003 10.851 99.0531 10.1118 99.62 9.59891C100.244 9.08785 100.98 8.80216 102.057 8.69141C103.134 8.7465 103.928 9.08785 104.607 9.59891C105.231 10.1696 105.741 10.9087 106.138 11.8181L110.16 21.8278V21.8835H110.105H106.534L102.737 12.4439H101.605L97.6947 21.943Z" fill="#1668A5"/>
<path id="Vector_24" d="M160.313 12.3867L154.361 18.8713L154.192 19.0974C153.003 20.4052 151.869 21.6574 150.509 21.943C150.282 21.9981 150.113 21.9981 149.942 21.9981C149.205 21.9981 148.581 21.713 148.016 21.2589C147.506 20.8055 147.166 20.1791 146.995 19.4381C146.939 19.2127 146.939 18.9847 146.939 18.7566V8.80202V8.74627H146.995H150.397H150.452V8.80202L150.509 18.4159H150.623L156.629 11.9883C156.856 11.7622 157.082 11.4772 157.309 11.2492C158.443 10.1117 159.634 8.86153 160.425 8.74627C162.012 8.51894 162.862 8.91662 163.315 9.54302C163.77 10.1694 163.827 11.1359 163.827 12.0452V21.9428H163.77H160.425H160.37V12.3866L160.313 12.3867Z" fill="#1668A5"/>
<path id="Vector_25" d="M151.133 5.56055H158.726C158.726 6.30155 158.669 6.92729 158.328 7.38137C157.99 7.89439 157.366 8.17746 156.403 8.17746H153.287C152.548 8.17746 151.983 7.89439 151.643 7.49409C151.245 7.04067 151.076 6.35664 151.076 5.56055H151.133Z" fill="#1668A5"/>
<path id="Vector_26" d="M68.5091 21.9427H54.683H54.626V8.80184V8.74609H54.683H68.3969C69.1902 8.74609 70.0958 9.14443 70.72 9.76894C71.287 10.282 71.6827 11.0787 71.6827 11.9881V13.807C71.6827 14.2073 71.4563 14.4904 71.1728 14.7184C70.8342 15.0591 70.3223 15.2871 69.9266 15.3448V15.4575C70.3223 15.5151 70.777 15.8002 71.1176 16.0839C71.4562 16.367 71.6827 16.7077 71.6827 17.0503V18.7565C71.6827 19.438 71.2298 20.2923 70.6058 20.9162C69.9837 21.4868 69.1902 21.9427 68.5091 21.9427ZM68.2827 16.5373H58.083V18.8712H68.2828V16.5373H68.2827ZM68.2827 11.8748H58.083V14.1497H68.2828V11.8748H68.2827Z" fill="#1668A5"/>
<path id="Vector_27" d="M126.936 8.80225H110.67V11.7625H116.905H116.96V21.8836H120.532V11.7625H120.589H126.936V8.80225Z" fill="#1668A5"/>
<path id="Vector_28" d="M171.137 17.0503H181.167C182.528 17.0503 183.376 16.0262 183.774 14.7184C183.886 14.2073 184 13.6962 184 13.1256C184 12.5568 183.886 11.9881 183.774 11.4771C183.376 10.1693 182.528 9.14453 181.167 9.14453H167.623V12.0452H180.374H180.431V14.4904H180.374H167.623V21.9427H171.137V17.1079V17.0503Z" fill="#1668A5"/>
</g>
</g>
<defs>
<clipPath id="clip0_479_795">
<rect width="184" height="43" fill="white"/>
</clipPath>
</defs>
</svg>
