<svg width="125" height="16" viewBox="0 0 125 16" fill="none" xmlns="http://www.w3.org/2000/svg">
<g id="Frame" clip-path="url(#clip0_479_834)">
<g id="Clip path group">
<mask id="mask0_479_834" style="mask-type:luminance" maskUnits="userSpaceOnUse" x="0" y="0" width="125" height="16">
<g id="clip0_363_13597">
<path id="Vector" d="M124.515 0H0.933594V15.7909H124.515V0Z" fill="white"/>
</g>
</mask>
<g mask="url(#mask0_479_834)">
<g id="Group">
<path id="Vector_2" fill-rule="evenodd" clip-rule="evenodd" d="M124.197 0H120.783C120.629 0 120.476 0.0630375 120.353 0.1681L114.045 5.96755L107.757 0.1681C107.634 0.0630375 107.481 0.0105062 107.327 0H103.923C103.677 0 103.626 0.136581 103.81 0.294175L112.02 7.84816L103.708 15.4967C103.534 15.6648 103.585 15.7909 103.82 15.7909H107.225C107.379 15.7909 107.532 15.7278 107.655 15.6228L114.065 9.72878L120.476 15.6228C120.598 15.7278 120.742 15.7804 120.905 15.7909H124.3C124.545 15.7909 124.596 15.6543 124.412 15.4967L116.1 7.84816L124.32 0.294175C124.494 0.126075 124.443 0 124.208 0H124.197Z" fill="#0B1F33"/>
<path id="Vector_3" d="M16.1473 0H1.1483C1.08696 0 1.03584 0.0315187 0.99494 0.0735437C0.954043 0.115569 0.933594 0.1681 0.933594 0.220631V15.5703C0.933594 15.6228 0.954043 15.6858 0.99494 15.7173C1.03584 15.7594 1.08696 15.7804 1.1483 15.7804H4.10312C4.15424 15.7804 4.21559 15.7594 4.25648 15.7173C4.29738 15.6753 4.31783 15.6228 4.31783 15.5703V3.1939C4.31783 3.14137 4.33828 3.07833 4.37917 3.04681C4.42007 3.00479 4.47119 2.98377 4.53254 2.98377H16.1473C16.1984 2.98377 16.2598 2.96276 16.3007 2.92074C16.3415 2.87871 16.362 2.82618 16.362 2.77365V0.220631C16.362 0.1681 16.3415 0.105062 16.3007 0.0735437C16.2598 0.0315187 16.2086 0.0105062 16.1473 0.0105062V0Z" fill="#0B1F33"/>
<path id="Vector_4" d="M57.8318 2.97351C57.8829 2.97351 57.9442 2.95249 57.9851 2.91047C58.026 2.86844 58.0465 2.81591 58.0465 2.76338V0.220867C58.0465 0.168335 58.026 0.105298 57.9851 0.0737796C57.9442 0.0317547 57.8931 0.0107422 57.8318 0.0107422H48.3743C46.2988 0.0107422 44.3051 0.840735 42.843 2.31161C41.3707 3.79299 40.5527 5.79969 40.5527 7.89043C40.5527 9.98117 41.3809 11.9878 42.843 13.4692C44.3153 14.9506 46.2988 15.7806 48.3743 15.7806H57.8318C57.8829 15.7806 57.9442 15.7491 57.9851 15.707C58.026 15.665 58.0465 15.6125 58.0465 15.5599V13.0174C58.0465 12.9649 58.026 12.9019 57.9851 12.8703C57.9442 12.8283 57.8931 12.8073 57.8318 12.8073H48.7935C47.5155 12.7863 46.2886 12.261 45.3888 11.3469C44.4891 10.4329 43.9779 9.1932 43.9779 7.90093C43.9779 6.60867 44.4789 5.36893 45.3888 4.45489C46.2886 3.54084 47.5155 3.01553 48.7935 3.00503H57.8318V2.97351Z" fill="#0B1F33"/>
<path id="Vector_5" d="M97.3587 9.48714C98.6061 9.48714 99.7921 8.98284 100.671 8.10031C101.551 7.21779 102.041 6.02008 102.041 4.75933V4.72781C102.041 3.47757 101.551 2.27986 100.671 1.38682C99.7921 0.5043 98.6061 0 97.3587 0H90.805C88.7294 0 86.7357 0.829993 85.2736 2.31137C83.8013 3.79275 82.9834 5.79945 82.9834 7.89019C82.9834 9.98093 83.8116 11.9876 85.2736 13.469C86.7357 14.9504 88.7294 15.7804 90.805 15.7804H100.794C100.845 15.7804 100.907 15.7594 100.947 15.7173C100.988 15.6753 101.009 15.6228 101.009 15.5703V13.0067C101.009 12.9542 100.988 12.8912 100.947 12.8596C100.907 12.8176 100.855 12.7966 100.794 12.7966H91.2242C90.2529 12.7966 89.302 12.4919 88.4943 11.9456C87.6866 11.3993 87.0629 10.6113 86.705 9.69726C86.6948 9.67625 86.6846 9.65524 86.6948 9.62372C86.6948 9.60271 86.6948 9.57119 86.7153 9.55018C86.7255 9.52916 86.7459 9.50815 86.7664 9.50815C86.7868 9.50815 86.8175 9.49764 86.8379 9.49764C87.8297 9.49764 97.3587 9.49764 97.3587 9.49764V9.48714ZM86.6232 6.30375C86.9504 5.33717 87.5741 4.49667 88.4023 3.90832C89.2304 3.31997 90.212 2.99428 91.2242 2.99428H97.0622C98.0744 2.99428 98.8924 3.72972 98.8924 4.74882V4.78034C98.8924 5.79945 98.0744 6.51387 97.0622 6.51387H86.7664C86.7664 6.51387 86.7153 6.51387 86.6948 6.50337C86.6744 6.50337 86.6539 6.47185 86.6335 6.46134C86.6232 6.44033 86.613 6.41931 86.6028 6.3878C86.5926 6.35628 86.6028 6.33527 86.613 6.31425L86.6232 6.30375Z" fill="#0B1F33"/>
<path id="Vector_6" d="M35.4611 2.31137L33.3652 4.23402C33.3652 4.23402 33.3243 4.27604 33.314 4.29705C33.3038 4.31807 33.2936 4.34959 33.2936 4.3811C33.2936 4.41262 33.2936 4.43363 33.3038 4.46515C33.3038 4.48617 33.3243 4.51768 33.3447 4.5387C33.9991 5.23211 34.4285 6.10413 34.6023 7.04969C34.7659 7.99525 34.6534 8.96183 34.2751 9.84435C33.8968 10.7269 33.2731 11.4728 32.4757 11.9981C31.6782 12.5234 30.7478 12.8071 29.8071 12.7966H25.7072C24.4291 12.7861 23.2022 12.2608 22.3025 11.3467C21.4028 10.4327 20.8915 9.19296 20.8915 7.9007C20.8915 6.60843 21.3925 5.36869 22.3025 4.45465C23.2022 3.5406 24.4291 3.01529 25.7072 3.00479H29.8071C29.9912 3.00479 30.165 3.00479 30.349 3.0363C30.4819 3.0363 30.6148 3.00479 30.7171 2.92074L33.0584 0.766956C33.0584 0.766956 33.0891 0.735437 33.0993 0.714425C33.0993 0.693412 33.1096 0.6724 33.0993 0.640881C33.0993 0.619868 33.0789 0.598856 33.0687 0.577843C33.0482 0.556831 33.0278 0.546325 33.0073 0.546325C32.1485 0.178606 31.1976 0 30.2468 0H25.2982C23.2329 0 21.2392 0.829993 19.7669 2.31137C18.2946 3.79275 17.4766 5.79945 17.4766 7.89019C17.4766 9.98093 18.3048 11.9876 19.7669 13.469C21.2289 14.9504 23.2227 15.7804 25.2982 15.7804H30.2468C31.7906 15.7804 33.314 15.3181 34.6023 14.4566C35.8906 13.5951 36.8925 12.3553 37.4855 10.916C38.0786 9.47663 38.2319 7.89019 37.9252 6.35628C37.6185 4.82237 36.8721 3.42504 35.7781 2.32188C35.7372 2.27986 35.6861 2.25884 35.6247 2.25884C35.5634 2.25884 35.5123 2.27986 35.4714 2.32188L35.4611 2.31137Z" fill="#0B1F33"/>
<path id="Vector_7" d="M61.0623 2.98377H69.2009C69.252 2.98377 69.3133 3.00479 69.3542 3.04681C69.3951 3.08884 69.4156 3.14137 69.4156 3.1939V15.5703C69.4156 15.6228 69.436 15.6858 69.4769 15.7173C69.5178 15.7594 69.5689 15.7804 69.6303 15.7804H72.5953C72.6464 15.7804 72.7078 15.7594 72.7487 15.7173C72.7896 15.6753 72.81 15.6228 72.81 15.5703V0C72.81 0 72.718 0 72.5953 0H61.0726C61.0215 0 60.9601 0.0210125 60.9192 0.0630375C60.8783 0.105062 60.8579 0.157594 60.8579 0.210125V2.77365C60.8579 2.82618 60.8783 2.88922 60.9192 2.92074C60.9601 2.96276 61.0112 2.98377 61.0726 2.98377H61.0623Z" fill="#0B1F33"/>
<path id="Vector_8" d="M81.143 0H75.5912C75.4788 0 75.3765 0.0945562 75.3765 0.210125V2.77365C75.3765 2.88922 75.4685 2.98377 75.5912 2.98377H81.143C81.2555 2.98377 81.3577 2.88922 81.3577 2.77365V0.210125C81.3577 0.0945562 81.2657 0 81.143 0Z" fill="#0B1F33"/>
</g>
</g>
</g>
</g>
<defs>
<clipPath id="clip0_479_834">
<rect width="125" height="16" fill="white"/>
</clipPath>
</defs>
</svg>
