<?xml version="1.0" encoding="utf-8"?>
<!-- Generator: Adobe Illustrator 26.2.1, SVG Export Plug-In . SVG Version: 6.00 Build 0)  -->
<svg version="1.1" id="Layer_1" xmlns="http://www.w3.org/2000/svg" xmlns:xlink="http://www.w3.org/1999/xlink" x="0px" y="0px"
	 viewBox="0 0 1430 807.33" style="enable-background:new 0 0 1430 807.33;" xml:space="preserve">
<style type="text/css">
	.st0{fill:#0027C8;}
</style>
<g>
	<polygon class="st0" points="727.35,328.43 811.53,279.15 811.53,418.76 727.35,467 727.35,515.25 938.81,394.12 938.81,345.88 
		854.64,393.09 854.64,253.49 938.81,204.22 938.81,157 727.35,278.13 	"/>
	<polygon class="st0" points="906.99,121.07 890.57,111.83 717.09,212.43 586.72,137.5 718.11,61.53 748.91,80.01 793.05,54.35 
		717.09,11.24 499.47,136.47 500.5,137.5 718.11,262.73 933.68,136.47 	"/>
	<path class="st0" d="M497.42,394.12l39.01,22.58l1.03,1.03v-87.25l128.31,74.93v85.2l44.14,24.64V278.13L497.42,157V394.12z
		 M536.42,227.83l129.34,75.96v52.35l-129.34-73.91V227.83z"/>
</g>
<g>
	<path class="st0" d="M177.47,707.16l0.22,0.65c0.29,16.96-4.89,30.41-15.53,40.37c-10.64,9.96-25.41,14.94-44.32,14.94
		c-18.98,0-34.38-6.1-46.21-18.29c-11.83-12.19-17.75-27.89-17.75-47.08v-31.28c0-19.12,5.77-34.81,17.32-47.08
		S97.74,601,116.21,601c19.48,0,34.7,5,45.67,14.99c10.97,9.99,16.31,23.61,16.02,40.86l-0.22,0.65h-30.74
		c0-10.39-2.49-18.34-7.47-23.86s-12.73-8.28-23.27-8.28c-9.45,0-16.96,3.84-22.51,11.51c-5.56,7.68-8.33,17.47-8.33,29.36v31.46
		c0,12.04,2.92,21.9,8.77,29.58c5.84,7.68,13.74,11.51,23.7,11.51c9.88,0,17.19-2.65,21.92-7.95c4.73-5.3,7.09-13.19,7.09-23.65
		H177.47z"/>
	<path class="st0" d="M338.01,696.23c0,19.34-6.11,35.32-18.34,47.94c-12.23,12.63-28.12,18.94-47.67,18.94
		c-19.41,0-35.17-6.31-47.29-18.94c-12.12-12.63-18.18-28.61-18.18-47.94v-28.36c0-19.26,6.04-35.23,18.13-47.89
		c12.09-12.66,27.83-18.99,47.24-18.99c19.55,0,35.46,6.33,47.73,18.99c12.27,12.66,18.4,28.63,18.4,47.89V696.23z M306.4,667.75
		c0-12.29-3.07-22.37-9.2-30.26c-6.13-7.88-14.57-11.82-25.32-11.82c-10.75,0-19.08,3.92-25,11.77c-5.92,7.84-8.87,17.95-8.87,30.31
		v28.62c0,12.51,2.99,22.7,8.98,30.58c5.99,7.88,14.32,11.82,25,11.82c10.82,0,19.26-3.94,25.32-11.82
		c6.06-7.88,9.09-18.07,9.09-30.58V667.75z"/>
	<path class="st0" d="M501.15,760.84h-31.49l-63.64-107.68l-0.65,0.11v107.58h-31.6V603.27h31.6L469,710.84l0.65-0.11V603.27h31.49
		V760.84z"/>
	<path class="st0" d="M650.65,627.62h-44.59v133.23h-31.6V627.62h-44.37v-24.35h120.56V627.62z"/>
	<path class="st0" d="M776.23,691.58h-65.26v44.91h76.3v24.35h-107.9V603.27h107.68v24.35h-76.08v39.61h65.26V691.58z"/>
	<path class="st0" d="M945.11,760.84h-31.49l-63.64-107.68l-0.65,0.11v107.58h-31.6V603.27h31.6l63.64,107.58l0.65-0.11V603.27
		h31.49V760.84z"/>
	<path class="st0" d="M1094.61,627.62h-44.59v133.23h-31.6V627.62h-44.37v-24.35h120.56V627.62z"/>
	<path d="M1274.14,726.86h-55.3l-10.71,33.98h-31.93l54.22-157.58h32.36l54,157.58h-31.93L1274.14,726.86z M1226.63,702.08h39.72
		l-19.48-61.91h-0.65L1226.63,702.08z"/>
	<path d="M1376.13,760.84h-31.6V603.27h31.6V760.84z"/>
</g>
</svg>
