<?xml version="1.0" encoding="utf-8"?>
<!-- Generator: Adobe Illustrator 22.1.0, SVG Export Plug-In . SVG Version: 6.00 Build 0)  -->
<svg version="1.1" id="Layer_1" xmlns="http://www.w3.org/2000/svg" xmlns:xlink="http://www.w3.org/1999/xlink" x="0px" y="0px"
	 viewBox="0 0 340 120" style="enable-background:new 0 0 340 120;" xml:space="preserve">
<style type="text/css">
	.st0{fill:#555555;}
	.st1{fill:#333333;}
	.st2{fill:url(#SVGID_1_);}
	.st3{fill:url(#SVGID_2_);}
	.st4{fill:url(#SVGID_3_);}
</style>
<path class="st0" d="M144.9,73.7l10.7-25.3c0.1-0.1,0-0.3-0.2-0.3h-9.6c-0.1,0-0.1,0-0.2-0.1l-3.3-5.2c-0.1-0.1,0-0.3,0.2-0.3H162
	c0.1,0,0.2,0.1,0.2,0.2v3.9c0,0,0,0.1,0,0.1l-11,27.2c0,0.1-0.1,0.1-0.2,0.1h-6C144.9,74,144.8,73.9,144.9,73.7z"/>
<path class="st0" d="M160.3,63l2-4.9c0-0.1,0.1-0.1,0.2-0.1h9.7c0.1,0,0.2,0.1,0.2,0.2v4.9c0,0.1-0.1,0.2-0.2,0.2h-11.7
	C160.3,63.3,160.2,63.2,160.3,63z"/>
<path class="st1" d="M221.4,74v-4.7H221c-2.6,0-4.9-0.5-6.9-1.4c-2-0.9-3.5-2.3-4.6-4.1c-1.1-1.8-1.7-3.9-1.7-6.1
	c0-2.2,0.5-4.1,1.5-5.9c1-1.7,2.5-3.1,4.3-4.1s4.1-1.5,6.7-1.5h1.1v-3.8h5.9v3.8h1.1c2.6,0,4.8,0.5,6.7,1.5s3.3,2.3,4.4,4.1
	c1,1.7,1.5,3.7,1.5,5.9c0,2.2-0.6,4.3-1.7,6.1c-1.1,1.8-2.7,3.2-4.6,4.1c-2,0.9-4.3,1.4-6.9,1.4h-0.5V74H221.4z M221.4,51.3h-0.9
	c-2.1,0-3.7,0.6-4.9,1.7c-1.2,1.1-1.8,2.7-1.8,4.6c0,2,0.6,3.6,1.9,4.8c1.3,1.2,3,1.8,5.3,1.8h0.3V51.3z M227.3,64.3h0.3
	c2.3,0,4-0.6,5.3-1.8c1.3-1.2,1.9-2.8,1.9-4.9c0-1.9-0.6-3.4-1.8-4.6c-1.2-1.2-2.8-1.7-4.9-1.7h-0.9V64.3z"/>
<path class="st1" d="M205,58.2c0,5.1-1.3,9-3.8,11.7c-2.5,2.7-6.1,4.1-10.8,4.1s-8.3-1.4-10.8-4.1c-2.5-2.7-3.8-6.6-3.8-11.7
	c0-5.1,1.3-9,3.8-11.7c2.5-2.7,6.1-4,10.9-4c4.7,0,8.3,1.4,10.8,4.1C203.8,49.2,205,53.1,205,58.2z M182.6,58.2c0,3.4,0.7,6,2,7.7
	c1.3,1.7,3.2,2.6,5.8,2.6c5.2,0,7.8-3.4,7.8-10.3c0-6.9-2.6-10.3-7.7-10.3c-2.6,0-4.5,0.9-5.9,2.6C183.3,52.2,182.6,54.8,182.6,58.2
	z"/>
<path class="st0" d="M141.8,52.3c0,3.4-1.1,6-3.2,7.8c-2.1,1.8-5.1,2.7-9.1,2.7h-2.9V74H120V42.5h10.1c3.8,0,6.7,0.8,8.7,2.5
	C140.8,46.6,141.8,49.1,141.8,52.3z M126.7,57.3h2.2c2.1,0,3.6-0.4,4.6-1.2c1-0.8,1.5-2,1.5-3.5c0-1.6-0.4-2.7-1.3-3.5
	c-0.9-0.7-2.2-1.1-4-1.1h-3V57.3z"/>
<path class="st1" d="M244.5,42.5h6v15.2l-0.1,4.1l-0.2,4.6h0.1l14.6-23.9h8V74h-6V58.9c0-2,0.1-5,0.4-9h-0.2L252.6,74h-8V42.5z"/>
<path class="st1" d="M291,47.9c-2.4,0-4.3,0.9-5.7,2.8c-1.3,1.8-2,4.4-2,7.7c0,6.8,2.6,10.3,7.7,10.3c2.2,0,4.8-0.5,7.8-1.6v5.5
	c-2.5,1-5.3,1.6-8.4,1.6c-4.5,0-7.9-1.4-10.2-4.1c-2.4-2.7-3.5-6.6-3.5-11.7c0-3.2,0.6-6,1.7-8.4c1.2-2.4,2.8-4.2,5-5.5
	c2.2-1.3,4.7-1.9,7.6-1.9c3,0,6,0.7,9,2.2l-2.1,5.3c-1.1-0.5-2.3-1-3.5-1.4C293.2,48.1,292.1,47.9,291,47.9z"/>
<g>
	
		<linearGradient id="SVGID_1_" gradientUnits="userSpaceOnUse" x1="68.9931" y1="63.408" x2="68.9931" y2="32.1659" gradientTransform="matrix(1 0 0 1 -6.768378e-03 -7.845520e-03)">
		<stop  offset="0" style="stop-color:#FF8745"/>
		<stop  offset="0.6608" style="stop-color:#E15318"/>
		<stop  offset="1" style="stop-color:#D13700"/>
	</linearGradient>
	<path class="st2" d="M66,62.2L54.6,50.8c-1.6-1.6-1.6-4.3,0-6L66,33.4c1.6-1.6,4.3-1.6,6,0l11.4,11.4c1.6,1.6,1.6,4.3,0,6L72,62.2
		C70.3,63.8,67.6,63.8,66,62.2z"/>
</g>
<g>
	
		<linearGradient id="SVGID_2_" gradientUnits="userSpaceOnUse" x1="47.8811" y1="84.4818" x2="47.8811" y2="53.2397" gradientTransform="matrix(1 0 0 1 -6.768378e-03 -7.845520e-03)">
		<stop  offset="0" style="stop-color:#4EB7E5"/>
		<stop  offset="1" style="stop-color:#328BCB"/>
	</linearGradient>
	<path class="st3" d="M44.9,83.1L33.5,71.7c-1.6-1.6-1.6-4.3,0-6l11.4-11.4c1.6-1.6,4.3-1.6,6,0l11.4,11.4c1.6,1.6,1.6,4.3,0,6
		L50.9,83.1C49.2,84.8,46.5,84.8,44.9,83.1z"/>
</g>
<g>
	
		<linearGradient id="SVGID_3_" gradientUnits="userSpaceOnUse" x1="89.767" y1="84.3505" x2="89.767" y2="53.1084" gradientTransform="matrix(1 0 0 1 -6.768378e-03 -7.845520e-03)">
		<stop  offset="0" style="stop-color:#9BDA32"/>
		<stop  offset="1" style="stop-color:#6EA70E"/>
	</linearGradient>
	<path class="st4" d="M86.8,83.1L75.4,71.7c-1.6-1.6-1.6-4.3,0-6l11.4-11.4c1.6-1.6,4.3-1.6,6,0l11.4,11.4c1.6,1.6,1.6,4.3,0,6
		L92.7,83.1C91.1,84.8,88.4,84.8,86.8,83.1z"/>
</g>
</svg>
