<?xml version="1.0" encoding="utf-8"?>
<!-- Generator: Adobe Illustrator 25.1.0, SVG Export Plug-In . SVG Version: 6.00 Build 0)  -->
<svg version="1.1" id="Layer_1" xmlns="http://www.w3.org/2000/svg" xmlns:xlink="http://www.w3.org/1999/xlink" x="0px" y="0px"
	 viewBox="0 0 439 165" style="enable-background:new 0 0 439 165;" xml:space="preserve">
<style type="text/css">
	.st0{fill:#3B3E40;}
	.st1{fill:#EE4A23;}
</style>
<path class="st0" d="M187.1,109.5H173h-28.4h-9.3h-4.8h-5.9c-0.9,0-1.6,0.7-1.6,1.6v2.8c0,0.9,0.7,1.6,1.6,1.6h6.6h4.7h9.5H173h14.1
	c0.9,0,1.6-0.7,1.6-1.6v-2.8C188.7,110.2,188,109.5,187.1,109.5z"/>
<path class="st0" d="M110.6,64.9c-1.7-1.7-3.8-2.6-6.3-2.6H65.8H60v9.9v0.7v3.4V77v2v2v1.2v1.5v31.8h6V95.6l22.4,0.1l16.6,19.8h7.9
	v-0.1L96.2,95.7h8.1c2.5,0,4.6-0.9,6.3-2.6c1.7-1.7,2.6-3.8,2.6-6.2v-1.7v-1.8v-0.5V79v-0.7v-1.6v-4.2v-0.3v-1.1
	C113.2,68.8,112.3,66.7,110.6,64.9z M107.1,86.9c0,0.8-0.3,1.5-0.8,2c-0.5,0.5-1.2,0.8-2,0.8H68.9c-0.8,0-1.5-0.3-2-0.8
	c-0.6-0.5-0.8-1.2-0.8-2v-3.2v-1.5V81V79v-2.2v-0.5v-3.4v-0.7v-1.1c0-0.8,0.3-1.5,0.8-2c0.6-0.6,1.2-0.8,2-0.8h35.5
	c0.8,0,1.5,0.3,2,0.8c0.5,0.6,0.8,1.2,0.8,2v1.1v0.3v4.2v2.3v0.1v4.5v0.5V86V86.9z"/>
<path class="st0" d="M311.7,62.3h-35.5c-2.5,0-4.6,0.9-6.3,2.6c-1.7,1.7-2.6,3.8-2.6,6.3v11.9c0,2.4,0.9,4.5,2.6,6.2
	c1.7,1.7,3.8,2.6,6.3,2.6h35.5c0.8,0,1.5,0.3,2,0.8c0.6,0.5,0.8,1.2,0.8,2v11.9c0,0.8-0.3,1.5-0.8,2c-0.6,0.6-1.2,0.8-2,0.8h-35.5
	c-0.8,0-1.5-0.3-2-0.8c-0.6-0.6-0.8-1.2-0.8-2v-2.1h-6v2.1c0,2.5,0.9,4.6,2.6,6.3c1.7,1.7,3.8,2.6,6.3,2.6h35.5
	c2.5,0,4.6-0.9,6.3-2.6c1.7-1.7,2.6-3.8,2.6-6.3V94.8c0-2.4-0.9-4.5-2.6-6.2c-1.7-1.7-3.8-2.6-6.3-2.6h-35.5c-0.8,0-1.5-0.3-2-0.8
	c-0.6-0.5-0.8-1.2-0.8-2V71.2c0-0.8,0.3-1.5,0.8-2c0.6-0.6,1.2-0.8,2-0.8h35.5c0.8,0,1.5,0.3,2,0.8c0.6,0.6,0.8,1.2,0.8,2v2.1h6
	v-2.1c0-2.5-0.9-4.6-2.6-6.3C316.3,63.2,314.2,62.3,311.7,62.3z"/>
<path class="st0" d="M250.8,62.3h-14.8v6h14.8c0.8,0,1.5,0.3,2,0.8c0.6,0.6,0.8,1.2,0.8,2v35.5c0,0.8-0.3,1.5-0.8,2
	c-0.6,0.6-1.2,0.8-2,0.8h-35.5c-0.8,0-1.5-0.3-2-0.8c-0.6-0.6-0.8-1.2-0.8-2V82.8h-6v23.8c0,2.5,0.9,4.6,2.6,6.3
	c1.7,1.7,3.8,2.6,6.3,2.6h35.5c2.5,0,4.6-0.9,6.3-2.6c1.7-1.7,2.6-3.8,2.6-6.3V71.2c0-2.5-0.9-4.6-2.6-6.3
	C255.3,63.2,253.2,62.3,250.8,62.3z"/>
<polygon class="st0" points="325.8,62.3 325.8,68.3 349.5,68.3 349.5,115.5 355.4,115.5 355.4,68.3 379,68.3 379,62.3 "/>
<g>
	<path class="st1" d="M170.2,49.5v4.8v28.1v2.2v2.6v6.5c0,0.8-0.3,1.5-0.8,2c-0.6,0.6-1.2,0.8-2,0.8h-35.5c-0.8,0-1.5-0.3-2-0.8
		c-0.6-0.6-0.8-1.2-0.8-2V87v-2.6v-2.2V54.3v-4.8h-6v4.8v27.8v2.2V87v6.8c0,2.5,0.9,4.6,2.6,6.3c1.7,1.7,3.8,2.6,6.3,2.6h21.6h13.9
		c2.5,0,4.6-0.9,6.3-2.6c1.7-1.7,2.6-3.8,2.6-6.3v-6.3v-2.6v-2.2V54.3v-4.8H170.2z"/>
	<path class="st1" d="M233.3,52.1c-1.7-1.7-3.8-2.6-6.3-2.6h-23.6h-0.9h-2.3h-0.6h-10.9h-0.3h-5.6v18.8h6V55.5v0h10.7h1.6h2.3h1
		h22.9c1.6,0,2.8,1.3,2.8,2.8v1.4v0.4V62v0.3v1.6v0.6v1.1v0.8v0.8v0.9V74c0,0,0,0,0,0c0,0.3-0.1,0.6-0.2,0.9c0,0.1-0.1,0.2-0.1,0.3
		c-0.1,0.3-0.3,0.5-0.5,0.8c0,0,0,0,0,0c0,0,0,0,0,0c-0.3,0.2-0.5,0.4-0.9,0.6c0,0,0,0-0.1,0c-0.3,0.1-0.7,0.2-1,0.2h-44.4v25.9h6
		V82.8h38.3c2.5,0,4.6-0.9,6.3-2.6c1.7-1.7,2.6-3.8,2.6-6.2v-5.7v-0.9v-0.8v-0.6v-1.3v-0.4v-1.8v-0.1v-1.9v-0.4v-1.7
		C235.9,55.9,235.1,53.9,233.3,52.1z"/>
</g>
</svg>
