<?xml version="1.0" encoding="utf-8"?>
<!-- Generator: Adobe Illustrator 18.0.0, SVG Export Plug-In . SVG Version: 6.00 Build 0)  -->
<!DOCTYPE svg PUBLIC "-//W3C//DTD SVG 1.1//EN" "http://www.w3.org/Graphics/SVG/1.1/DTD/svg11.dtd">
<svg version="1.1" id="Слой_1" xmlns="http://www.w3.org/2000/svg" xmlns:xlink="http://www.w3.org/1999/xlink" x="0px" y="0px"
	 viewBox="0 0 144.6 65.2" enable-background="new 0 0 144.6 65.2" xml:space="preserve">
<g>
	<polygon fill="#FEFEFE" points="54.3,14.2 54.3,12.5 61.1,12.5 61.1,14.2 58.6,14.2 58.6,22.1 56.9,22.1 56.9,14.2 54.3,14.2 
		54.3,14.2 	"/>
	<path fill="#FEFEFE" d="M65.2,16.5h2.7c0,0,0.1,0,0.1-0.1c0.1,0,0.1-0.1,0.2-0.2c0.1-0.1,0.1-0.2,0.2-0.3c0.1-0.1,0.1-0.3,0.1-0.5
		c0-0.2,0-0.4-0.1-0.5c-0.1-0.1-0.1-0.2-0.2-0.3c-0.1-0.1-0.1-0.2-0.2-0.2c-0.1,0-0.1-0.1-0.1-0.1h-2.7V16.5L65.2,16.5z M63.5,22.1
		v-9.6H68c0.2,0,0.4,0.1,0.7,0.2c0.3,0.1,0.5,0.3,0.7,0.5c0.2,0.2,0.4,0.5,0.6,0.9c0.2,0.4,0.2,0.8,0.2,1.2c0,0.4-0.1,0.8-0.2,1.1
		c-0.1,0.3-0.3,0.6-0.5,0.8c-0.2,0.2-0.4,0.4-0.6,0.6c-0.2,0.1-0.4,0.2-0.6,0.3l1.6,2.3v1.7h-1.7V21l-2-2.8h-1.1v4H63.5L63.5,22.1
		L63.5,22.1z"/>
	<path fill="#FEFEFE" d="M75.1,18.2h2.4l-1.2-3.8L75.1,18.2L75.1,18.2L75.1,18.2z M72.7,22.1v-1.8l2.5-7.7h2.3l2.5,7.7v1.8h-1.7
		v-1.6l-0.2-0.7h-3.5l-0.2,0.7v1.6H72.7L72.7,22.1L72.7,22.1z"/>
	<polygon fill="#FEFEFE" points="82.8,22.1 82.8,12.5 88.9,12.5 88.9,14.2 84.5,14.2 84.5,16.5 88.4,16.5 88.4,18.2 84.5,18.2 
		84.5,22.1 82.8,22.1 82.8,22.1 	"/>
	<polygon fill="#FEFEFE" points="91.6,22.1 91.6,12.5 97.8,12.5 97.8,14.2 93.3,14.2 93.3,16.5 97.2,16.5 97.2,18.2 93.3,18.2 
		93.3,22.1 91.6,22.1 91.6,22.1 	"/>
	<polygon fill="#FEFEFE" points="100.4,22.1 100.4,12.5 102.1,12.5 102.1,22.1 100.4,22.1 100.4,22.1 	"/>
	<path fill="#FEFEFE" d="M105.3,20.1v-5.6c0-0.2,0.1-0.5,0.3-0.7c0.2-0.3,0.4-0.5,0.8-0.7c0.3-0.2,0.7-0.4,1.1-0.6
		c0.4-0.1,0.8-0.2,1.2-0.2c0.4,0,0.8,0.1,1.2,0.2c0.4,0.1,0.8,0.3,1.1,0.6c0.3,0.2,0.6,0.5,0.8,0.7c0.2,0.3,0.3,0.5,0.3,0.7v0.8
		h-1.7v-0.6c-0.1-0.1-0.1-0.1-0.2-0.2c-0.1-0.1-0.2-0.2-0.4-0.3c-0.1-0.1-0.3-0.1-0.5-0.2c-0.2-0.1-0.4-0.1-0.6-0.1
		c-0.2,0-0.4,0-0.6,0.1c-0.2,0.1-0.3,0.1-0.5,0.2c-0.1,0.1-0.3,0.2-0.4,0.3c-0.1,0.1-0.2,0.2-0.2,0.2v5.2c0.1,0.1,0.1,0.1,0.2,0.2
		c0.1,0.1,0.2,0.2,0.4,0.3c0.1,0.1,0.3,0.1,0.5,0.2c0.2,0.1,0.4,0.1,0.6,0.1c0.2,0,0.4,0,0.6-0.1c0.2-0.1,0.3-0.1,0.5-0.2
		c0.1-0.1,0.3-0.2,0.4-0.3c0.1-0.1,0.2-0.2,0.3-0.2v-0.6h1.7v0.8c0,0.2-0.1,0.5-0.3,0.8c-0.2,0.3-0.5,0.5-0.8,0.7
		c-0.3,0.2-0.7,0.4-1.1,0.5c-0.4,0.1-0.8,0.2-1.2,0.2c-0.4,0-0.8-0.1-1.2-0.2c-0.4-0.1-0.8-0.3-1.1-0.5c-0.3-0.2-0.6-0.5-0.8-0.7
		C105.4,20.6,105.3,20.4,105.3,20.1L105.3,20.1L105.3,20.1z"/>
	<polygon fill="#FEFEFE" points="55.3,36 55.3,26.4 57,26.4 57,36 55.3,36 55.3,36 	"/>
	<polygon fill="#FEFEFE" points="60.3,36 60.3,26.4 61.7,26.4 65.4,32.6 65.4,26.4 67.1,26.4 67.1,36 65.4,36 62,30.3 62,36 
		60.3,36 60.3,36 	"/>
	<path fill="#FEFEFE" d="M70.1,34.3v-0.8h1.7V34c0.1,0.1,0.3,0.2,0.6,0.3c0.3,0.1,0.6,0.2,1,0.2c0.4,0,0.8-0.1,1.1-0.2
		c0.3-0.1,0.5-0.2,0.6-0.4v-1.3c-0.1,0-0.3-0.1-0.6-0.2c-0.3-0.1-0.6-0.2-0.9-0.4c-0.3-0.1-0.7-0.2-1-0.4c-0.3-0.1-0.6-0.2-0.7-0.3
		c-0.6-0.2-1-0.4-1.3-0.6c-0.3-0.2-0.5-0.5-0.5-0.8v-1.9c0-0.3,0.1-0.5,0.3-0.8c0.2-0.2,0.5-0.4,0.8-0.6c0.3-0.2,0.7-0.3,1.1-0.4
		c0.4-0.1,0.8-0.2,1.2-0.2c0.4,0,0.8,0.1,1.2,0.2c0.4,0.1,0.8,0.3,1.1,0.4c0.3,0.2,0.6,0.4,0.8,0.6c0.2,0.2,0.3,0.5,0.3,0.8v0.8
		h-1.7v-0.6c-0.1-0.1-0.3-0.2-0.6-0.3c-0.3-0.1-0.7-0.2-1.1-0.2c-0.4,0-0.7,0.1-1,0.2c-0.3,0.1-0.5,0.2-0.6,0.3v1.3
		c0.1,0.1,0.3,0.1,0.6,0.2c0.3,0.1,0.6,0.2,1,0.3c0.3,0.1,0.7,0.2,1,0.4c0.3,0.1,0.6,0.2,0.7,0.3c0.6,0.2,1,0.4,1.3,0.6
		c0.3,0.2,0.5,0.5,0.5,0.8v2c0,0.3-0.1,0.5-0.3,0.8c-0.2,0.2-0.5,0.4-0.8,0.6c-0.3,0.2-0.7,0.3-1.1,0.4c-0.4,0.1-0.8,0.2-1.2,0.2
		c-0.4,0-0.8-0.1-1.2-0.2c-0.4-0.1-0.8-0.2-1.1-0.4c-0.3-0.2-0.6-0.4-0.8-0.6C70.2,34.8,70.1,34.6,70.1,34.3L70.1,34.3L70.1,34.3z"
		/>
	<path fill="#FEFEFE" d="M81.4,30.3h2.7c0,0,0.1,0,0.1-0.1c0.1,0,0.1-0.1,0.2-0.2c0.1-0.1,0.1-0.2,0.2-0.3c0.1-0.1,0.1-0.3,0.1-0.5
		c0-0.2,0-0.4-0.1-0.5c-0.1-0.1-0.1-0.2-0.2-0.3c-0.1-0.1-0.1-0.2-0.2-0.2c-0.1,0-0.1-0.1-0.1-0.1h-2.7V30.3L81.4,30.3z M79.7,36
		v-9.6h4.5c0.2,0,0.4,0.1,0.7,0.2c0.3,0.1,0.5,0.3,0.7,0.5c0.2,0.2,0.4,0.5,0.6,0.9c0.2,0.3,0.2,0.8,0.2,1.2c0,0.5-0.1,0.9-0.2,1.2
		c-0.2,0.3-0.4,0.6-0.6,0.9c-0.2,0.2-0.5,0.4-0.7,0.5C84.7,32,84.4,32,84.2,32h-2.8v4H79.7L79.7,36L79.7,36z"/>
	<polygon fill="#FEFEFE" points="89.1,36 89.1,26.4 95.3,26.4 95.3,28.1 90.8,28.1 90.8,30.3 94.7,30.3 94.7,32 90.8,32 90.8,34.3 
		95.3,34.3 95.3,36 89.1,36 89.1,36 	"/>
	<path fill="#FEFEFE" d="M98.4,34v-5.6c0-0.2,0.1-0.5,0.3-0.7c0.2-0.3,0.4-0.5,0.8-0.7c0.3-0.2,0.7-0.4,1.1-0.6
		c0.4-0.1,0.8-0.2,1.2-0.2c0.4,0,0.8,0.1,1.2,0.2c0.4,0.1,0.8,0.3,1.1,0.6c0.3,0.2,0.6,0.5,0.8,0.7c0.2,0.3,0.3,0.5,0.3,0.7v0.8
		h-1.7v-0.6c-0.1-0.1-0.1-0.1-0.2-0.2c-0.1-0.1-0.2-0.2-0.4-0.3c-0.1-0.1-0.3-0.1-0.5-0.2c-0.2-0.1-0.4-0.1-0.6-0.1
		c-0.2,0-0.4,0-0.6,0.1c-0.2,0.1-0.3,0.1-0.5,0.2c-0.1,0.1-0.3,0.2-0.4,0.3c-0.1,0.1-0.2,0.2-0.2,0.2v5.2c0.1,0.1,0.1,0.1,0.2,0.2
		c0.1,0.1,0.2,0.2,0.4,0.3c0.1,0.1,0.3,0.1,0.5,0.2c0.2,0.1,0.4,0.1,0.6,0.1c0.2,0,0.4,0,0.6-0.1c0.2-0.1,0.3-0.1,0.5-0.2
		c0.1-0.1,0.3-0.2,0.4-0.3c0.1-0.1,0.2-0.2,0.3-0.2v-0.6h1.7V34c0,0.2-0.1,0.5-0.3,0.8c-0.2,0.3-0.5,0.5-0.8,0.7
		c-0.3,0.2-0.7,0.4-1.1,0.5c-0.4,0.1-0.8,0.2-1.2,0.2c-0.4,0-0.8-0.1-1.2-0.2c-0.4-0.1-0.8-0.3-1.1-0.5c-0.3-0.2-0.6-0.5-0.8-0.7
		C98.5,34.5,98.4,34.2,98.4,34L98.4,34L98.4,34z"/>
	<polygon fill="#FEFEFE" points="107.4,28.1 107.4,26.4 114.2,26.4 114.2,28.1 111.6,28.1 111.6,36 110,36 110,28.1 107.4,28.1 
		107.4,28.1 	"/>
	<path fill="#FEFEFE" d="M118.1,33.8c0.1,0.1,0.1,0.1,0.2,0.2c0.1,0.1,0.2,0.2,0.4,0.3c0.2,0.1,0.3,0.1,0.5,0.2
		c0.2,0.1,0.4,0.1,0.6,0.1c0.2,0,0.4,0,0.6-0.1c0.2-0.1,0.3-0.1,0.5-0.2c0.2-0.1,0.3-0.2,0.4-0.3c0.1-0.1,0.2-0.2,0.2-0.2v-5.2
		c-0.1-0.1-0.1-0.1-0.2-0.2c-0.1-0.1-0.2-0.2-0.4-0.3c-0.2-0.1-0.3-0.1-0.5-0.2c-0.2-0.1-0.4-0.1-0.6-0.1c-0.2,0-0.4,0-0.6,0.1
		c-0.2,0.1-0.3,0.1-0.5,0.2c-0.2,0.1-0.3,0.2-0.4,0.3c-0.1,0.1-0.2,0.2-0.2,0.2V33.8L118.1,33.8z M116.4,34v-5.6
		c0-0.2,0.1-0.5,0.3-0.7c0.2-0.3,0.4-0.5,0.8-0.7c0.3-0.2,0.7-0.4,1.1-0.6c0.4-0.1,0.8-0.2,1.2-0.2c0.4,0,0.8,0.1,1.2,0.2
		c0.4,0.1,0.8,0.3,1.1,0.6c0.3,0.2,0.6,0.5,0.8,0.7c0.2,0.3,0.3,0.5,0.3,0.7V34c0,0.2-0.1,0.5-0.3,0.8c-0.2,0.3-0.5,0.5-0.8,0.7
		c-0.3,0.2-0.7,0.4-1.1,0.5c-0.4,0.1-0.8,0.2-1.2,0.2c-0.4,0-0.8-0.1-1.2-0.2c-0.4-0.1-0.8-0.3-1.1-0.5c-0.3-0.2-0.6-0.5-0.8-0.7
		C116.5,34.5,116.4,34.2,116.4,34L116.4,34L116.4,34z"/>
	<path fill="#FEFEFE" d="M128.1,30.3h2.7c0,0,0.1,0,0.1-0.1c0.1,0,0.1-0.1,0.2-0.2c0.1-0.1,0.1-0.2,0.2-0.3c0.1-0.1,0.1-0.3,0.1-0.5
		c0-0.2,0-0.4-0.1-0.5c-0.1-0.1-0.1-0.2-0.2-0.3c-0.1-0.1-0.1-0.2-0.2-0.2c-0.1,0-0.1-0.1-0.1-0.1h-2.7V30.3L128.1,30.3z M126.4,36
		v-9.6h4.5c0.2,0,0.4,0.1,0.7,0.2c0.3,0.1,0.5,0.3,0.7,0.5c0.2,0.2,0.4,0.5,0.6,0.9c0.2,0.3,0.2,0.8,0.2,1.2c0,0.4-0.1,0.8-0.2,1.1
		c-0.1,0.3-0.3,0.6-0.5,0.8c-0.2,0.2-0.4,0.4-0.6,0.6c-0.2,0.1-0.4,0.2-0.6,0.3l1.6,2.3V36h-1.7v-1.2l-2-2.8h-1.1v4H126.4L126.4,36
		L126.4,36z"/>
	<polygon fill="#FEFEFE" points="55.3,49.8 55.3,40.3 56.6,40.3 60.3,46.5 60.3,40.3 62,40.3 62,49.8 60.3,49.8 57,44.2 57,49.8 
		55.3,49.8 55.3,49.8 	"/>
	<polygon fill="#FEFEFE" points="65.4,49.8 65.4,40.3 71.6,40.3 71.6,42 67.1,42 67.1,44.2 71.1,44.2 71.1,45.9 67.1,45.9 
		67.1,48.1 71.6,48.1 71.6,49.8 65.4,49.8 65.4,49.8 	"/>
	<polygon fill="#FEFEFE" points="74.6,49.8 74.6,47.8 76.9,45 74.6,42.2 74.6,40.3 76.3,40.3 76.3,41.7 78,43.7 79.7,41.7 
		79.7,40.3 81.4,40.3 81.4,42.2 79.1,45 81.4,47.8 81.4,49.8 79.7,49.8 79.7,48.4 78,46.4 76.3,48.4 76.3,49.8 74.6,49.8 74.6,49.8 
			"/>
	<polygon fill="#FEFEFE" points="83.6,42 83.6,40.3 90.3,40.3 90.3,42 87.8,42 87.8,49.8 86.1,49.8 86.1,42 83.6,42 83.6,42 	"/>
	<path fill="#FEFEFE" d="M55.1,61.7v-5.6c0-0.2,0.1-0.5,0.3-0.7c0.2-0.3,0.4-0.5,0.8-0.7c0.3-0.2,0.7-0.4,1.1-0.6
		c0.4-0.1,0.8-0.2,1.2-0.2c0.4,0,0.8,0.1,1.2,0.2c0.4,0.1,0.8,0.3,1.1,0.6c0.3,0.2,0.6,0.5,0.8,0.7c0.2,0.3,0.3,0.5,0.3,0.7v0.8
		h-1.7v-0.6c-0.1-0.1-0.1-0.1-0.2-0.2c-0.1-0.1-0.2-0.2-0.4-0.3c-0.1-0.1-0.3-0.1-0.5-0.2c-0.2-0.1-0.4-0.1-0.6-0.1
		c-0.2,0-0.4,0-0.6,0.1c-0.2,0.1-0.3,0.1-0.5,0.2c-0.2,0.1-0.3,0.2-0.4,0.3c-0.1,0.1-0.2,0.2-0.2,0.2v5.2c0.1,0.1,0.1,0.1,0.2,0.2
		c0.1,0.1,0.2,0.2,0.4,0.3c0.2,0.1,0.3,0.1,0.5,0.2c0.2,0.1,0.4,0.1,0.6,0.1c0.2,0,0.4,0,0.6-0.1c0.2-0.1,0.3-0.1,0.5-0.2
		c0.2-0.1,0.3-0.2,0.4-0.3c0.1-0.1,0.2-0.2,0.2-0.2V60h-1.4v-1.7h3.1v3.4c0,0.2-0.1,0.5-0.3,0.8c-0.2,0.3-0.5,0.5-0.8,0.7
		c-0.3,0.2-0.7,0.4-1.1,0.5c-0.4,0.1-0.8,0.2-1.2,0.2c-0.4,0-0.8-0.1-1.2-0.2c-0.4-0.1-0.8-0.3-1.1-0.5c-0.3-0.2-0.6-0.5-0.8-0.7
		C55.2,62.2,55.1,62,55.1,61.7L55.1,61.7L55.1,61.7z"/>
	<polygon fill="#FEFEFE" points="65,63.7 65,54.1 71.2,54.1 71.2,55.8 66.7,55.8 66.7,58 70.7,58 70.7,59.7 66.7,59.7 66.7,62 
		71.2,62 71.2,63.7 65,63.7 65,63.7 	"/>
	<polygon fill="#FEFEFE" points="74.5,63.7 74.5,54.1 75.9,54.1 79.6,60.3 79.6,54.1 81.3,54.1 81.3,63.7 79.6,63.7 76.2,58 
		76.2,63.7 74.5,63.7 74.5,63.7 	"/>
	<polygon fill="#FEFEFE" points="84.7,63.7 84.7,54.1 90.9,54.1 90.9,55.8 86.4,55.8 86.4,58 90.3,58 90.3,59.7 86.4,59.7 86.4,62 
		90.9,62 90.9,63.7 84.7,63.7 84.7,63.7 	"/>
	<path fill="#FEFEFE" d="M95.9,58h2.7c0,0,0.1,0,0.1-0.1c0.1,0,0.1-0.1,0.2-0.2c0.1-0.1,0.1-0.2,0.2-0.3c0.1-0.1,0.1-0.3,0.1-0.5
		c0-0.2,0-0.4-0.1-0.5c-0.1-0.1-0.1-0.2-0.2-0.3c-0.1-0.1-0.1-0.2-0.2-0.2c-0.1,0-0.1-0.1-0.1-0.1h-2.7V58L95.9,58z M94.2,63.7v-9.6
		h4.5c0.2,0,0.4,0.1,0.7,0.2c0.3,0.1,0.5,0.3,0.7,0.5c0.2,0.2,0.4,0.5,0.6,0.9c0.2,0.3,0.2,0.8,0.2,1.2c0,0.4-0.1,0.8-0.2,1.1
		c-0.1,0.3-0.3,0.6-0.5,0.8c-0.2,0.2-0.4,0.4-0.6,0.6c-0.2,0.1-0.4,0.2-0.6,0.3l1.6,2.3v1.7H99v-1.2l-2-2.8h-1.1v4H94.2L94.2,63.7
		L94.2,63.7z"/>
	<path fill="#FEFEFE" d="M105.8,59.7h2.4L107,56L105.8,59.7L105.8,59.7L105.8,59.7z M103.4,63.7v-1.8l2.5-7.7h2.3l2.5,7.7v1.8H109
		v-1.6l-0.2-0.7h-3.5l-0.2,0.7v1.6H103.4L103.4,63.7L103.4,63.7z"/>
	<polygon fill="#FEFEFE" points="112.5,55.8 112.5,54.1 119.3,54.1 119.3,55.8 116.8,55.8 116.8,63.7 115.1,63.7 115.1,55.8 
		112.5,55.8 112.5,55.8 	"/>
	<polygon fill="#FEFEFE" points="121.7,63.7 121.7,54.1 123.4,54.1 123.4,63.7 121.7,63.7 121.7,63.7 	"/>
	<path fill="#FEFEFE" d="M128.3,61.5c0.1,0.1,0.1,0.1,0.2,0.2c0.1,0.1,0.2,0.2,0.4,0.3c0.1,0.1,0.3,0.1,0.5,0.2
		c0.2,0.1,0.4,0.1,0.6,0.1c0.2,0,0.4,0,0.6-0.1c0.2-0.1,0.3-0.1,0.5-0.2c0.2-0.1,0.3-0.2,0.4-0.3c0.1-0.1,0.2-0.2,0.2-0.2v-5.2
		c-0.1-0.1-0.1-0.1-0.2-0.2c-0.1-0.1-0.2-0.2-0.4-0.3c-0.2-0.1-0.3-0.1-0.5-0.2c-0.2-0.1-0.4-0.1-0.6-0.1c-0.2,0-0.4,0-0.6,0.1
		c-0.2,0.1-0.3,0.1-0.5,0.2c-0.2,0.1-0.3,0.2-0.4,0.3c-0.1,0.1-0.2,0.2-0.2,0.2V61.5L128.3,61.5z M126.6,61.7v-5.6
		c0-0.2,0.1-0.5,0.3-0.7c0.2-0.3,0.4-0.5,0.8-0.7c0.3-0.2,0.7-0.4,1.1-0.6c0.4-0.1,0.8-0.2,1.2-0.2c0.4,0,0.8,0.1,1.2,0.2
		c0.4,0.1,0.8,0.3,1.1,0.6c0.3,0.2,0.6,0.5,0.8,0.7c0.2,0.3,0.3,0.5,0.3,0.7v5.6c0,0.2-0.1,0.5-0.3,0.8c-0.2,0.3-0.5,0.5-0.8,0.7
		c-0.3,0.2-0.7,0.4-1.1,0.5c-0.4,0.1-0.8,0.2-1.2,0.2c-0.4,0-0.8-0.1-1.2-0.2c-0.4-0.1-0.8-0.3-1.1-0.5c-0.3-0.2-0.6-0.5-0.8-0.7
		C126.7,62.2,126.6,62,126.6,61.7L126.6,61.7L126.6,61.7z"/>
	<polygon fill="#FEFEFE" points="136.6,63.7 136.6,54.1 137.9,54.1 141.6,60.3 141.6,54.1 143.3,54.1 143.3,63.7 141.6,63.7 
		138.2,58 138.2,63.7 136.6,63.7 136.6,63.7 	"/>
	<path fill="#2DE2B5" d="M38.4,49.3c-1.1,3.2-3.2,5.9-5.8,7.9c-2.6,2-5.7,3.3-9.1,3.6l-0.2-2.7c2.9-0.3,5.5-1.3,7.7-3
		c2.2-1.7,3.9-4,4.9-6.7L38.4,49.3L38.4,49.3L38.4,49.3z M20.6,60.8c-3.2-0.3-6.2-1.4-8.7-3.2c-2.5-1.8-4.6-4.2-5.8-7.2l2.4-1.1
		c1.1,2.5,2.8,4.5,4.9,6.1c2.1,1.5,4.6,2.5,7.3,2.7L20.6,60.8L20.6,60.8L20.6,60.8z M25.9,54.9c-0.6,0.2-1.3,0.4-1.9,0.5
		c-0.7,0.1-1.3,0.2-2,0.2c-3.3,0-6.3-1.3-8.5-3.5c-2.2-2.2-3.5-5.2-3.5-8.5c0-3.3,1.4-6.3,3.5-8.5c2.2-2.2,5.2-3.5,8.5-3.5
		s6.3,1.3,8.5,3.5c2.2,2.2,3.5,5.2,3.5,8.5c0,0.5,0,1-0.1,1.5c-0.1,0.5-0.2,1-0.3,1.5l0,0l0,0.1c-0.3,1.2-1.1,2.1-2.1,2.7
		c-1,0.6-2.2,0.8-3.4,0.4c-1-0.3-1.8-0.8-2.4-1.6c-0.5-0.7-0.9-1.6-0.9-2.5h0v-0.2v-1.9c0-0.9-0.4-1.8-1-2.4c-0.6-0.6-1.4-1-2.4-1
		c-0.9,0-1.8,0.4-2.4,1c-0.6,0.6-1,1.4-1,2.4c0,0.9,0.4,1.8,1,2.4c0.6,0.6,1.4,1,2.4,1c0.1,0,0.2,0,0.3,0c0.1,0,0.2,0,0.3,0l0.5,2.6
		l0,0c-0.1,0-0.3,0-0.5,0.1c-0.2,0-0.4,0-0.5,0c-1.7,0-3.2-0.7-4.3-1.8c-1.1-1.1-1.8-2.6-1.8-4.3c0-1.7,0.7-3.2,1.8-4.3l0,0
		c1.1-1.1,2.6-1.8,4.3-1.8c1.3,0,2.6,0.4,3.6,1.2h2.5v4.9v1.9v0c0,0.4,0.1,0.8,0.4,1.1c0.2,0.3,0.6,0.5,0.9,0.6
		c0.5,0.1,0.9,0.1,1.3-0.2c0.4-0.2,0.7-0.6,0.8-1.1l0-0.1l0.4,0.1l-0.4-0.1c0.1-0.4,0.2-0.7,0.2-1.1c0-0.4,0.1-0.8,0.1-1.2
		c0-2.6-1-4.9-2.7-6.6c-1.7-1.7-4-2.7-6.6-2.7s-4.9,1-6.6,2.7c-1.7,1.7-2.7,4-2.7,6.6c0,2.6,1,4.9,2.7,6.6c1.7,1.7,4,2.7,6.6,2.7
		c0.5,0,1,0,1.5-0.1h0c0.5-0.1,1-0.2,1.5-0.4L25.9,54.9L25.9,54.9L25.9,54.9z M24.9,45.6L24.9,45.6L24.9,45.6z M43.6,50.7
		c-0.5,1.6-1.3,3.1-2.1,4.6c-0.9,1.5-1.9,2.8-3.1,4l-1.9-1.9c1-1.1,2-2.3,2.7-3.5c0.8-1.3,1.4-2.6,1.9-4.1L43.6,50.7L43.6,50.7
		L43.6,50.7z M24.6,26.3c4.3,0.6,8,2.8,10.6,5.9c2.6,3.1,4.2,7,4.2,11.4c0,0.5,0,1-0.1,1.5c0,0.6-0.1,1.1-0.2,1.5l-2.6-0.5
		c0.1-0.5,0.1-0.9,0.2-1.3c0-0.4,0.1-0.8,0.1-1.3c0-3.6-1.3-7-3.6-9.6c-2.2-2.6-5.4-4.4-9-5L24.6,26.3L24.6,26.3L24.6,26.3z
		 M8.8,32.1c1.6-1.9,3.6-3.4,5.8-4.4c2.2-1,4.6-1.6,7.1-1.6l0,2.7c-2.1,0-4.1,0.5-6,1.4c-1.9,0.9-3.5,2.1-4.9,3.7L8.8,32.1L8.8,32.1
		L8.8,32.1z M5.1,47.8c-0.2-0.7-0.3-1.4-0.4-2.1c-0.1-0.7-0.1-1.4-0.1-2.2c0-1.6,0.2-3.2,0.7-4.7c0.4-1.5,1.1-3,1.9-4.4l2.3,1.4
		c-0.7,1.2-1.2,2.4-1.6,3.7c-0.4,1.3-0.5,2.6-0.5,4c0,0.6,0,1.2,0.1,1.8c0.1,0.6,0.2,1.2,0.3,1.8L5.1,47.8L5.1,47.8L5.1,47.8z
		 M33.9,62.9c-1.8,1.1-3.7,1.9-5.7,2.5c-2,0.6-4.1,0.9-6.2,0.9c-2.1,0-4.2-0.3-6.2-0.9c-2-0.6-4-1.4-5.8-2.6l1.4-2.3
		c1.6,1,3.3,1.7,5.1,2.3c1.8,0.5,3.6,0.8,5.5,0.8c1.9,0,3.7-0.3,5.5-0.8c1.8-0.5,3.5-1.2,5.1-2.2L33.9,62.9L33.9,62.9L33.9,62.9z
		 M7.7,61.2c-1.9-1.5-3.5-3.3-4.8-5.3c-1.3-2-2.3-4.2-2.9-6.5l2.6-0.7c0.5,2.1,1.4,4,2.5,5.7c1.1,1.8,2.6,3.3,4.2,4.7L7.7,61.2
		L7.7,61.2L7.7,61.2z M33.5,23.9c2.6,1.5,4.8,3.5,6.6,5.8c1.8,2.3,3.1,5,3.9,7.9l-2.6,0.7c-0.7-2.5-1.9-4.9-3.4-6.9
		c-1.6-2.1-3.5-3.8-5.8-5.1L33.5,23.9L33.5,23.9L33.5,23.9z M11.5,23.3c1.6-0.8,3.3-1.5,5.1-1.9c1.8-0.4,3.6-0.7,5.4-0.7
		c1.5,0,3.1,0.2,4.6,0.5c1.5,0.3,3,0.8,4.4,1.4L30,25c-1.3-0.5-2.6-1-3.9-1.2c-1.3-0.3-2.7-0.4-4.1-0.4c-1.6,0-3.2,0.2-4.8,0.6
		c-1.6,0.4-3.1,1-4.5,1.7L11.5,23.3L11.5,23.3L11.5,23.3z M5.3,20.8c1.4-1.1,3-2,4.6-2.7c1.6-0.8,3.3-1.4,5-1.8l0.7,2.6
		c-1.5,0.4-3.1,1-4.5,1.7C9.6,21.2,8.2,22,6.9,23L5.3,20.8L5.3,20.8L5.3,20.8z M10.3,12.1c1.9-0.7,3.8-1.2,5.8-1.6
		c2-0.4,4-0.5,6-0.5c0.1,0,0,0,0.4,0l0.4,0l-0.1,2.7l-0.4,0c-0.1,0,0,0-0.4,0c-1.9,0-3.7,0.2-5.5,0.5c-1.8,0.3-3.6,0.8-5.3,1.5
		L10.3,12.1L10.3,12.1L10.3,12.1z M25.6,10.2c1.2,0.1,2.5,0.3,3.7,0.6c1.2,0.3,2.4,0.6,3.6,1L32,14.3c-1.1-0.4-2.2-0.7-3.3-0.9
		c-1.1-0.2-2.2-0.4-3.4-0.6L25.6,10.2L25.6,10.2L25.6,10.2z M17.7,15.7c0.7-0.1,1.5-0.2,2.2-0.3c0.7-0.1,1.5-0.1,2.2-0.1
		c2.9,0,5.8,0.5,8.6,1.4c2.8,0.9,5.4,2.2,7.8,3.9l-1.6,2.2c-2.2-1.6-4.5-2.7-7-3.6C27.3,18.4,24.7,18,22,18c-0.7,0-1.3,0-2,0.1
		c-0.7,0.1-1.3,0.1-1.9,0.2L17.7,15.7L17.7,15.7L17.7,15.7z M0,37.5c0.7-2.6,1.9-5,3.4-7.2c1.5-2.2,3.4-4.1,5.6-5.6l1.5,2.2
		c-1.9,1.3-3.6,3-5,4.9c-1.3,1.9-2.4,4.1-3,6.3L0,37.5L0,37.5L0,37.5z"/>
	<path fill="#FEFEFE" d="M137.2,0.2c0.8,0,1.6,0.2,2.4,0.5c0.8,0.3,1.4,0.8,2,1.3h0c1.1,1.1,1.8,2.7,1.8,4.4c0,0.8-0.2,1.6-0.5,2.4
		c-0.3,0.8-0.8,1.4-1.3,2c-0.6,0.6-1.2,1-2,1.3c-0.7,0.3-1.5,0.5-2.4,0.5c-0.8,0-1.6-0.2-2.4-0.5c-0.8-0.3-1.4-0.8-2-1.3v0
		c-0.6-0.6-1-1.2-1.3-2c-0.3-0.7-0.5-1.5-0.5-2.4c0-0.8,0.2-1.6,0.5-2.4c0.3-0.8,0.8-1.4,1.3-2l0,0c0.6-0.6,1.2-1,2-1.3
		C135.6,0.4,136.4,0.2,137.2,0.2L137.2,0.2z M140.6,3c-0.4-0.4-1-0.8-1.5-1c-0.6-0.2-1.2-0.4-1.8-0.4c-0.6,0-1.3,0.1-1.8,0.4l0,0
		c-0.6,0.2-1.1,0.6-1.5,1l0,0c-0.4,0.4-0.8,1-1,1.5v0c-0.2,0.6-0.4,1.2-0.4,1.8c0,0.6,0.1,1.3,0.4,1.8v0c0.2,0.6,0.6,1.1,1,1.5l0,0
		c0.4,0.4,1,0.8,1.5,1l0,0c0.6,0.2,1.2,0.4,1.8,0.4c0.6,0,1.3-0.1,1.8-0.4c0.6-0.2,1.1-0.6,1.5-1l0,0c0.4-0.4,0.8-1,1-1.5v0
		c0.2-0.6,0.4-1.2,0.4-1.8c0-0.6-0.1-1.3-0.4-1.8v0C141.4,4,141,3.5,140.6,3L140.6,3L140.6,3z"/>
	<path fill="#FEFEFE" d="M134.6,9.4V3.3V3.2h0.1h2.6c0.3,0,0.6,0,0.9,0c0.2,0,0.5,0.1,0.6,0.1c0.2,0.1,0.3,0.1,0.4,0.2
		c0.1,0.1,0.2,0.2,0.3,0.4c0.1,0.2,0.2,0.3,0.2,0.5c0,0.2,0.1,0.4,0.1,0.5c0,0.2,0,0.5-0.1,0.7c-0.1,0.2-0.2,0.4-0.3,0.5
		c-0.1,0.2-0.3,0.3-0.5,0.4c-0.1,0.1-0.3,0.1-0.5,0.2c0,0,0.1,0.1,0.1,0.1c0.1,0.1,0.2,0.2,0.3,0.3l0,0c0.1,0.1,0.2,0.2,0.3,0.4
		c0.1,0.2,0.3,0.4,0.4,0.6l0,0l0.8,1.2l0.1,0.2h-0.2h-1.5h-0.1l0,0l-0.9-1.3c-0.2-0.2-0.3-0.4-0.4-0.6h0c-0.1-0.1-0.2-0.2-0.2-0.3
		l0,0c-0.1-0.1-0.1-0.1-0.2-0.1c-0.1,0-0.1-0.1-0.2-0.1v0c-0.1,0-0.1,0-0.2,0c-0.1,0-0.2,0-0.4,0h-0.1v2.5v0.1H136h-1.2h-0.1V9.4
		L134.6,9.4z M136.1,5.8h0.8c0.3,0,0.5,0,0.7,0c0.2,0,0.3,0,0.4-0.1h0c0.1,0,0.1-0.1,0.2-0.1v0c0,0,0.1-0.1,0.1-0.1l0,0
		c0-0.1,0.1-0.1,0.1-0.2l0,0c0-0.1,0-0.1,0-0.2c0-0.1,0-0.2,0-0.2c0-0.1-0.1-0.1-0.1-0.2c0-0.1-0.1-0.1-0.2-0.1
		c-0.1,0-0.1-0.1-0.2-0.1v0c0,0-0.1,0-0.3,0h0c-0.1,0-0.3,0-0.6,0h-0.9V5.8L136.1,5.8z"/>
</g>
</svg>
