<svg width="238" height="238" viewBox="0 0 238 238" fill="none" xmlns="http://www.w3.org/2000/svg">
<g id="logo_main" clip-path="url(#clip0_451_360)">
<g id="Group">
<path id="Vector" d="M5.80802 78.826L28.8904 86.6789C30.6774 87.2716 32.6133 86.8271 33.9536 85.4936C35.2939 84.1601 35.7406 82.2339 35.1449 80.604C30.9752 67.4169 33.8047 49.3403 39.0168 34.0789C41.5484 26.5223 44.6757 20.0028 47.3563 15.4096C48.6965 13.0389 50.0368 11.409 50.9303 10.3718C51.0792 10.2237 51.2281 10.0755 51.377 9.92733C51.526 9.92733 51.8238 10.0755 52.1216 10.2237C53.1641 10.6682 54.3554 11.409 55.8446 12.4462C58.6741 14.3724 62.0992 17.1876 65.2265 20.0028C68.3537 22.818 71.3321 25.6333 73.5659 27.7076C74.6083 28.7448 75.5018 29.6338 76.0975 30.2265C76.3953 30.5228 76.6932 30.8192 76.8421 30.9673L76.991 31.1155C78.3313 32.449 80.2672 32.8935 82.2032 32.3009H82.3521C82.501 32.3009 82.6499 32.1527 82.9477 32.1527C83.5434 32.0045 84.288 31.7082 85.3304 31.4119C87.4153 30.8192 90.2448 29.9302 93.521 29.0411C100.073 27.2631 107.668 25.6333 113.029 25.6333C118.39 25.6333 125.985 27.2631 132.538 29.0411C135.814 29.9302 138.643 30.8192 140.728 31.4119C141.771 31.7082 142.515 32.0045 143.111 32.1527C143.409 32.3009 143.558 32.3009 143.706 32.3009H143.855C145.642 32.8935 147.727 32.449 149.068 31.1155L149.216 30.9673C149.365 30.8192 149.663 30.5228 149.961 30.2265C150.557 29.6338 151.45 28.7448 152.493 27.7076C154.726 25.6333 157.705 22.818 160.832 20.0028C164.108 17.1876 167.384 14.5206 170.363 12.4462C171.852 11.409 173.192 10.6682 174.086 10.2237C174.384 10.0755 174.681 9.92733 174.83 9.92733C174.979 10.0755 175.128 10.2237 175.277 10.3718C176.32 11.5572 177.511 13.3352 179 15.8541C181.83 20.8918 184.808 28.004 187.34 36.0051C189.871 43.8581 191.807 52.4519 192.552 60.453C193.296 68.4541 192.85 75.2699 190.914 80.1595C190.169 81.9375 190.616 83.8637 191.956 85.3454C193.296 86.6789 195.232 87.2716 197.019 86.6789L220.102 78.9741C222.633 78.0851 224.122 75.4181 223.229 72.751C222.335 70.2322 219.655 68.7505 216.974 69.6395L202.231 74.5291C202.827 69.7876 202.827 64.6017 202.231 59.4158C201.338 50.6738 199.253 41.4873 196.572 33.0417C193.892 24.5961 190.616 16.8913 187.488 11.2609C185.85 8.44564 184.212 5.92676 182.574 4.00057C181.83 3.11155 180.787 2.22254 179.745 1.48169C178.702 0.740846 177.213 0 175.426 0C173.341 0 171.405 0.740846 169.767 1.48169C168.129 2.22254 166.342 3.25972 164.555 4.44507C161.13 6.81578 157.407 9.77916 153.982 12.7425C150.557 15.7059 147.429 18.6693 145.196 20.8918C144.6 21.4845 144.153 21.929 143.706 22.3735C143.558 22.3735 143.409 22.2254 143.111 22.2254C140.877 21.4845 137.899 20.5955 134.474 19.7065C128.815 17.7803 120.028 15.8541 113.327 15.8541C106.626 15.8541 97.8396 17.7803 91.1383 19.7065C87.7131 20.5955 84.7348 21.4845 82.501 22.2254C82.3521 22.2254 82.0542 22.3735 81.9053 22.3735C81.4586 21.929 81.0118 21.4845 80.4161 20.8918C78.1824 18.6693 75.0551 15.7059 71.7789 12.7425C68.5027 9.77916 64.7797 6.81578 61.3546 4.44507C59.7165 3.25972 57.9295 2.22254 56.2914 1.48169C54.8022 0.740846 52.8662 0 50.7814 0C48.9944 0 47.6541 0.740845 46.6117 1.33352C45.5692 1.9262 44.6757 2.81521 43.7822 3.70423C42.1441 5.48226 40.506 7.70479 38.8679 10.3718C35.7406 15.7059 32.3155 22.9662 29.635 30.9673C25.1674 44.1544 21.8912 60.453 23.8271 74.8254L9.08422 69.6395C6.55261 68.7505 3.72316 70.084 2.82965 72.751C1.93614 75.2699 3.27641 78.0851 5.80802 78.826Z" fill="#041133"/>
<path id="Vector_2" d="M229.334 214.401C225.165 212.326 220.399 214.401 216.825 217.364L216.676 217.512C216.676 217.512 216.527 217.512 216.527 217.66C214.145 219.587 211.464 221.068 208.635 221.957C205.805 222.846 202.976 223.291 200.146 223.291C196.274 223.291 192.7 222.55 189.424 220.92C186.297 219.29 183.467 217.068 181.085 214.253C178.851 211.437 177.064 208.178 175.724 204.622C174.532 200.917 173.788 197.213 173.788 193.212C173.788 189.656 174.234 186.249 175.277 182.692C176.319 179.136 177.957 176.025 180.191 173.21C182.425 170.394 185.106 168.024 188.233 166.394C191.509 164.616 195.381 163.727 199.7 163.727C202.38 163.727 205.061 164.171 207.89 164.912C210.719 165.653 213.251 166.987 215.783 169.061C219.506 171.876 224.271 173.802 227.994 170.839L228.59 170.246C231.27 167.876 232.313 164.023 230.079 161.06C227.994 158.245 225.462 156.17 221.591 153.8C219.059 152.318 216.378 151.132 213.549 150.243C220.995 145.798 225.76 138.983 225.76 131.278C225.76 117.794 211.315 106.978 193.445 106.978C187.786 106.978 182.425 108.015 177.809 109.941C178.106 109.645 178.404 109.349 178.702 109.052L178.851 108.904C179.298 108.46 179.596 108.163 179.893 107.867C185.403 101.94 188.531 94.3837 188.68 86.3826C188.68 85.9381 188.68 85.4936 188.68 84.9009V84.7527V84.16V84.0119C188.68 83.5674 188.68 82.8265 188.531 81.9375C187.637 74.8254 181.68 69.3431 174.383 69.195C173.639 69.195 172.745 69.195 172.299 69.3431H172.15L170.363 69.4913C168.576 60.8975 161.576 54.3781 153.386 54.3781C144.153 54.3781 136.558 62.3792 135.962 72.6028H135.814C134.324 72.751 132.388 72.8992 130.75 73.1955C128.814 73.64 125.985 74.529 123.602 76.8998C123.155 77.3443 122.709 77.7888 122.411 78.2333C120.624 80.4558 119.879 82.6783 119.581 84.6045H106.328C106.03 82.6783 105.285 80.4558 103.498 78.2333C103.2 77.7888 102.754 77.3443 102.307 76.8998C99.9242 74.529 97.0948 73.64 95.1588 73.1955C93.6696 72.8992 91.8826 72.751 90.5424 72.6028C90.0956 62.9719 82.5008 54.8226 73.2678 54.8226C65.0773 54.8226 58.0782 61.342 56.2911 69.9358L54.0574 69.7876H53.9084C53.4617 69.7876 52.7171 69.6395 51.8236 69.6395C44.5266 69.7876 38.5699 75.1217 37.6763 82.382C37.5274 83.1229 37.5274 84.0119 37.5274 84.4564V84.6045V85.1972V85.3454C37.5274 85.9381 37.5274 86.3826 37.5274 86.8271C37.6763 94.8282 40.8036 102.533 46.3136 108.312C46.6114 108.608 46.9093 108.904 47.356 109.349L47.505 109.497C47.8028 109.793 48.1006 110.09 48.3985 110.386C43.782 108.46 38.272 107.274 32.6131 107.274C14.7429 107.274 0.297837 118.239 0.297837 131.574C0.297837 138.686 4.31863 145.058 10.7221 149.503C9.97753 149.354 9.38186 149.206 8.63726 149.206C3.87188 149.206 0 153.059 0 157.8V229.218C0 233.959 3.87188 237.811 8.63726 237.811C13.4027 237.811 17.2745 233.959 17.2745 229.218V200.473H25.9118L51.3768 234.7C52.866 236.626 55.0998 237.811 57.6314 237.811C64.0349 237.811 67.6089 230.699 63.886 225.513L39.6123 192.027L62.9925 161.504C66.8643 156.467 63.1414 149.206 56.7379 149.206C55.8444 149.206 54.9509 149.354 54.0574 149.651C60.7587 145.206 64.9284 138.686 64.9284 131.426C64.9284 125.203 61.8011 119.572 56.8868 115.276C61.2054 116.757 65.9708 117.054 70.5873 115.868C71.0341 115.72 71.4808 115.572 71.9276 115.572H72.0765L93.6696 109.201L93.9675 109.052C95.1588 108.756 96.7969 108.312 98.1372 107.719C99.7753 106.978 102.009 105.941 103.796 103.718C104.094 103.274 104.392 102.978 104.69 102.533C106.328 100.162 106.774 97.7916 106.923 96.0136C106.923 95.5691 106.923 95.2727 107.072 94.8282H119.73C119.73 95.2727 119.73 95.7172 119.879 96.0136C120.028 97.7916 120.624 100.162 122.113 102.533C122.411 102.978 122.709 103.422 123.007 103.718C124.794 105.941 127.027 106.978 128.665 107.719C130.006 108.312 131.495 108.756 132.835 109.052L133.133 109.201L154.726 115.572H154.875C155.322 115.72 155.769 115.868 156.215 115.868C160.683 117.054 165.448 116.757 169.767 115.276C164.853 119.572 161.725 125.203 161.725 131.278C161.725 141.057 169.32 149.354 180.191 153.355C175.575 155.726 171.554 158.837 168.278 162.69C164.555 166.987 161.576 171.728 159.492 176.914C157.556 182.1 156.513 187.286 156.513 192.768C156.513 198.398 157.556 203.881 159.64 209.363C161.874 214.845 164.853 219.735 168.576 224.032C172.447 228.329 177.064 231.885 182.276 234.552C187.637 237.071 193.445 238.404 199.848 238.404C204.763 238.404 209.677 237.663 214.591 236.033C219.506 234.404 223.973 232.181 227.994 229.069C229.93 227.588 231.419 225.81 232.759 224.032C234.844 220.624 233.057 216.179 229.334 214.401ZM73.4168 63.4164C75.5016 63.4164 77.2886 67.1206 77.5865 71.862L69.247 71.1212C69.6938 66.6761 71.3319 63.4164 73.4168 63.4164ZM50.6322 152.318L26.3586 184.915H17.5724V157.8C17.5724 155.578 16.6789 153.503 15.1897 151.873C20.2529 154.392 26.3586 155.874 32.762 155.874C39.7612 155.874 46.3136 154.096 51.6747 151.281C51.2279 151.577 50.9301 151.873 50.6322 152.318ZM49.5898 140.909C48.5474 141.65 47.356 142.39 46.0158 143.131V132.315C46.0158 129.796 43.782 127.722 40.9526 127.87C38.1231 128.018 35.8893 130.241 35.8893 132.759V145.947C34.8469 146.095 33.8045 146.095 32.762 146.095C32.0174 146.095 31.2729 146.095 30.5283 146.095V132.315C30.5283 129.796 28.2945 127.722 25.465 127.87C22.6356 128.018 20.4018 130.241 20.4018 132.759V143.576C18.7637 142.835 17.2745 141.946 15.9343 140.909C11.9135 137.945 10.4243 134.538 10.4243 131.426C10.4243 128.463 12.0624 124.907 15.9343 121.943C19.9551 118.98 25.9118 116.757 32.911 116.757C39.9101 116.757 45.8669 118.832 49.8877 121.943C53.9084 124.907 55.3976 128.314 55.3976 131.426C55.2487 134.538 53.6106 137.945 49.5898 140.909ZM96.3502 97.1989C96.2013 97.3471 96.2013 97.4953 96.0523 97.6434C95.1588 98.6806 93.6697 99.1251 90.8402 100.014L69.247 106.385C68.6514 106.534 68.5024 106.682 68.2046 106.682C67.0133 106.978 65.8219 107.126 64.7795 107.126C61.3544 107.126 57.9292 105.793 55.3976 103.274C55.2487 103.126 54.9509 102.829 54.653 102.533C54.2063 102.088 53.9084 101.792 53.7595 101.644C49.8877 97.4953 47.8028 92.1612 47.6539 86.5307C47.6539 86.2344 47.6539 85.9381 47.6539 85.1972V84.6045C47.6539 84.0119 47.6539 83.7155 47.6539 83.4192C47.9517 81.1967 49.8877 79.4186 52.1214 79.4186C52.4193 79.4186 52.7171 79.4186 53.3128 79.5668L56.7379 79.8631L71.0341 81.1967L75.7994 81.6412L89.2021 82.8265C92.7761 83.1229 94.7121 83.271 95.7545 84.4564C95.9034 84.6045 96.0523 84.7527 96.2013 84.9009C97.2437 86.0862 97.2437 88.0124 97.2437 91.5685C97.0948 94.5319 97.0948 96.0136 96.3502 97.1989ZM153.684 63.4164C155.62 63.4164 157.258 66.6761 157.705 71.1212L149.514 71.862C149.812 67.1206 151.599 63.4164 153.684 63.4164ZM158.151 106.534C157.853 106.534 157.705 106.385 157.109 106.237L135.516 99.866C132.984 99.1251 131.495 98.6806 130.601 97.9398C130.452 97.7916 130.304 97.6434 130.304 97.4953C130.155 97.3471 130.155 97.1989 130.006 97.0507C129.261 95.8654 129.261 94.3837 129.261 91.4203C129.261 87.7161 129.261 85.9381 130.304 84.7527C130.452 84.6045 130.601 84.4564 130.75 84.3082C131.942 83.1229 133.729 82.9747 137.303 82.6783L170.512 79.5668L173.341 79.2705C173.937 79.2705 174.234 79.1223 174.532 79.1223C176.915 79.1223 178.851 80.9003 179 83.1229V83.271C179 83.4192 179 83.7155 179 84.16V84.7527C179 85.0491 179 85.3454 179 85.4936C179 85.6417 179 85.7899 179 85.9381C179 87.2716 178.851 88.7533 178.553 90.0868C177.66 94.2355 175.724 97.9398 172.894 101.051C172.745 101.348 172.447 101.496 172.001 101.94C171.554 102.385 171.405 102.533 171.256 102.681C167.682 106.385 162.768 107.719 158.151 106.534ZM176.617 140.909C172.596 137.945 171.107 134.538 171.107 131.426C171.107 128.463 172.745 124.907 176.617 121.943C180.638 118.98 186.595 116.757 193.594 116.757C200.593 116.757 206.55 118.832 210.571 121.943C214.591 124.907 216.081 128.314 216.081 131.426C216.081 134.389 214.442 137.945 210.571 140.909C209.528 141.65 208.337 142.39 206.997 143.131V132.315C206.997 129.796 204.763 127.722 201.933 127.87C199.104 128.018 196.87 130.241 196.87 132.759V145.947C195.828 146.095 194.785 146.095 193.743 146.095C192.998 146.095 192.254 146.095 191.509 146.095V132.315C191.509 129.796 189.275 127.722 186.446 127.87C183.616 128.018 181.383 130.241 181.383 132.759V143.576C179.447 142.835 177.957 141.946 176.617 140.909Z" fill="#041133"/>
<path id="Vector_3" d="M196.126 93.939C193.445 93.939 191.36 96.1615 191.36 98.8285C191.36 101.496 193.594 103.718 196.275 103.718H219.357C222.038 103.718 224.122 101.496 224.122 98.8285C224.122 96.1615 221.889 93.939 219.208 93.939H196.126Z" fill="#041133"/>
<path id="Vector_4" d="M104.54 130.092C103.498 130.092 100.966 129.648 97.69 124.758C96.2008 122.536 93.2224 121.943 90.8397 123.425C88.6059 124.907 88.0103 127.87 89.4994 130.241C93.967 136.908 99.1791 140.02 104.689 139.872C107.816 139.723 110.497 138.686 112.582 137.205C115.262 138.686 118.539 139.872 121.964 139.872C124.793 139.872 127.771 139.279 130.452 137.501C133.133 135.723 135.366 132.908 136.855 129.352C137.898 126.833 136.707 124.018 134.175 122.98C131.643 121.943 128.814 123.129 127.771 125.647C126.878 127.722 125.836 128.907 125.091 129.352C124.197 129.944 123.304 130.092 122.113 130.092C120.326 130.092 118.687 129.352 117.347 128.611V121.943C120.772 120.61 123.006 117.794 123.006 114.535C123.006 109.941 118.241 106.237 112.284 106.237C106.327 106.237 101.562 109.941 101.562 114.535C101.562 117.794 103.945 120.461 107.37 121.943V128.907C106.774 129.648 105.583 130.092 104.54 130.092Z" fill="#041133"/>
<path id="Vector_5" d="M7.59497 93.939C4.91444 93.939 2.68066 96.1615 2.68066 98.8285C2.68066 101.496 4.91444 103.718 7.59497 103.718H30.6773C33.3579 103.718 35.5916 101.496 35.5916 98.8285C35.5916 96.1615 33.5068 93.939 30.8262 93.939H7.59497Z" fill="#041133"/>
<path id="Vector_6" d="M139.388 149.206C135.814 149.206 132.537 150.984 130.601 153.8L90.2445 213.512V157.652C90.2445 152.911 86.3726 149.058 81.6072 149.058C76.8418 149.058 72.97 152.911 72.97 157.652V226.847C72.97 232.774 77.8843 237.663 83.841 237.663C87.4151 237.663 90.8402 235.885 92.925 232.922L132.686 174.099V229.218C132.686 233.959 136.558 237.811 141.324 237.811C146.089 237.811 149.961 233.959 149.961 229.218V159.726C149.961 153.8 145.195 149.206 139.388 149.206Z" fill="#041133"/>
</g>
</g>
<defs>
<clipPath id="clip0_451_360">
<rect width="238" height="238" fill="white"/>
</clipPath>
</defs>
</svg>
