<svg width="90" height="112" viewBox="0 0 90 112" fill="none" xmlns="http://www.w3.org/2000/svg">
<path d="M68.1673 22.88C66.2717 26.912 65.3239 28.9279 65.8375 30.3301C66.1032 31.0557 66.5985 31.6732 67.2498 32.091C68.5084 32.8981 70.6872 32.417 75.045 31.4548L77.46 30.9216C78.5857 30.6731 79.1486 30.5488 79.4614 30.376C80.7592 29.659 81.1344 27.9746 80.2555 26.811C80.0436 26.5305 79.5829 26.1962 78.6614 25.5276C78.1349 25.1455 77.8716 24.9544 77.6258 24.7493C76.6599 23.9433 75.866 22.9535 75.2894 21.8364C75.1427 21.5522 75.0136 21.254 74.7554 20.6577C74.3035 19.6141 74.0775 19.0923 73.8497 18.8245C72.9044 17.7139 71.1752 17.7101 70.1898 18.8166C69.9523 19.0833 69.7075 19.6041 69.2178 20.6456L68.1673 22.88Z" fill="#041133"/>
<path d="M57.5214 29.1179C59.4205 28.2551 61.3763 28.5424 61.8896 29.7595C62.403 30.9766 61.2795 32.6627 59.3804 33.5255C57.4812 34.3882 55.5254 34.101 55.0121 32.8839C54.4987 31.6668 55.6222 29.9807 57.5214 29.1179Z" fill="#041133"/>
<path d="M66.6131 40.4531C67.8728 38.7931 68.0205 36.8261 66.9428 36.0596C65.8652 35.2931 63.9704 36.0175 62.7107 37.6775C61.4509 39.3376 61.3033 41.3046 62.381 42.0711C63.4586 42.8375 65.3534 42.1131 66.6131 40.4531Z" fill="#041133"/>
<path d="M61.0166 20.0648C62.5331 19.5683 64.0635 20.0263 64.4347 21.0877C64.806 22.1491 63.8776 23.4121 62.3611 23.9086C60.8446 24.4052 59.3142 23.9472 58.943 22.8858C58.5717 21.8243 59.5001 20.5613 61.0166 20.0648Z" fill="#041133"/>
<path d="M76.2311 39.0335C77.0489 37.6658 76.9364 36.0756 75.9798 35.4816C75.0232 34.8876 73.5849 35.5148 72.7671 36.8825C71.9494 38.2501 72.0619 39.8404 73.0185 40.4344C73.975 41.0284 75.4134 40.4012 76.2311 39.0335Z" fill="#041133"/>
<path d="M41.6265 87.7573C42.7759 92.0653 43.3506 94.2192 44.6469 94.9643C45.3178 95.3499 46.0945 95.5051 46.8617 95.4071C48.3442 95.2176 49.7001 93.4495 52.4119 89.9134L53.9147 87.9538C54.6152 87.0404 54.9654 86.5837 55.0932 86.2503C55.6234 84.8673 54.8246 83.3352 53.4026 83.0076C53.0598 82.9287 52.4921 82.9683 51.3567 83.0475C50.7078 83.0928 50.3834 83.1154 50.0633 83.116C48.8052 83.1185 47.5602 82.8696 46.3994 82.3836C46.1041 82.2599 45.8132 82.1143 45.2314 81.823C44.2132 81.3132 43.7041 81.0583 43.3574 80.9994C41.9188 80.7551 40.5942 81.8627 40.5539 83.3436C40.5442 83.7006 40.6927 84.257 40.9896 85.3699L41.6265 87.7573Z" fill="#041133"/>
<path d="M37.5072 99.3756C38.4032 97.4946 40.0837 96.4589 41.2607 97.0622C42.4376 97.6655 42.6654 99.6794 41.7694 101.56C40.8734 103.441 39.1929 104.477 38.0159 103.874C36.839 103.271 36.6112 101.257 37.5072 99.3756Z" fill="#041133"/>
<path d="M51.7645 102.226C51.6578 100.144 50.5028 98.5418 49.1849 98.6464C47.8669 98.7509 46.8851 100.523 46.9918 102.604C47.0986 104.686 48.2535 106.289 49.5715 106.184C50.8894 106.079 51.8713 104.307 51.7645 102.226Z" fill="#041133"/>
<path d="M34.3447 90.1914C35.1842 88.8369 36.6495 88.2052 37.6174 88.7804C38.5854 89.3556 38.6896 90.92 37.8501 92.2745C37.0106 93.629 35.5454 94.2607 34.5774 93.6854C33.6094 93.1102 33.5053 91.5459 34.3447 90.1914Z" fill="#041133"/>
<path d="M58.2034 94.9612C57.9471 93.3876 56.8361 92.2409 55.7219 92.3998C54.6077 92.5588 53.9122 93.9633 54.1684 95.5368C54.4247 97.1103 55.5357 98.2571 56.6499 98.0981C57.7641 97.9392 58.4597 96.5347 58.2034 94.9612Z" fill="#041133"/>
<path d="M24.8495 43.816C25.261 48.2536 25.4667 50.4724 26.6203 51.4229C27.2174 51.9148 27.9573 52.1973 28.7305 52.2286C30.2244 52.2891 31.858 50.7726 35.1252 47.7397L36.9358 46.059C37.7798 45.2755 38.2018 44.8838 38.3837 44.5765C39.1384 43.3018 38.6074 41.6586 37.2599 41.0986C36.935 40.9637 36.3685 40.908 35.2353 40.7967C34.5878 40.7331 34.264 40.7014 33.9482 40.6486C32.707 40.4412 31.5209 39.9883 30.4576 39.3157C30.187 39.1446 29.9245 38.9525 29.3995 38.5684C28.4808 37.8962 28.0214 37.5601 27.6893 37.4442C26.3114 36.9634 24.8194 37.8342 24.5315 39.2871C24.462 39.6373 24.5152 40.2105 24.6215 41.3568L24.8495 43.816Z" fill="#041133"/>
<path d="M18.8393 54.58C20.0383 52.8756 21.8693 52.135 22.929 52.9258C23.9886 53.7167 23.8757 55.7396 22.6767 57.4441C21.4777 59.1485 19.6467 59.8891 18.5871 59.0983C17.5274 58.3074 17.6404 56.2845 18.8393 54.58Z" fill="#041133"/>
<path d="M32.4229 59.7668C32.6666 57.6976 31.7961 55.9254 30.4788 55.8087C29.1614 55.6919 27.896 57.2747 27.6524 59.344C27.4088 61.4133 28.2792 63.1854 29.5966 63.3022C30.9139 63.4189 32.1793 61.8361 32.4229 59.7668Z" fill="#041133"/>
<path d="M17.2598 45.0007C18.3148 43.8058 19.8657 43.4275 20.724 44.1559C21.5823 44.8842 21.4228 46.4434 20.3678 47.6384C19.3128 48.8334 17.7618 49.2116 16.9036 48.4833C16.0453 47.7549 16.2048 46.1957 17.2598 45.0007Z" fill="#041133"/>
<path d="M39.991 53.6805C40.0021 52.0869 39.0985 50.7714 37.973 50.7423C36.8474 50.7131 35.9261 51.9814 35.9151 53.575C35.904 55.1686 36.8075 56.4841 37.9331 56.5132C39.0587 56.5424 39.98 55.2741 39.991 53.6805Z" fill="#041133"/>
</svg>
