<svg width="298" height="71" viewBox="0 0 298 71" fill="none" xmlns="http://www.w3.org/2000/svg">
<path d="M30.4476 20.4422C22.7985 23.0108 18.0646 27.6343 15 33.4076C16.4949 25.1146 21.478 20.0997 29.451 17.8736C29.6503 17.8247 29.8247 17.7757 30.024 17.7513C32.964 17.2376 33.861 18.0938 32.2415 19.4637C31.7183 19.904 31.0954 20.222 30.4476 20.4422Z" fill="url(#paint0_linear_314_716)"/>
<path d="M17.8908 46.105C15.3744 42.5335 14.8262 38.6683 17.0935 34.3628C18.5885 31.7208 20.4571 29.4947 22.7493 27.7334C24.4187 26.4368 26.3123 25.4828 28.3304 24.7734C34.9828 22.4249 37.7485 20.0031 35.5808 17.4834C38.0973 17.6546 40.0407 18.3885 39.8414 21.055C38.7451 25.4339 34.8832 28.1982 29.5014 30.1307C27.9567 30.6934 26.4618 31.3784 25.0665 32.2835C19.7346 35.6838 17.1932 40.2339 17.8908 46.105Z" fill="url(#paint1_linear_314_716)"/>
<path d="M35.5294 38.1057C27.8803 41.4815 23.0218 44.0257 24.2427 51.5603C18.3626 47.1814 20.3808 38.3503 27.6312 34.583C39.8398 29.0299 44.6734 23.7704 41.9077 19.4404C47.4888 24.0884 47.5137 28.9076 41.9825 33.9225C40.0889 35.6838 37.8964 37.0782 35.5294 38.1057Z" fill="url(#paint2_linear_314_716)"/>
<path d="M42.6305 44.0256C33.935 50.5327 29.3505 49.3585 30.8455 53.5172C21.9008 51.5602 27.6812 45.5423 36.3019 41.1634C38.5942 39.9892 40.8116 38.815 42.8547 37.2738C49.1085 32.6014 48.7348 26.6324 47.1402 23.8926C53.4189 30.0328 50.2297 38.0811 42.6305 44.0256Z" fill="url(#paint3_linear_314_716)"/>
<path d="M36.4275 50.4107C44.0765 47.8421 48.8105 43.2186 51.8751 37.4453C50.3801 45.7138 45.397 50.7532 37.4241 52.9793C37.2248 53.0282 37.0504 53.0771 36.851 53.1016C33.911 53.6153 33.014 52.7591 34.6336 51.3892C35.1568 50.9733 35.7797 50.6308 36.4275 50.4107Z" fill="url(#paint4_linear_314_716)"/>
<path d="M70.6562 26.705C72.5056 27.616 72.7495 29.3191 72.5666 30.329C72.2211 32.448 70.7579 33.7352 67.7501 33.7352H62.2224V20.5264H67.6688C70.2498 20.5264 72.1398 22.0314 72.0788 24.5464C72.0382 25.1604 71.6521 26.2099 70.6562 26.705ZM67.6688 25.695C69.3353 25.695 69.3963 23.3384 67.6688 23.3384H65.6772V25.695H67.6688ZM67.6688 30.8043C69.7417 30.8043 69.7011 28.0912 67.6688 28.0912H65.6772V30.8043H67.6688Z" fill="black" fill-opacity="0.9"/>
<path d="M77.5651 29.3191C77.5651 31.438 81.4264 31.438 81.4467 29.3191V20.5264H84.9219V29.3191C84.9015 35.5175 74.0899 35.5175 74.1103 29.3191V20.5264H77.5651V29.3191Z" fill="black" fill-opacity="0.9"/>
<path d="M88.4604 29.5565C89.822 31.1606 92.8094 31.2398 92.911 29.8139C92.9517 29.0614 91.712 28.6455 90.5943 28.4871C88.4198 28.1504 86.4282 26.8038 86.4282 24.2888C86.4282 21.6946 88.8465 20.3281 91.3259 20.3281C92.972 20.3281 94.5572 20.7836 95.9594 22.4273L93.7239 24.1106C92.3014 22.6451 89.883 22.6847 89.822 24.2294C89.8627 24.8631 90.5739 25.2394 91.6307 25.4572C94.0491 25.8929 96.4471 26.7048 96.3049 29.9526C96.183 32.5072 93.4394 33.9132 90.9397 33.9132C89.3139 33.9132 87.5865 33.1013 86.3265 31.517L88.4604 29.5565Z" fill="black" fill-opacity="0.9"/>
<path d="M101.161 33.7352H97.7269V20.5264H101.161V33.7352Z" fill="black" fill-opacity="0.9"/>
<path d="M103.315 20.5264H106.567L109.839 26.1505L110.997 28.8042L111.099 28.7844C111.078 28.7844 110.733 26.507 110.712 26.507V20.5264H114.127V33.7352H110.651L107.583 28.5269L106.404 25.8733L106.302 25.8931L106.75 28.4477V33.7352H103.315V20.5264Z" fill="black" fill-opacity="0.9"/>
<path d="M119.715 25.7148H125.203V28.6061H119.715V30.5865H125.69V33.7352H116.261V20.5264H125.69V23.6553H119.715V25.7148Z" fill="black" fill-opacity="0.9"/>
<path d="M129.022 29.5565C130.384 31.1606 133.371 31.2398 133.473 29.8139C133.513 29.0614 132.274 28.6455 131.156 28.4871C128.982 28.1504 126.99 26.8038 126.99 24.2888C126.99 21.6946 129.408 20.3281 131.888 20.3281C133.534 20.3281 135.119 20.7836 136.521 22.4273L134.286 24.1106C132.863 22.6451 130.445 22.6847 130.384 24.2294C130.424 24.8631 131.136 25.2394 132.192 25.4572C134.611 25.8929 137.009 26.7048 136.867 29.9526C136.745 32.5072 134.001 33.9132 131.501 33.9132C129.876 33.9132 128.148 33.1013 126.888 31.517L129.022 29.5565Z" fill="black" fill-opacity="0.9"/>
<path d="M139.834 29.5565C141.195 31.1606 144.183 31.2398 144.284 29.8139C144.325 29.0614 143.085 28.6455 141.968 28.4871C139.793 28.1504 137.802 26.8038 137.802 24.2888C137.802 21.6946 140.22 20.3281 142.699 20.3281C144.345 20.3281 145.931 20.7836 147.333 22.4273L145.097 24.1106C143.675 22.6451 141.256 22.6847 141.195 24.2294C141.236 24.8631 141.947 25.2394 143.004 25.4572C145.423 25.8929 147.821 26.7048 147.678 29.9526C147.556 32.5072 144.813 33.9132 142.313 33.9132C140.687 33.9132 138.96 33.1013 137.7 31.517L139.834 29.5565Z" fill="black" fill-opacity="0.9"/>
<path d="M154.893 29.9127H148.918V26.7441H154.893V29.9127Z" fill="black" fill-opacity="0.9"/>
<path d="M160.238 29.3191C160.238 31.438 164.099 31.438 164.12 29.3191V20.5264H167.595V29.3191C167.574 35.5175 156.763 35.5175 156.783 29.3191V20.5264H160.258V29.3191H160.238Z" fill="black" fill-opacity="0.9"/>
<path d="M169.626 20.5264H175.053C178.365 20.5264 180.011 22.8632 180.011 25.2C180.011 27.5566 178.345 29.8736 175.073 29.8736H173.061V33.7352H169.626V20.5264ZM175.032 26.903C177.105 26.9229 177.105 23.6157 175.032 23.6355H173.041V26.903H175.032Z" fill="black" fill-opacity="0.9"/>
<path d="M62.2224 47.5636V39.2695H65.1754C66.5071 39.2695 67.6072 39.6645 68.4468 40.4544C69.2864 41.2443 69.7207 42.2317 69.7207 43.4166C69.7207 44.6014 69.2864 45.5888 68.4468 46.3787C67.6072 47.1686 66.5071 47.5636 65.2043 47.5636H62.2224ZM63.1778 46.7173H65.1754C66.2466 46.7173 67.0861 46.4069 67.752 45.7863C68.3889 45.1657 68.7074 44.3757 68.7074 43.4448C68.7074 42.5138 68.3889 41.7239 67.723 41.1033C67.0861 40.4826 66.2176 40.1723 65.1754 40.1723H63.1778V46.7173Z" fill="black" fill-opacity="0.9"/>
<path d="M71.6013 40.088V39.1006H72.6725V40.1162H71.6013V40.088ZM71.6592 47.5639V41.4421H72.5856V47.5639H71.6592Z" fill="black" fill-opacity="0.9"/>
<path d="M77.5664 49.4832C76.4952 49.4832 75.5398 49.2011 74.7003 48.6369L75.1345 47.9316C75.8872 48.4676 76.6689 48.7215 77.5664 48.7215C78.2612 48.7215 78.8402 48.524 79.2455 48.1573C79.6508 47.7905 79.8535 47.2545 79.8535 46.5492V45.8158C79.1876 46.6903 78.377 47.1135 77.3927 47.1135C76.611 47.1135 75.9162 46.8596 75.3082 46.3236C74.7292 45.7875 74.4397 45.0823 74.4397 44.2359C74.4397 43.3614 74.7292 42.6843 75.3372 42.1483C75.9162 41.6123 76.611 41.3584 77.3927 41.3584C78.4059 41.3584 79.2166 41.7816 79.8535 42.5997V41.4995H80.7799V46.5775C80.7799 47.5084 80.5193 48.2137 79.9693 48.7497C79.4192 49.2293 78.6086 49.4832 77.5664 49.4832ZM77.5664 46.2953C78.1743 46.2953 78.7244 46.0979 79.1876 45.7029C79.6508 45.308 79.8824 44.8002 79.8824 44.2077C79.8824 43.6153 79.6508 43.1075 79.1876 42.7125C78.7244 42.3176 78.1743 42.1201 77.5664 42.1201C76.9584 42.1201 76.4373 42.3176 76.003 42.6843C75.5977 43.0793 75.3661 43.5589 75.3661 44.2077C75.3661 44.8002 75.5688 45.308 76.003 45.7029C76.4373 46.0979 76.9584 46.2953 77.5664 46.2953Z" fill="black" fill-opacity="0.9"/>
<path d="M82.8911 40.088V39.1006H83.9623V40.1162H82.8911V40.088ZM82.949 47.5639V41.4421H83.8754V47.5639H82.949Z" fill="black" fill-opacity="0.9"/>
<path d="M88.1637 47.6767C87.6137 47.6767 87.1794 47.5356 86.8609 47.2535C86.5425 46.9714 86.3688 46.5482 86.3688 45.9558V42.2601H85.5002V41.442H86.3688V39.5801H87.2952V41.442H89.2928V42.2601H87.2952V45.843C87.2952 46.52 87.6426 46.8586 88.3664 46.8586C88.6848 46.8586 88.9743 46.7739 89.2928 46.6329V47.4228C88.9743 47.592 88.569 47.6767 88.1637 47.6767Z" fill="black" fill-opacity="0.9"/>
<path d="M92.8528 47.7048C92.2159 47.7048 91.6658 47.5356 91.2026 47.197C90.7394 46.8585 90.5078 46.3789 90.5078 45.7865C90.5078 45.1376 90.7394 44.658 91.2316 44.2913C91.7237 43.9527 92.3607 43.7553 93.2002 43.7553C93.8371 43.7553 94.503 43.8399 95.111 44.0092V43.8117C95.111 43.2757 94.9373 42.8525 94.6188 42.5704C94.3003 42.2883 93.8371 42.1472 93.2292 42.1472C92.6212 42.1472 91.9843 42.2883 91.3184 42.5986L91.0289 41.8651C91.8106 41.5266 92.5633 41.3291 93.316 41.3291C94.2135 41.3291 94.8794 41.5548 95.3426 42.0062C95.7768 42.4293 96.0084 43.0218 96.0084 43.8117V47.5638H95.111V46.661C94.5609 47.3663 93.8082 47.7048 92.8528 47.7048ZM93.0265 46.9713C93.6055 46.9713 94.0977 46.8303 94.503 46.52C94.9083 46.2096 95.111 45.8147 95.111 45.3351V44.7709C94.503 44.6016 93.895 44.517 93.2871 44.517C92.7081 44.517 92.2738 44.6298 91.9264 44.8555C91.6079 45.0812 91.4342 45.3915 91.4342 45.7865C91.4342 46.1532 91.579 46.4635 91.8974 46.6892C92.2159 46.8585 92.5923 46.9713 93.0265 46.9713Z" fill="black" fill-opacity="0.9"/>
<path d="M98.1215 47.5641V38.9033H99.0479V47.5641H98.1215Z" fill="black" fill-opacity="0.9"/>
<path d="M106.75 47.7048C106.113 47.7048 105.563 47.5356 105.1 47.197C104.636 46.8585 104.405 46.3789 104.405 45.7865C104.405 45.1376 104.636 44.658 105.129 44.2913C105.621 43.9527 106.258 43.7553 107.097 43.7553C107.734 43.7553 108.4 43.8399 109.008 44.0092V43.8117C109.008 43.2757 108.834 42.8525 108.516 42.5704C108.197 42.2883 107.734 42.1472 107.126 42.1472C106.518 42.1472 105.881 42.2883 105.215 42.5986L104.926 41.8651C105.708 41.5266 106.46 41.3291 107.213 41.3291C108.11 41.3291 108.776 41.5548 109.24 42.0062C109.674 42.4293 109.905 43.0218 109.905 43.8117V47.5638H109.008V46.661C108.458 47.3663 107.705 47.7048 106.75 47.7048ZM106.923 46.9713C107.503 46.9713 107.995 46.8303 108.4 46.52C108.805 46.2096 109.008 45.8147 109.008 45.3351V44.7709C108.4 44.6016 107.792 44.517 107.184 44.517C106.605 44.517 106.171 44.6298 105.823 44.8555C105.505 45.0812 105.331 45.3915 105.331 45.7865C105.331 46.1532 105.476 46.4635 105.794 46.6892C106.113 46.8585 106.489 46.9713 106.923 46.9713Z" fill="black" fill-opacity="0.9"/>
<path d="M114.711 49.4832C113.64 49.4832 112.685 49.2011 111.845 48.6369L112.279 47.9316C113.032 48.4676 113.814 48.7215 114.711 48.7215C115.406 48.7215 115.985 48.524 116.39 48.1573C116.796 47.7905 116.998 47.2545 116.998 46.5492V45.8158C116.333 46.6903 115.522 47.1135 114.538 47.1135C113.756 47.1135 113.061 46.8596 112.453 46.3236C111.874 45.7875 111.585 45.0823 111.585 44.2359C111.585 43.3614 111.874 42.6843 112.482 42.1483C113.061 41.6123 113.756 41.3584 114.538 41.3584C115.551 41.3584 116.361 41.7816 116.998 42.5997V41.4995H117.925V46.5775C117.925 47.5084 117.664 48.2137 117.114 48.7497C116.564 49.2293 115.754 49.4832 114.711 49.4832ZM114.711 46.2953C115.319 46.2953 115.869 46.0979 116.333 45.7029C116.796 45.308 117.027 44.8002 117.027 44.2077C117.027 43.6153 116.796 43.1075 116.333 42.7125C115.869 42.3176 115.319 42.1201 114.711 42.1201C114.103 42.1201 113.582 42.3176 113.148 42.6843C112.743 43.0793 112.511 43.5589 112.511 44.2077C112.511 44.8002 112.714 45.308 113.148 45.7029C113.582 46.0979 114.103 46.2953 114.711 46.2953Z" fill="black" fill-opacity="0.9"/>
<path d="M120.558 44.8836C120.615 45.5042 120.876 46.012 121.281 46.3788C121.687 46.7455 122.208 46.943 122.758 46.943C123.511 46.943 124.176 46.6609 124.755 46.0685L125.334 46.5763C124.64 47.338 123.771 47.7329 122.729 47.7329C121.831 47.7329 121.108 47.4226 120.5 46.8302C119.892 46.2377 119.602 45.476 119.602 44.5168C119.602 43.6141 119.892 42.8524 120.471 42.2317C121.05 41.6111 121.773 41.3008 122.613 41.3008C123.511 41.3008 124.234 41.6111 124.755 42.2317C125.277 42.8524 125.537 43.6141 125.537 44.5451C125.537 44.6579 125.537 44.7707 125.537 44.8554H120.558V44.8836ZM120.558 44.1501H124.611C124.553 43.5577 124.35 43.0781 124.003 42.6831C123.655 42.2882 123.192 42.0907 122.584 42.0907C122.063 42.0907 121.6 42.2882 121.194 42.6831C120.847 43.0499 120.644 43.5295 120.558 44.1501Z" fill="black" fill-opacity="0.9"/>
<path d="M127.216 47.5638V41.4419H128.142V42.514C128.634 41.7241 129.358 41.3291 130.285 41.3291C131.037 41.3291 131.616 41.5548 132.051 42.0062C132.485 42.4575 132.688 43.05 132.688 43.7835V47.5638H131.761V43.9809C131.761 43.4167 131.616 42.9653 131.298 42.6268C130.979 42.2883 130.574 42.1472 130.024 42.1472C129.474 42.1472 129.04 42.3165 128.663 42.6832C128.316 43.05 128.113 43.5014 128.113 44.0656V47.5638H127.216Z" fill="black" fill-opacity="0.9"/>
<path d="M137.554 47.7048C136.657 47.7048 135.875 47.3945 135.267 46.7739C134.659 46.1532 134.341 45.3915 134.341 44.517C134.341 43.6424 134.659 42.8807 135.267 42.2601C135.875 41.6394 136.657 41.3291 137.554 41.3291C138.539 41.3291 139.378 41.6958 140.073 42.4293L139.465 43.05C138.886 42.4575 138.249 42.1472 137.525 42.1472C136.888 42.1472 136.367 42.3729 135.933 42.8525C135.499 43.3039 135.296 43.8963 135.296 44.5452C135.296 45.2222 135.528 45.7865 135.962 46.2378C136.396 46.6892 136.946 46.9431 137.612 46.9431C138.278 46.9431 138.915 46.6328 139.523 46.0122L140.131 46.5764C139.378 47.3099 138.539 47.7048 137.554 47.7048Z" fill="black" fill-opacity="0.9"/>
<path d="M142.646 49.5107C142.183 49.5107 141.749 49.3978 141.314 49.2004L141.633 48.4669C141.922 48.6079 142.27 48.6926 142.617 48.6926C142.907 48.6926 143.138 48.6079 143.341 48.4387C143.544 48.2694 143.717 47.9591 143.92 47.5359L141.054 41.4141H142.096L144.383 46.5203L146.41 41.4141H147.394L144.76 47.7616C144.499 48.3822 144.209 48.8336 143.862 49.0875C143.515 49.3696 143.109 49.5107 142.646 49.5107Z" fill="black" fill-opacity="0.9"/>
<path d="M190.011 11.5L190.011 59.5" stroke="white" stroke-opacity="0.5" stroke-linecap="round"/>
<path d="M200.851 23V14.36H204.187C204.271 14.36 204.365 14.364 204.469 14.372C204.577 14.376 204.685 14.388 204.793 14.408C205.245 14.476 205.627 14.634 205.939 14.882C206.255 15.126 206.493 15.434 206.653 15.806C206.817 16.178 206.899 16.59 206.899 17.042C206.899 17.49 206.817 17.9 206.653 18.272C206.489 18.644 206.249 18.954 205.933 19.202C205.621 19.446 205.241 19.602 204.793 19.67C204.685 19.686 204.577 19.698 204.469 19.706C204.365 19.714 204.271 19.718 204.187 19.718H201.733V23H200.851ZM201.733 18.878H204.163C204.235 18.878 204.319 18.874 204.415 18.866C204.511 18.858 204.605 18.844 204.697 18.824C204.993 18.76 205.235 18.638 205.423 18.458C205.615 18.278 205.757 18.064 205.849 17.816C205.945 17.568 205.993 17.31 205.993 17.042C205.993 16.774 205.945 16.516 205.849 16.268C205.757 16.016 205.615 15.8 205.423 15.62C205.235 15.44 204.993 15.318 204.697 15.254C204.605 15.234 204.511 15.222 204.415 15.218C204.319 15.21 204.235 15.206 204.163 15.206H201.733V18.878ZM209.948 23.18C209.46 23.18 209.05 23.092 208.718 22.916C208.39 22.74 208.144 22.506 207.98 22.214C207.816 21.922 207.734 21.604 207.734 21.26C207.734 20.908 207.804 20.608 207.944 20.36C208.088 20.108 208.282 19.902 208.526 19.742C208.774 19.582 209.06 19.46 209.384 19.376C209.712 19.296 210.074 19.226 210.47 19.166C210.87 19.102 211.26 19.048 211.64 19.004C212.024 18.956 212.36 18.91 212.648 18.866L212.336 19.058C212.348 18.418 212.224 17.944 211.964 17.636C211.704 17.328 211.252 17.174 210.608 17.174C210.164 17.174 209.788 17.274 209.48 17.474C209.176 17.674 208.962 17.99 208.838 18.422L207.98 18.17C208.128 17.59 208.426 17.14 208.874 16.82C209.322 16.5 209.904 16.34 210.62 16.34C211.212 16.34 211.714 16.452 212.126 16.676C212.542 16.896 212.836 17.216 213.008 17.636C213.088 17.824 213.14 18.034 213.164 18.266C213.188 18.498 213.2 18.734 213.2 18.974V23H212.414V21.374L212.642 21.47C212.422 22.026 212.08 22.45 211.616 22.742C211.152 23.034 210.596 23.18 209.948 23.18ZM210.05 22.418C210.462 22.418 210.822 22.344 211.13 22.196C211.438 22.048 211.686 21.846 211.874 21.59C212.062 21.33 212.184 21.038 212.24 20.714C212.288 20.506 212.314 20.278 212.318 20.03C212.322 19.778 212.324 19.59 212.324 19.466L212.66 19.64C212.36 19.68 212.034 19.72 211.682 19.76C211.334 19.8 210.99 19.846 210.65 19.898C210.314 19.95 210.01 20.012 209.738 20.084C209.554 20.136 209.376 20.21 209.204 20.306C209.032 20.398 208.89 20.522 208.778 20.678C208.67 20.834 208.616 21.028 208.616 21.26C208.616 21.448 208.662 21.63 208.754 21.806C208.85 21.982 209.002 22.128 209.21 22.244C209.422 22.36 209.702 22.418 210.05 22.418ZM217.096 23.18C216.444 23.18 215.874 23.038 215.386 22.754C214.902 22.466 214.52 22.068 214.24 21.56L214.948 21.11C215.184 21.51 215.478 21.814 215.83 22.022C216.182 22.23 216.586 22.334 217.042 22.334C217.518 22.334 217.9 22.224 218.188 22.004C218.476 21.784 218.62 21.482 218.62 21.098C218.62 20.834 218.558 20.624 218.434 20.468C218.314 20.312 218.13 20.2 217.882 20.132C217.638 20.064 217.332 20.03 216.964 20.03H216.196V19.274H216.952C217.4 19.274 217.76 19.194 218.032 19.034C218.308 18.87 218.446 18.614 218.446 18.266C218.446 17.898 218.308 17.626 218.032 17.45C217.76 17.27 217.434 17.18 217.054 17.18C216.67 17.18 216.306 17.26 215.962 17.42C215.622 17.576 215.336 17.778 215.104 18.026L214.54 17.432C214.864 17.076 215.242 16.806 215.674 16.622C216.11 16.434 216.592 16.34 217.12 16.34C217.536 16.34 217.912 16.414 218.248 16.562C218.588 16.706 218.856 16.918 219.052 17.198C219.252 17.478 219.352 17.814 219.352 18.206C219.352 18.574 219.262 18.892 219.082 19.16C218.906 19.428 218.656 19.65 218.332 19.826L218.284 19.496C218.564 19.548 218.796 19.66 218.98 19.832C219.164 20.004 219.3 20.21 219.388 20.45C219.476 20.69 219.52 20.934 219.52 21.182C219.52 21.594 219.412 21.95 219.196 22.25C218.984 22.546 218.694 22.776 218.326 22.94C217.962 23.1 217.552 23.18 217.096 23.18ZM223.754 23.18C223.158 23.18 222.654 23.03 222.242 22.73C221.83 22.426 221.518 22.016 221.306 21.5C221.094 20.98 220.988 20.398 220.988 19.754C220.988 19.098 221.094 18.514 221.306 18.002C221.522 17.486 221.838 17.08 222.254 16.784C222.67 16.488 223.182 16.34 223.79 16.34C224.382 16.34 224.89 16.49 225.314 16.79C225.738 17.09 226.062 17.498 226.286 18.014C226.514 18.53 226.628 19.11 226.628 19.754C226.628 20.402 226.514 20.984 226.286 21.5C226.058 22.016 225.73 22.426 225.302 22.73C224.874 23.03 224.358 23.18 223.754 23.18ZM220.838 25.88V16.52H221.63V21.398H221.726V25.88H220.838ZM223.664 22.358C224.116 22.358 224.492 22.244 224.792 22.016C225.092 21.788 225.316 21.478 225.464 21.086C225.616 20.69 225.692 20.246 225.692 19.754C225.692 19.266 225.618 18.826 225.47 18.434C225.322 18.042 225.096 17.732 224.792 17.504C224.492 17.276 224.11 17.162 223.646 17.162C223.194 17.162 222.818 17.272 222.518 17.492C222.222 17.712 222 18.018 221.852 18.41C221.704 18.798 221.63 19.246 221.63 19.754C221.63 20.254 221.704 20.702 221.852 21.098C222 21.49 222.224 21.798 222.524 22.022C222.824 22.246 223.204 22.358 223.664 22.358ZM229.799 23.18C229.311 23.18 228.901 23.092 228.569 22.916C228.241 22.74 227.995 22.506 227.831 22.214C227.667 21.922 227.585 21.604 227.585 21.26C227.585 20.908 227.655 20.608 227.795 20.36C227.939 20.108 228.133 19.902 228.377 19.742C228.625 19.582 228.911 19.46 229.235 19.376C229.563 19.296 229.925 19.226 230.321 19.166C230.721 19.102 231.111 19.048 231.491 19.004C231.875 18.956 232.211 18.91 232.499 18.866L232.187 19.058C232.199 18.418 232.075 17.944 231.815 17.636C231.555 17.328 231.103 17.174 230.459 17.174C230.015 17.174 229.639 17.274 229.331 17.474C229.027 17.674 228.813 17.99 228.689 18.422L227.831 18.17C227.979 17.59 228.277 17.14 228.725 16.82C229.173 16.5 229.755 16.34 230.471 16.34C231.063 16.34 231.565 16.452 231.977 16.676C232.393 16.896 232.687 17.216 232.859 17.636C232.939 17.824 232.991 18.034 233.015 18.266C233.039 18.498 233.051 18.734 233.051 18.974V23H232.265V21.374L232.493 21.47C232.273 22.026 231.931 22.45 231.467 22.742C231.003 23.034 230.447 23.18 229.799 23.18ZM229.901 22.418C230.313 22.418 230.673 22.344 230.981 22.196C231.289 22.048 231.537 21.846 231.725 21.59C231.913 21.33 232.035 21.038 232.091 20.714C232.139 20.506 232.165 20.278 232.169 20.03C232.173 19.778 232.175 19.59 232.175 19.466L232.511 19.64C232.211 19.68 231.885 19.72 231.533 19.76C231.185 19.8 230.841 19.846 230.501 19.898C230.165 19.95 229.861 20.012 229.589 20.084C229.405 20.136 229.227 20.21 229.055 20.306C228.883 20.398 228.741 20.522 228.629 20.678C228.521 20.834 228.467 21.028 228.467 21.26C228.467 21.448 228.513 21.63 228.605 21.806C228.701 21.982 228.853 22.128 229.061 22.244C229.273 22.36 229.553 22.418 229.901 22.418ZM237.211 23.186C236.607 23.182 236.089 23.05 235.657 22.79C235.225 22.53 234.889 22.142 234.649 21.626C234.413 21.11 234.285 20.466 234.265 19.694C234.253 19.354 234.261 18.984 234.289 18.584C234.317 18.18 234.361 17.796 234.421 17.432C234.481 17.068 234.553 16.772 234.637 16.544C234.741 16.248 234.889 15.972 235.081 15.716C235.277 15.456 235.503 15.244 235.759 15.08C236.007 14.912 236.287 14.782 236.599 14.69C236.915 14.594 237.243 14.52 237.583 14.468C237.927 14.416 238.267 14.37 238.603 14.33C238.943 14.29 239.257 14.24 239.545 14.18L239.641 14.978C239.421 15.022 239.161 15.062 238.861 15.098C238.561 15.134 238.247 15.178 237.919 15.23C237.591 15.278 237.277 15.344 236.977 15.428C236.677 15.512 236.421 15.622 236.209 15.758C235.885 15.954 235.635 16.25 235.459 16.646C235.287 17.042 235.181 17.496 235.141 18.008C235.389 17.62 235.717 17.328 236.125 17.132C236.537 16.936 236.983 16.838 237.463 16.838C238.047 16.838 238.549 16.972 238.969 17.24C239.393 17.508 239.719 17.88 239.947 18.356C240.175 18.832 240.289 19.378 240.289 19.994C240.289 20.638 240.163 21.2 239.911 21.68C239.663 22.16 239.309 22.532 238.849 22.796C238.389 23.056 237.843 23.186 237.211 23.186ZM237.277 22.34C237.957 22.34 238.473 22.128 238.825 21.704C239.181 21.28 239.359 20.716 239.359 20.012C239.359 19.292 239.175 18.724 238.807 18.308C238.443 17.892 237.929 17.684 237.265 17.684C236.601 17.684 236.091 17.892 235.735 18.308C235.379 18.724 235.201 19.292 235.201 20.012C235.201 20.732 235.379 21.3 235.735 21.716C236.091 22.132 236.605 22.34 237.277 22.34ZM244.315 23.18C243.671 23.18 243.121 23.034 242.665 22.742C242.209 22.45 241.859 22.046 241.615 21.53C241.371 21.014 241.249 20.422 241.249 19.754C241.249 19.074 241.373 18.478 241.621 17.966C241.869 17.454 242.221 17.056 242.677 16.772C243.137 16.484 243.683 16.34 244.315 16.34C244.963 16.34 245.515 16.486 245.971 16.778C246.431 17.066 246.781 17.468 247.021 17.984C247.265 18.496 247.387 19.086 247.387 19.754C247.387 20.434 247.265 21.032 247.021 21.548C246.777 22.06 246.425 22.46 245.965 22.748C245.505 23.036 244.955 23.18 244.315 23.18ZM244.315 22.334C245.035 22.334 245.571 22.096 245.923 21.62C246.275 21.14 246.451 20.518 246.451 19.754C246.451 18.97 246.273 18.346 245.917 17.882C245.565 17.418 245.031 17.186 244.315 17.186C243.831 17.186 243.431 17.296 243.115 17.516C242.803 17.732 242.569 18.034 242.413 18.422C242.261 18.806 242.185 19.25 242.185 19.754C242.185 20.534 242.365 21.16 242.725 21.632C243.085 22.1 243.615 22.334 244.315 22.334ZM250.316 23V17.336H248.018V16.52H253.496V17.336H251.198V23H250.316ZM254.634 23L254.64 16.52H255.528V19.64L258.42 16.52H259.596L256.56 19.76L259.992 23H258.708L255.528 19.88V23H254.634ZM262.448 23.18C261.96 23.18 261.55 23.092 261.218 22.916C260.89 22.74 260.644 22.506 260.48 22.214C260.316 21.922 260.234 21.604 260.234 21.26C260.234 20.908 260.304 20.608 260.444 20.36C260.588 20.108 260.782 19.902 261.026 19.742C261.274 19.582 261.56 19.46 261.884 19.376C262.212 19.296 262.574 19.226 262.97 19.166C263.37 19.102 263.76 19.048 264.14 19.004C264.524 18.956 264.86 18.91 265.148 18.866L264.836 19.058C264.848 18.418 264.724 17.944 264.464 17.636C264.204 17.328 263.752 17.174 263.108 17.174C262.664 17.174 262.288 17.274 261.98 17.474C261.676 17.674 261.462 17.99 261.338 18.422L260.48 18.17C260.628 17.59 260.926 17.14 261.374 16.82C261.822 16.5 262.404 16.34 263.12 16.34C263.712 16.34 264.214 16.452 264.626 16.676C265.042 16.896 265.336 17.216 265.508 17.636C265.588 17.824 265.64 18.034 265.664 18.266C265.688 18.498 265.7 18.734 265.7 18.974V23H264.914V21.374L265.142 21.47C264.922 22.026 264.58 22.45 264.116 22.742C263.652 23.034 263.096 23.18 262.448 23.18ZM262.55 22.418C262.962 22.418 263.322 22.344 263.63 22.196C263.938 22.048 264.186 21.846 264.374 21.59C264.562 21.33 264.684 21.038 264.74 20.714C264.788 20.506 264.814 20.278 264.818 20.03C264.822 19.778 264.824 19.59 264.824 19.466L265.16 19.64C264.86 19.68 264.534 19.72 264.182 19.76C263.834 19.8 263.49 19.846 263.15 19.898C262.814 19.95 262.51 20.012 262.238 20.084C262.054 20.136 261.876 20.21 261.704 20.306C261.532 20.398 261.39 20.522 261.278 20.678C261.17 20.834 261.116 21.028 261.116 21.26C261.116 21.448 261.162 21.63 261.254 21.806C261.35 21.982 261.502 22.128 261.71 22.244C261.922 22.36 262.202 22.418 262.55 22.418ZM274.812 16.52V23H273.954V17.954L270.402 23H269.658V16.52H270.516V21.524L274.074 16.52H274.812ZM200.845 40V33.52H205.999V40H205.117V34.366H201.727V40H200.845ZM210.593 40.18C209.997 40.18 209.493 40.03 209.081 39.73C208.669 39.426 208.357 39.016 208.145 38.5C207.933 37.98 207.827 37.398 207.827 36.754C207.827 36.098 207.933 35.514 208.145 35.002C208.361 34.486 208.677 34.08 209.093 33.784C209.509 33.488 210.021 33.34 210.629 33.34C211.221 33.34 211.729 33.49 212.153 33.79C212.577 34.09 212.901 34.498 213.125 35.014C213.353 35.53 213.467 36.11 213.467 36.754C213.467 37.402 213.353 37.984 213.125 38.5C212.897 39.016 212.569 39.426 212.141 39.73C211.713 40.03 211.197 40.18 210.593 40.18ZM207.677 42.88V33.52H208.469V38.398H208.565V42.88H207.677ZM210.503 39.358C210.955 39.358 211.331 39.244 211.631 39.016C211.931 38.788 212.155 38.478 212.303 38.086C212.455 37.69 212.531 37.246 212.531 36.754C212.531 36.266 212.457 35.826 212.309 35.434C212.161 35.042 211.935 34.732 211.631 34.504C211.331 34.276 210.949 34.162 210.485 34.162C210.033 34.162 209.657 34.272 209.357 34.492C209.061 34.712 208.839 35.018 208.691 35.41C208.543 35.798 208.469 36.246 208.469 36.754C208.469 37.254 208.543 37.702 208.691 38.098C208.839 38.49 209.063 38.798 209.363 39.022C209.663 39.246 210.043 39.358 210.503 39.358ZM217.491 40.18C216.847 40.18 216.297 40.034 215.841 39.742C215.385 39.45 215.035 39.046 214.791 38.53C214.547 38.014 214.425 37.422 214.425 36.754C214.425 36.074 214.549 35.478 214.797 34.966C215.045 34.454 215.397 34.056 215.853 33.772C216.313 33.484 216.859 33.34 217.491 33.34C218.139 33.34 218.691 33.486 219.147 33.778C219.607 34.066 219.957 34.468 220.197 34.984C220.441 35.496 220.563 36.086 220.563 36.754C220.563 37.434 220.441 38.032 220.197 38.548C219.953 39.06 219.601 39.46 219.141 39.748C218.681 40.036 218.131 40.18 217.491 40.18ZM217.491 39.334C218.211 39.334 218.747 39.096 219.099 38.62C219.451 38.14 219.627 37.518 219.627 36.754C219.627 35.97 219.449 35.346 219.093 34.882C218.741 34.418 218.207 34.186 217.491 34.186C217.007 34.186 216.607 34.296 216.291 34.516C215.979 34.732 215.745 35.034 215.589 35.422C215.437 35.806 215.361 36.25 215.361 36.754C215.361 37.534 215.541 38.16 215.901 38.632C216.261 39.1 216.791 39.334 217.491 39.334ZM221.407 41.44V39.244C221.775 39.244 222.039 39.126 222.199 38.89C222.359 38.65 222.489 38.268 222.589 37.744C222.657 37.404 222.713 37.038 222.757 36.646C222.801 36.254 222.839 35.806 222.871 35.302C222.903 34.794 222.933 34.2 222.961 33.52H227.245V39.244H227.869V41.44H227.017V40H222.253V41.44H221.407ZM222.901 39.244H226.369V34.276H223.777C223.765 34.58 223.747 34.902 223.723 35.242C223.703 35.582 223.677 35.922 223.645 36.262C223.617 36.602 223.583 36.922 223.543 37.222C223.507 37.518 223.463 37.778 223.411 38.002C223.351 38.29 223.285 38.536 223.213 38.74C223.145 38.944 223.041 39.112 222.901 39.244ZM229.064 40V33.52H231.734C231.87 33.52 232.034 33.528 232.226 33.544C232.422 33.56 232.604 33.59 232.772 33.634C233.136 33.73 233.428 33.926 233.648 34.222C233.872 34.518 233.984 34.874 233.984 35.29C233.984 35.522 233.948 35.73 233.876 35.914C233.808 36.094 233.71 36.25 233.582 36.382C233.522 36.45 233.456 36.51 233.384 36.562C233.312 36.61 233.242 36.65 233.174 36.682C233.302 36.706 233.44 36.762 233.588 36.85C233.82 36.986 233.996 37.17 234.116 37.402C234.236 37.63 234.296 37.908 234.296 38.236C234.296 38.68 234.19 39.042 233.978 39.322C233.766 39.602 233.482 39.794 233.126 39.898C232.966 39.942 232.792 39.97 232.604 39.982C232.42 39.994 232.246 40 232.082 40H229.064ZM229.952 39.25H232.04C232.124 39.25 232.23 39.244 232.358 39.232C232.486 39.216 232.6 39.196 232.7 39.172C232.936 39.112 233.108 38.992 233.216 38.812C233.328 38.628 233.384 38.428 233.384 38.212C233.384 37.928 233.3 37.696 233.132 37.516C232.968 37.332 232.748 37.22 232.472 37.18C232.38 37.16 232.284 37.148 232.184 37.144C232.084 37.14 231.994 37.138 231.914 37.138H229.952V39.25ZM229.952 36.382H231.764C231.868 36.382 231.984 36.376 232.112 36.364C232.244 36.348 232.358 36.322 232.454 36.286C232.662 36.214 232.814 36.09 232.91 35.914C233.01 35.738 233.06 35.546 233.06 35.338C233.06 35.11 233.006 34.91 232.898 34.738C232.794 34.566 232.636 34.446 232.424 34.378C232.28 34.326 232.124 34.296 231.956 34.288C231.792 34.28 231.688 34.276 231.644 34.276H229.952V36.382ZM240.64 33.52V40H239.782V34.954L236.23 40H235.486V33.52H236.344V38.524L239.902 33.52H240.64ZM241.604 40L244.34 36.76L241.718 33.52H242.714L245.27 36.718V33.52H246.086V36.718L248.642 33.52H249.632L247.01 36.76L249.746 40H248.72L246.086 36.802V40H245.27V36.802L242.63 40H241.604ZM253.211 40.18C252.579 40.18 252.031 40.04 251.567 39.76C251.107 39.48 250.749 39.086 250.493 38.578C250.237 38.07 250.109 37.474 250.109 36.79C250.109 36.082 250.235 35.47 250.487 34.954C250.739 34.438 251.093 34.04 251.549 33.76C252.009 33.48 252.551 33.34 253.175 33.34C253.815 33.34 254.361 33.488 254.813 33.784C255.265 34.076 255.607 34.496 255.839 35.044C256.071 35.592 256.177 36.246 256.157 37.006H255.257V36.694C255.241 35.854 255.059 35.22 254.711 34.792C254.367 34.364 253.863 34.15 253.199 34.15C252.503 34.15 251.969 34.376 251.597 34.828C251.229 35.28 251.045 35.924 251.045 36.76C251.045 37.576 251.229 38.21 251.597 38.662C251.969 39.11 252.495 39.334 253.175 39.334C253.639 39.334 254.043 39.228 254.387 39.016C254.735 38.8 255.009 38.49 255.209 38.086L256.031 38.404C255.775 38.968 255.397 39.406 254.897 39.718C254.401 40.026 253.839 40.18 253.211 40.18ZM250.733 37.006V36.268H255.683V37.006H250.733ZM257.482 40V33.52H258.364V36.334H262.018V33.52H262.9V40H262.018V37.18H258.364V40H257.482ZM269.726 33.52V40H268.868V34.954L265.316 40H264.572V33.52H265.43V38.524L268.988 33.52H269.726ZM274.152 40.18C273.52 40.18 272.972 40.04 272.508 39.76C272.048 39.48 271.69 39.086 271.434 38.578C271.178 38.07 271.05 37.474 271.05 36.79C271.05 36.082 271.176 35.47 271.428 34.954C271.68 34.438 272.034 34.04 272.49 33.76C272.95 33.48 273.492 33.34 274.116 33.34C274.756 33.34 275.302 33.488 275.754 33.784C276.206 34.076 276.548 34.496 276.78 35.044C277.012 35.592 277.118 36.246 277.098 37.006H276.198V36.694C276.182 35.854 276 35.22 275.652 34.792C275.308 34.364 274.804 34.15 274.14 34.15C273.444 34.15 272.91 34.376 272.538 34.828C272.17 35.28 271.986 35.924 271.986 36.76C271.986 37.576 272.17 38.21 272.538 38.662C272.91 39.11 273.436 39.334 274.116 39.334C274.58 39.334 274.984 39.228 275.328 39.016C275.676 38.8 275.95 38.49 276.15 38.086L276.972 38.404C276.716 38.968 276.338 39.406 275.838 39.718C275.342 40.026 274.78 40.18 274.152 40.18ZM271.674 37.006V36.268H276.624V37.006H271.674ZM278.075 41.254L278.129 40.816C278.289 40.828 278.405 40.796 278.477 40.72C278.549 40.644 278.593 40.542 278.609 40.414C278.625 40.286 278.629 40.148 278.621 40H278.075V38.734H279.101V40.24C279.101 40.608 279.007 40.884 278.819 41.068C278.635 41.252 278.387 41.314 278.075 41.254ZM203.539 57.18C202.887 57.18 202.335 57.034 201.883 56.742C201.431 56.45 201.087 56.048 200.851 55.536C200.619 55.02 200.499 54.428 200.491 53.76C200.499 53.08 200.623 52.484 200.863 51.972C201.103 51.456 201.449 51.056 201.901 50.772C202.353 50.484 202.901 50.34 203.545 50.34C204.201 50.34 204.771 50.5 205.255 50.82C205.743 51.14 206.077 51.578 206.257 52.134L205.393 52.41C205.241 52.022 204.999 51.722 204.667 51.51C204.339 51.294 203.963 51.186 203.539 51.186C203.063 51.186 202.669 51.296 202.357 51.516C202.045 51.732 201.813 52.034 201.661 52.422C201.509 52.81 201.431 53.256 201.427 53.76C201.435 54.536 201.615 55.16 201.967 55.632C202.319 56.1 202.843 56.334 203.539 56.334C203.979 56.334 204.353 56.234 204.661 56.034C204.973 55.83 205.209 55.534 205.369 55.146L206.257 55.41C206.017 55.986 205.665 56.426 205.201 56.73C204.737 57.03 204.183 57.18 203.539 57.18ZM209.298 57V56.226C209.538 56.27 209.72 56.26 209.844 56.196C209.972 56.128 210.066 56.016 210.126 55.86C210.186 55.7 210.236 55.502 210.276 55.266C210.34 54.874 210.398 54.442 210.45 53.97C210.502 53.498 210.548 52.978 210.588 52.41C210.632 51.838 210.676 51.208 210.72 50.52H215.124V57H214.248V51.366H211.536C211.508 51.79 211.476 52.212 211.44 52.632C211.404 53.052 211.366 53.456 211.326 53.844C211.29 54.228 211.25 54.582 211.206 54.906C211.162 55.23 211.116 55.51 211.068 55.746C210.996 56.102 210.9 56.386 210.78 56.598C210.664 56.81 210.49 56.95 210.258 57.018C210.026 57.086 209.706 57.08 209.298 57ZM221.901 57.18C221.329 57.18 220.831 57.058 220.407 56.814C219.983 56.566 219.645 56.22 219.393 55.776C219.145 55.328 218.995 54.802 218.943 54.198H217.677V57H216.795V50.52H217.677V53.322H218.937C218.989 52.71 219.141 52.182 219.393 51.738C219.649 51.29 219.989 50.946 220.413 50.706C220.841 50.462 221.339 50.34 221.907 50.34C222.551 50.34 223.101 50.486 223.557 50.778C224.017 51.07 224.367 51.472 224.607 51.984C224.851 52.496 224.973 53.084 224.973 53.748C224.973 54.428 224.849 55.026 224.601 55.542C224.357 56.058 224.005 56.46 223.545 56.748C223.089 57.036 222.541 57.18 221.901 57.18ZM221.883 56.334C222.611 56.334 223.151 56.098 223.503 55.626C223.859 55.15 224.037 54.526 224.037 53.754C224.037 52.966 223.857 52.342 223.497 51.882C223.141 51.418 222.605 51.186 221.889 51.186C221.205 51.186 220.681 51.414 220.317 51.87C219.953 52.322 219.771 52.948 219.771 53.748C219.771 54.532 219.949 55.16 220.305 55.632C220.665 56.1 221.191 56.334 221.883 56.334ZM228.891 57.186C228.287 57.182 227.769 57.05 227.337 56.79C226.905 56.53 226.569 56.142 226.329 55.626C226.093 55.11 225.965 54.466 225.945 53.694C225.933 53.354 225.941 52.984 225.969 52.584C225.997 52.18 226.041 51.796 226.101 51.432C226.161 51.068 226.233 50.772 226.317 50.544C226.421 50.248 226.569 49.972 226.761 49.716C226.957 49.456 227.183 49.244 227.439 49.08C227.687 48.912 227.967 48.782 228.279 48.69C228.595 48.594 228.923 48.52 229.263 48.468C229.607 48.416 229.947 48.37 230.283 48.33C230.623 48.29 230.937 48.24 231.225 48.18L231.321 48.978C231.101 49.022 230.841 49.062 230.541 49.098C230.241 49.134 229.927 49.178 229.599 49.23C229.271 49.278 228.957 49.344 228.657 49.428C228.357 49.512 228.101 49.622 227.889 49.758C227.565 49.954 227.315 50.25 227.139 50.646C226.967 51.042 226.861 51.496 226.821 52.008C227.069 51.62 227.397 51.328 227.805 51.132C228.217 50.936 228.663 50.838 229.143 50.838C229.727 50.838 230.229 50.972 230.649 51.24C231.073 51.508 231.399 51.88 231.627 52.356C231.855 52.832 231.969 53.378 231.969 53.994C231.969 54.638 231.843 55.2 231.591 55.68C231.343 56.16 230.989 56.532 230.529 56.796C230.069 57.056 229.523 57.186 228.891 57.186ZM228.957 56.34C229.637 56.34 230.153 56.128 230.505 55.704C230.861 55.28 231.039 54.716 231.039 54.012C231.039 53.292 230.855 52.724 230.487 52.308C230.123 51.892 229.609 51.684 228.945 51.684C228.281 51.684 227.771 51.892 227.415 52.308C227.059 52.724 226.881 53.292 226.881 54.012C226.881 54.732 227.059 55.3 227.415 55.716C227.771 56.132 228.285 56.34 228.957 56.34ZM235.995 57.18C235.351 57.18 234.801 57.034 234.345 56.742C233.889 56.45 233.539 56.046 233.295 55.53C233.051 55.014 232.929 54.422 232.929 53.754C232.929 53.074 233.053 52.478 233.301 51.966C233.549 51.454 233.901 51.056 234.357 50.772C234.817 50.484 235.363 50.34 235.995 50.34C236.643 50.34 237.195 50.486 237.651 50.778C238.111 51.066 238.461 51.468 238.701 51.984C238.945 52.496 239.067 53.086 239.067 53.754C239.067 54.434 238.945 55.032 238.701 55.548C238.457 56.06 238.105 56.46 237.645 56.748C237.185 57.036 236.635 57.18 235.995 57.18ZM235.995 56.334C236.715 56.334 237.251 56.096 237.603 55.62C237.955 55.14 238.131 54.518 238.131 53.754C238.131 52.97 237.953 52.346 237.597 51.882C237.245 51.418 236.711 51.186 235.995 51.186C235.511 51.186 235.111 51.296 234.795 51.516C234.483 51.732 234.249 52.034 234.093 52.422C233.941 52.806 233.865 53.25 233.865 53.754C233.865 54.534 234.045 55.16 234.405 55.632C234.765 56.1 235.295 56.334 235.995 56.334ZM240.384 57V50.52H243.054C243.19 50.52 243.354 50.528 243.546 50.544C243.742 50.56 243.924 50.59 244.092 50.634C244.456 50.73 244.748 50.926 244.968 51.222C245.192 51.518 245.304 51.874 245.304 52.29C245.304 52.522 245.268 52.73 245.196 52.914C245.128 53.094 245.03 53.25 244.902 53.382C244.842 53.45 244.776 53.51 244.704 53.562C244.632 53.61 244.562 53.65 244.494 53.682C244.622 53.706 244.76 53.762 244.908 53.85C245.14 53.986 245.316 54.17 245.436 54.402C245.556 54.63 245.616 54.908 245.616 55.236C245.616 55.68 245.51 56.042 245.298 56.322C245.086 56.602 244.802 56.794 244.446 56.898C244.286 56.942 244.112 56.97 243.924 56.982C243.74 56.994 243.566 57 243.402 57H240.384ZM241.272 56.25H243.36C243.444 56.25 243.55 56.244 243.678 56.232C243.806 56.216 243.92 56.196 244.02 56.172C244.256 56.112 244.428 55.992 244.536 55.812C244.648 55.628 244.704 55.428 244.704 55.212C244.704 54.928 244.62 54.696 244.452 54.516C244.288 54.332 244.068 54.22 243.792 54.18C243.7 54.16 243.604 54.148 243.504 54.144C243.404 54.14 243.314 54.138 243.234 54.138H241.272V56.25ZM241.272 53.382H243.084C243.188 53.382 243.304 53.376 243.432 53.364C243.564 53.348 243.678 53.322 243.774 53.286C243.982 53.214 244.134 53.09 244.23 52.914C244.33 52.738 244.38 52.546 244.38 52.338C244.38 52.11 244.326 51.91 244.218 51.738C244.114 51.566 243.956 51.446 243.744 51.378C243.6 51.326 243.444 51.296 243.276 51.288C243.112 51.28 243.008 51.276 242.964 51.276H241.272V53.382ZM246.818 57L246.806 50.52H247.694V52.962H249.212C249.4 52.962 249.584 52.966 249.764 52.974C249.948 52.982 250.11 52.998 250.25 53.022C250.57 53.082 250.854 53.188 251.102 53.34C251.354 53.492 251.55 53.702 251.69 53.97C251.834 54.238 251.906 54.574 251.906 54.978C251.906 55.534 251.762 55.972 251.474 56.292C251.19 56.612 250.83 56.82 250.394 56.916C250.23 56.952 250.052 56.976 249.86 56.988C249.668 56.996 249.478 57 249.29 57H246.818ZM247.694 56.244H249.254C249.39 56.244 249.542 56.24 249.71 56.232C249.878 56.224 250.026 56.202 250.154 56.166C250.366 56.106 250.558 55.986 250.73 55.806C250.906 55.622 250.994 55.346 250.994 54.978C250.994 54.614 250.91 54.34 250.742 54.156C250.574 53.968 250.35 53.844 250.07 53.784C249.946 53.756 249.812 53.738 249.668 53.73C249.524 53.722 249.386 53.718 249.254 53.718H247.694V56.244ZM258.147 57.18C257.575 57.18 257.077 57.058 256.653 56.814C256.229 56.566 255.891 56.22 255.639 55.776C255.391 55.328 255.241 54.802 255.189 54.198H253.923V57H253.041V50.52H253.923V53.322H255.183C255.235 52.71 255.387 52.182 255.639 51.738C255.895 51.29 256.235 50.946 256.659 50.706C257.087 50.462 257.585 50.34 258.153 50.34C258.797 50.34 259.347 50.486 259.803 50.778C260.263 51.07 260.613 51.472 260.853 51.984C261.097 52.496 261.219 53.084 261.219 53.748C261.219 54.428 261.095 55.026 260.847 55.542C260.603 56.058 260.251 56.46 259.791 56.748C259.335 57.036 258.787 57.18 258.147 57.18ZM258.129 56.334C258.857 56.334 259.397 56.098 259.749 55.626C260.105 55.15 260.283 54.526 260.283 53.754C260.283 52.966 260.103 52.342 259.743 51.882C259.387 51.418 258.851 51.186 258.135 51.186C257.451 51.186 256.927 51.414 256.563 51.87C256.199 52.322 256.017 52.948 256.017 53.748C256.017 54.532 256.195 55.16 256.551 55.632C256.911 56.1 257.437 56.334 258.129 56.334Z" fill="black" fill-opacity="0.5"/>
<rect x="0.5" y="0.5" width="297" height="70" rx="9.5" stroke="black" stroke-opacity="0.2"/>
<defs>
<linearGradient id="paint0_linear_314_716" x1="14.4016" y1="32.8172" x2="30.9117" y2="16.0017" gradientUnits="userSpaceOnUse">
<stop stop-color="#CE2000"/>
<stop offset="0.6128" stop-color="#A61A00"/>
<stop offset="1" stop-color="#DD1500"/>
</linearGradient>
<linearGradient id="paint1_linear_314_716" x1="14.3829" y1="42.6398" x2="38.5029" y2="18.0736" gradientUnits="userSpaceOnUse">
<stop stop-color="#CE2000"/>
<stop offset="0.6128" stop-color="#A61A00"/>
<stop offset="1" stop-color="#DD1500"/>
</linearGradient>
<linearGradient id="paint2_linear_314_716" x1="20.4355" y1="47.9504" x2="45.2741" y2="22.6523" gradientUnits="userSpaceOnUse">
<stop stop-color="#CE2000"/>
<stop offset="0.6128" stop-color="#A61A00"/>
<stop offset="1" stop-color="#DD1500"/>
</linearGradient>
<linearGradient id="paint3_linear_314_716" x1="26.9503" y1="51.6977" x2="50.7792" y2="27.4279" gradientUnits="userSpaceOnUse">
<stop stop-color="#CE2000"/>
<stop offset="0.6128" stop-color="#A61A00"/>
<stop offset="1" stop-color="#DD1500"/>
</linearGradient>
<linearGradient id="paint4_linear_314_716" x1="35.6497" y1="54.5573" x2="52.1598" y2="37.7418" gradientUnits="userSpaceOnUse">
<stop stop-color="#CE2000"/>
<stop offset="0.6128" stop-color="#A61A00"/>
<stop offset="1" stop-color="#DD1500"/>
</linearGradient>
</defs>
</svg>
