<svg width="48" height="48" viewBox="0 0 48 48" fill="none" xmlns="http://www.w3.org/2000/svg">
<g clip-path="url(#clip0_187_232)">
<path d="M1.17138 15.8977L5.82665 17.4815C6.18706 17.601 6.5775 17.5113 6.8478 17.2424C7.11811 16.9735 7.20821 16.585 7.08807 16.2563C6.24712 13.5967 6.81777 9.95099 7.86896 6.87305C8.37953 5.34903 9.01025 4.03418 9.55086 3.10782C9.82117 2.62969 10.0915 2.30098 10.2717 2.0918C10.3017 2.06192 10.3317 2.03203 10.3618 2.00215C10.3918 2.00215 10.4519 2.03203 10.5119 2.06192C10.7222 2.15156 10.9625 2.30098 11.2628 2.51016C11.8334 2.89864 12.5242 3.46641 13.1549 4.03418C13.7856 4.60196 14.3863 5.16973 14.8368 5.58809C15.0471 5.79727 15.2273 5.97657 15.3474 6.0961C15.4075 6.15587 15.4675 6.21563 15.4976 6.24551L15.5276 6.2754C15.7979 6.54434 16.1884 6.63399 16.5788 6.51446H16.6088C16.6389 6.51446 16.6689 6.48458 16.729 6.48458C16.8491 6.45469 16.9993 6.39493 17.2095 6.33516C17.63 6.21563 18.2006 6.03633 18.8614 5.85704C20.1829 5.49844 21.7146 5.16973 22.7958 5.16973C23.8771 5.16973 25.4088 5.49844 26.7303 5.85704C27.391 6.03633 27.9617 6.21563 28.3822 6.33516C28.5924 6.39493 28.7426 6.45469 28.8627 6.48458C28.9228 6.51446 28.9528 6.51446 28.9828 6.51446H29.0129C29.3733 6.63399 29.7937 6.54434 30.0641 6.2754L30.0941 6.24551C30.1241 6.21563 30.1842 6.15587 30.2443 6.0961C30.3644 5.97657 30.5446 5.79727 30.7548 5.58809C31.2053 5.16973 31.806 4.60196 32.4367 4.03418C33.0975 3.46641 33.7582 2.92852 34.3589 2.51016C34.6593 2.30098 34.9296 2.15156 35.1098 2.06192C35.1698 2.03203 35.2299 2.00215 35.2599 2.00215C35.29 2.03203 35.32 2.06192 35.35 2.0918C35.5603 2.33086 35.8005 2.68946 36.1009 3.19746C36.6715 4.21348 37.2722 5.64786 37.7828 7.26153C38.2934 8.84532 38.6838 10.5785 38.834 12.1922C38.9841 13.8059 38.894 15.1805 38.5036 16.1666C38.3534 16.5252 38.4435 16.9137 38.7138 17.2125C38.9841 17.4815 39.3746 17.601 39.735 17.4815L44.3903 15.9276C44.9008 15.7483 45.2012 15.2104 45.021 14.6725C44.8408 14.1645 44.3002 13.8656 43.7595 14.0449L40.7862 15.0311C40.9063 14.0748 40.9063 13.0289 40.7862 11.983C40.606 10.2199 40.1855 8.3672 39.6449 6.66387C39.1043 4.96055 38.4435 3.40664 37.8128 2.2711C37.4824 1.70332 37.1521 1.19531 36.8217 0.806837C36.6715 0.62754 36.4613 0.448243 36.251 0.298828C36.0408 0.149414 35.7405 0 35.3801 0C34.9596 0 34.5691 0.149414 34.2388 0.298828C33.9084 0.448243 33.548 0.657423 33.1876 0.896485C32.4968 1.37461 31.746 1.97227 31.0552 2.56992C30.3644 3.16758 29.7337 3.76524 29.2832 4.21348C29.163 4.33301 29.0729 4.42266 28.9828 4.51231C28.9528 4.51231 28.9228 4.48243 28.8627 4.48243C28.4122 4.33301 27.8115 4.15372 27.1207 3.97442C25.9794 3.58594 24.2074 3.19746 22.8559 3.19746C21.5044 3.19746 19.7324 3.58594 18.3808 3.97442C17.6901 4.15372 17.0894 4.33301 16.6389 4.48243C16.6088 4.48243 16.5488 4.51231 16.5187 4.51231C16.4286 4.42266 16.3385 4.33301 16.2184 4.21348C15.7679 3.76524 15.1372 3.16758 14.4764 2.56992C13.8157 1.97227 13.0648 1.37461 12.3741 0.896485C12.0437 0.657423 11.6833 0.448243 11.3529 0.298828C11.0526 0.149414 10.6621 0 10.2416 0C9.88123 0 9.61093 0.149414 9.40069 0.268946C9.19045 0.388477 9.01025 0.567774 8.83004 0.747071C8.49967 1.10567 8.1693 1.55391 7.83892 2.0918C7.20821 3.16758 6.51743 4.63184 5.97682 6.24551C5.0758 8.90509 4.41505 12.1922 4.80549 15.0908L1.83213 14.0449C1.32155 13.8656 0.750908 14.1346 0.570705 14.6725C0.390501 15.1805 0.660807 15.7483 1.17138 15.8977Z" fill="#041133"/>
<path d="M46.2523 43.2405C45.4113 42.8221 44.4503 43.2405 43.7294 43.8381L43.6994 43.868C43.6994 43.868 43.6694 43.868 43.6694 43.8979C43.1888 44.2864 42.6482 44.5852 42.0776 44.7645C41.5069 44.9438 40.9363 45.0334 40.3656 45.0334C39.5848 45.0334 38.8639 44.884 38.2032 44.5553C37.5725 44.2266 37.0018 43.7784 36.5213 43.2106C36.0708 42.6428 35.7104 41.9854 35.4401 41.2682C35.1998 40.5211 35.0496 39.7741 35.0496 38.9672C35.0496 38.25 35.1397 37.5627 35.35 36.8456C35.5602 36.1284 35.8906 35.5008 36.3411 34.933C36.7916 34.3653 37.3322 33.8872 37.9629 33.5584C38.6237 33.1998 39.4046 33.0205 40.2755 33.0205C40.8161 33.0205 41.3568 33.1102 41.9274 33.2596C42.498 33.409 43.0086 33.678 43.5192 34.0963C44.2701 34.6641 45.2311 35.0526 45.982 34.4549L46.1021 34.3354C46.6427 33.8573 46.853 33.0803 46.4025 32.4827C45.982 31.9149 45.4714 31.4965 44.6905 31.0184C44.1799 30.7196 43.6393 30.4805 43.0687 30.3012C44.5704 29.4047 45.5315 28.0301 45.5315 26.4762C45.5315 23.7569 42.6182 21.5754 39.0141 21.5754C37.8728 21.5754 36.7916 21.7846 35.8605 22.1731C35.9206 22.1133 35.9807 22.0535 36.0407 21.9938L36.0708 21.9639C36.1609 21.8742 36.2209 21.8145 36.281 21.7547C37.3923 20.5594 38.023 19.0354 38.053 17.4217C38.053 17.3321 38.053 17.2424 38.053 17.1229V17.093V16.9735V16.9436C38.053 16.8539 38.053 16.7045 38.023 16.5252C37.8428 15.0908 36.6414 13.9852 35.1698 13.9553C35.0196 13.9553 34.8394 13.9553 34.7493 13.9852H34.7193L34.3588 14.0151C33.9984 12.2819 32.5868 10.967 30.935 10.967C29.0729 10.967 27.5411 12.5807 27.421 14.6426H27.391C27.0906 14.6725 26.7002 14.7024 26.3698 14.7621C25.9794 14.8518 25.4087 15.0311 24.9282 15.5092C24.8381 15.5989 24.748 15.6885 24.6879 15.7781C24.3275 16.2264 24.1773 16.6746 24.1173 17.0631H21.4442C21.3842 16.6746 21.234 16.2264 20.8736 15.7781C20.8135 15.6885 20.7234 15.5989 20.6333 15.5092C20.1528 15.0311 19.5821 14.8518 19.1917 14.7621C18.8914 14.7024 18.5309 14.6725 18.2606 14.6426C18.1705 12.7002 16.6388 11.0567 14.7767 11.0567C13.1248 11.0567 11.7132 12.3715 11.3528 14.1047L10.9023 14.0748H10.8723C10.7822 14.0748 10.632 14.0449 10.4518 14.0449C8.98015 14.0748 7.77879 15.1506 7.59859 16.6149C7.56856 16.7643 7.56856 16.9436 7.56856 17.0332V17.0631V17.1826V17.2125C7.56856 17.3321 7.56856 17.4217 7.56856 17.5114C7.59859 19.125 8.2293 20.6789 9.34056 21.8444C9.40063 21.9041 9.4607 21.9639 9.5508 22.0535L9.58083 22.0834C9.6409 22.1432 9.70097 22.203 9.76104 22.2627C8.82998 21.8742 7.71873 21.6352 6.57744 21.6352C2.97336 21.6352 0.0600679 23.8465 0.0600679 26.536C0.0600679 27.9703 0.870985 29.2553 2.16244 30.1518C2.01227 30.1219 1.89214 30.092 1.74197 30.092C0.780883 30.092 0 30.869 0 31.8252V46.2288C0 47.185 0.780883 47.962 1.74197 47.962C2.70306 47.962 3.48394 47.185 3.48394 46.2288V40.4315H5.22591L10.3617 47.3344C10.6621 47.7229 11.1126 47.962 11.6231 47.962C12.9146 47.962 13.6354 46.5276 12.8846 45.4817L7.98903 38.7282L12.7044 32.5723C13.4852 31.5563 12.7344 30.092 11.4429 30.092C11.2627 30.092 11.0825 30.1219 10.9023 30.1817C12.2539 29.2852 13.0948 27.9703 13.0948 26.5061C13.0948 25.251 12.4641 24.1155 11.473 23.2489C12.344 23.5477 13.305 23.6075 14.2361 23.3684C14.3262 23.3385 14.4163 23.3086 14.5064 23.3086H14.5364L18.8914 22.0237L18.9514 21.9938C19.1917 21.934 19.5221 21.8444 19.7924 21.7248C20.1228 21.5754 20.5733 21.3662 20.9337 20.918C20.9937 20.8283 21.0538 20.7686 21.1139 20.6789C21.4442 20.2008 21.5343 19.7227 21.5644 19.3641C21.5644 19.2744 21.5644 19.2147 21.5944 19.125H24.1473C24.1473 19.2147 24.1473 19.3043 24.1773 19.3641C24.2074 19.7227 24.3275 20.2008 24.6278 20.6789C24.6879 20.7686 24.748 20.8582 24.808 20.918C25.1685 21.3662 25.619 21.5754 25.9493 21.7248C26.2196 21.8444 26.52 21.934 26.7903 21.9938L26.8504 22.0237L31.2053 23.3086H31.2353C31.3254 23.3385 31.4155 23.3684 31.5056 23.3684C32.4066 23.6075 33.3677 23.5477 34.2387 23.2489C33.2476 24.1155 32.6169 25.251 32.6169 26.4762C32.6169 28.4485 34.1486 30.1219 36.3411 30.9287C35.41 31.4069 34.5991 32.0344 33.9384 32.8114C33.1875 33.678 32.5868 34.6342 32.1664 35.6801C31.7759 36.726 31.5657 37.7719 31.5657 38.8776C31.5657 40.0131 31.7759 41.1188 32.1964 42.2245C32.6469 43.3301 33.2476 44.3163 33.9984 45.1829C34.7793 46.0495 35.7104 46.7667 36.7616 47.3045C37.8428 47.8126 39.0141 48.0815 40.3056 48.0815C41.2967 48.0815 42.2878 47.9321 43.2789 47.6034C44.2701 47.2747 45.1711 46.8264 45.982 46.1989C46.3724 45.9001 46.6728 45.5415 46.9431 45.1829C47.3635 44.4956 47.0031 43.5991 46.2523 43.2405ZM14.8067 12.7899C15.2272 12.7899 15.5876 13.5369 15.6477 14.4932L13.9658 14.3438C14.0559 13.4473 14.3863 12.7899 14.8067 12.7899ZM10.2115 30.7196L5.31601 37.2938H3.54401V31.8252C3.54401 31.377 3.3638 30.9586 3.06346 30.6299C4.08462 31.1379 5.31601 31.4368 6.60747 31.4368C8.01907 31.4368 9.34056 31.0782 10.4218 30.5104C10.3317 30.5702 10.2716 30.6299 10.2115 30.7196ZM10.0013 28.4186C9.79107 28.568 9.5508 28.7174 9.28049 28.8668V26.6854C9.28049 26.1774 8.82998 25.759 8.25934 25.7889C7.68869 25.8188 7.23818 26.267 7.23818 26.775V29.4346C7.02795 29.4645 6.81771 29.4645 6.60747 29.4645C6.4573 29.4645 6.30713 29.4645 6.15696 29.4645V26.6854C6.15696 26.1774 5.70645 25.759 5.13581 25.7889C4.56516 25.8188 4.11465 26.267 4.11465 26.775V28.9565C3.78428 28.8071 3.48394 28.6278 3.21363 28.4186C2.40272 27.8209 2.10238 27.1336 2.10238 26.5061C2.10238 25.9084 2.43275 25.1912 3.21363 24.5936C4.02455 23.9959 5.22591 23.5477 6.6375 23.5477C8.0491 23.5477 9.25046 23.966 10.0614 24.5936C10.8723 25.1912 11.1726 25.8785 11.1726 26.5061C11.1426 27.1336 10.8122 27.8209 10.0013 28.4186ZM19.432 19.6032C19.4019 19.633 19.4019 19.6629 19.3719 19.6928C19.1917 19.902 18.8914 19.9916 18.3207 20.1709L13.9658 21.4559C13.8457 21.4858 13.8156 21.5157 13.7556 21.5157C13.5153 21.5754 13.275 21.6053 13.0648 21.6053C12.374 21.6053 11.6832 21.3364 11.1726 20.8283C11.1426 20.7985 11.0825 20.7387 11.0225 20.6789C10.9324 20.5893 10.8723 20.5295 10.8423 20.4996C10.0614 19.6629 9.6409 18.5871 9.61087 17.4516C9.61087 17.3918 9.61087 17.3321 9.61087 17.1826V17.0631C9.61087 16.9436 9.61087 16.8838 9.61087 16.824C9.67093 16.3758 10.0614 16.0172 10.5119 16.0172C10.572 16.0172 10.632 16.0172 10.7522 16.0471L11.4429 16.1069L14.3262 16.3758L15.2873 16.4655L17.9903 16.7045C18.7112 16.7643 19.1016 16.7942 19.3118 17.0332C19.3419 17.0631 19.3719 17.093 19.4019 17.1229C19.6122 17.3619 19.6122 17.7504 19.6122 18.4676C19.5821 19.0653 19.5821 19.3641 19.432 19.6032ZM30.995 12.7899C31.3855 12.7899 31.7159 13.4473 31.806 14.3438L30.1541 14.4932C30.2142 13.5369 30.5746 12.7899 30.995 12.7899ZM31.8961 21.4858C31.836 21.4858 31.806 21.4559 31.6858 21.426L27.3309 20.141C26.8203 19.9916 26.52 19.902 26.3398 19.7526C26.3097 19.7227 26.2797 19.6928 26.2797 19.6629C26.2497 19.633 26.2497 19.6032 26.2196 19.5733C26.0695 19.3342 26.0695 19.0354 26.0695 18.4377C26.0695 17.6906 26.0695 17.3321 26.2797 17.093C26.3097 17.0631 26.3398 17.0332 26.3698 17.0033C26.6101 16.7643 26.9705 16.7344 27.6913 16.6746L34.3889 16.0471L34.9595 15.9873C35.0797 15.9873 35.1397 15.9574 35.1998 15.9574C35.6803 15.9574 36.0708 16.316 36.1008 16.7643V16.7942C36.1008 16.824 36.1008 16.8838 36.1008 16.9735V17.093C36.1008 17.1528 36.1008 17.2125 36.1008 17.2424C36.1008 17.2723 36.1008 17.3022 36.1008 17.3321C36.1008 17.601 36.0708 17.8998 36.0107 18.1688C35.8305 19.0055 35.4401 19.7526 34.8694 20.3801C34.8394 20.4399 34.7793 20.4698 34.6892 20.5594C34.5991 20.6491 34.5691 20.6789 34.539 20.7088C33.8182 21.4559 32.8271 21.7248 31.8961 21.4858ZM35.6203 28.4186C34.8094 27.8209 34.509 27.1336 34.509 26.5061C34.509 25.9084 34.8394 25.1912 35.6203 24.5936C36.4312 23.9959 37.6325 23.5477 39.0441 23.5477C40.4557 23.5477 41.6571 23.966 42.468 24.5936C43.2789 25.1912 43.5793 25.8785 43.5793 26.5061C43.5793 27.1037 43.2489 27.8209 42.468 28.4186C42.2578 28.568 42.0175 28.7174 41.7472 28.8668V26.6854C41.7472 26.1774 41.2967 25.759 40.726 25.7889C40.1554 25.8188 39.7049 26.267 39.7049 26.775V29.4346C39.4947 29.4645 39.2844 29.4645 39.0742 29.4645C38.924 29.4645 38.7738 29.4645 38.6237 29.4645V26.6854C38.6237 26.1774 38.1732 25.759 37.6025 25.7889C37.0319 25.8188 36.5814 26.267 36.5814 26.775V28.9565C36.1909 28.8071 35.8906 28.6278 35.6203 28.4186Z" fill="#041133"/>
<path d="M39.5548 18.9457C39.0142 18.9457 38.5937 19.3939 38.5937 19.9318C38.5937 20.4697 39.0442 20.9179 39.5848 20.9179H44.2401C44.7807 20.9179 45.2012 20.4697 45.2012 19.9318C45.2012 19.3939 44.7507 18.9457 44.21 18.9457H39.5548Z" fill="#041133"/>
<path d="M21.0838 26.2371C20.8735 26.2371 20.3629 26.1475 19.7022 25.1613C19.4019 24.7131 18.8012 24.5936 18.3206 24.8924C17.8701 25.1912 17.75 25.7889 18.0503 26.267C18.9513 27.6117 20.0025 28.2393 21.1138 28.2094C21.7445 28.1795 22.2851 27.9703 22.7056 27.6715C23.2462 27.9703 23.9069 28.2094 24.5977 28.2094C25.1684 28.2094 25.7691 28.0899 26.3097 27.7313C26.8503 27.3727 27.3008 26.8049 27.6011 26.0877C27.8114 25.5797 27.5711 25.0119 27.0605 24.8028C26.5499 24.5936 25.9793 24.8326 25.7691 25.3406C25.5888 25.759 25.3786 25.9981 25.2284 26.0877C25.0482 26.2072 24.868 26.2371 24.6278 26.2371C24.2674 26.2371 23.937 26.0877 23.6667 25.9383V24.5936C24.3575 24.3246 24.808 23.7569 24.808 23.0994C24.808 22.1731 23.8469 21.426 22.6455 21.426C21.4442 21.426 20.4831 22.1731 20.4831 23.0994C20.4831 23.7569 20.9636 24.2947 21.6544 24.5936V25.9981C21.5343 26.1475 21.294 26.2371 21.0838 26.2371Z" fill="#041133"/>
<path d="M1.53177 18.9457C0.991159 18.9457 0.540649 19.3939 0.540649 19.9318C0.540649 20.4697 0.991159 20.9179 1.53177 20.9179H6.18703C6.72765 20.9179 7.17815 20.4697 7.17815 19.9318C7.17815 19.3939 6.75768 18.9457 6.21707 18.9457H1.53177Z" fill="#041133"/>
<path d="M28.1118 30.092C27.3909 30.092 26.7302 30.4506 26.3398 31.0184L18.2006 43.0612V31.7954C18.2006 30.8391 17.4197 30.0621 16.4586 30.0621C15.4975 30.0621 14.7166 30.8391 14.7166 31.7954V45.7506C14.7166 46.946 15.7077 47.9321 16.9091 47.9321C17.6299 47.9321 18.3207 47.5735 18.7412 46.9758L26.7602 35.1123V46.2288C26.7602 47.185 27.5411 47.962 28.5022 47.962C29.4633 47.962 30.2442 47.185 30.2442 46.2288V32.2137C30.2442 31.0184 29.2831 30.092 28.1118 30.092Z" fill="#041133"/>
</g>
<defs>
<clipPath id="clip0_187_232">
<rect width="48" height="48" fill="white"/>
</clipPath>
</defs>
</svg>
