<svg width="363" height="165" viewBox="0 0 363 165" fill="none" xmlns="http://www.w3.org/2000/svg">
<rect width="363" height="165" fill="black"/>
<mask id="mask0_721_823" style="mask-type:luminance" maskUnits="userSpaceOnUse" x="20" y="34" width="323" height="98">
<path d="M343 34H20V131.694H343V34Z" fill="white"/>
</mask>
<g mask="url(#mask0_721_823)">
<path fill-rule="evenodd" clip-rule="evenodd" d="M144.354 53.6327C148.033 53.5846 151.708 53.6327 155.382 53.6108C155.382 56.6344 155.413 59.6624 155.382 62.686C151.708 62.686 148.033 62.686 144.359 62.686C144.398 59.6624 144.402 56.6388 144.359 53.6152L144.354 53.6327ZM190.918 53.6327C194.58 53.6327 198.24 53.6327 201.899 53.6327C201.837 68.8817 201.899 84.1351 201.899 99.3842C201.846 102.53 202.274 105.969 200.535 108.774C199.294 110.731 196.861 111.395 194.672 111.395C188.707 111.395 182.743 111.435 176.779 111.395C172.619 111.374 168.263 109.962 165.511 106.712C162.124 102.779 161.198 97.4442 160.879 92.4413C160.63 86.4159 160.547 79.91 163.798 74.5837C166.454 70.0527 171.689 67.5928 176.814 67.3743C181.52 67.1995 186.23 67.3437 190.94 67.2913C190.92 62.7413 190.92 58.1928 190.94 53.6458L190.918 53.6327ZM174.59 78.3894C172.716 80.5348 172.362 83.4972 172.139 86.228C172.025 89.5924 172.008 92.9918 172.576 96.3212C172.788 97.9307 173.545 99.419 174.721 100.538C176.652 102.395 179.501 102.591 182.035 102.574C184.836 102.521 187.654 102.74 190.438 102.312C191.076 100.385 190.875 98.3399 190.914 96.3475C190.914 89.575 190.914 82.8039 190.914 76.0343C187.366 76.0649 183.818 76.0125 180.275 76.078C178.195 76.1654 175.984 76.7597 174.573 78.3894H174.59ZM144.372 67.2738C148.046 67.2519 151.721 67.2738 155.395 67.2738C155.395 81.9767 155.422 96.6839 155.395 111.404C151.712 111.404 148.033 111.378 144.35 111.404C144.35 96.697 144.38 81.9898 144.35 67.2738H144.372ZM211.852 72.0233C216.007 67.8243 222.29 67.1471 227.896 67.0859C233.118 67.1252 238.737 67.0859 243.346 69.8954C247.226 72.1762 249.288 76.6373 249.651 81.0023C249.896 84.1919 250.197 87.7573 248.34 90.5493C247.03 92.5199 244.605 93.2714 242.359 93.2758C234.415 93.2758 226.476 93.302 218.537 93.2758C218.873 95.7838 218.611 98.7025 220.464 100.704C222.286 102.587 225.095 102.451 227.512 102.591C234.503 102.591 241.524 102.591 248.528 102.591C248.502 105.527 248.528 108.459 248.528 111.395C241.223 111.378 233.916 111.378 226.607 111.395C223.033 111.347 219.302 111.544 215.942 110.111C212.25 108.63 209.527 105.243 208.47 101.455C206.906 96.1246 207.295 90.4925 207.347 85.0046C207.526 80.4037 208.383 75.3658 211.874 72.0451L211.852 72.0233ZM220.154 78.5773C218.725 80.159 218.655 82.3917 218.511 84.4016C225.065 84.3317 231.619 84.5633 238.173 84.2837C239.156 81.496 237.579 78.1928 234.953 76.9475C232.331 75.7853 229.36 75.8071 226.537 75.9338C224.2 76.03 221.665 76.6548 220.145 78.5555L220.154 78.5773ZM272.28 67.2607C278.751 67.2126 285.218 67.2607 291.689 67.2345C291.689 70.1663 291.715 73.0938 291.689 76.0212C286.445 76.0212 281.202 76.0212 275.981 76.0212C273.246 76.078 270.248 76.5499 268.217 78.5555C266.469 80.1634 265.77 82.5709 265.595 84.8779C265.337 88.8409 265.189 92.8782 266.032 96.7844C266.223 97.711 266.613 98.5853 267.174 99.3471C267.735 100.109 268.454 100.74 269.283 101.197C271.568 102.508 274.277 102.416 276.82 102.534C282.098 102.574 287.38 102.508 292.659 102.565C292.589 105.492 292.659 108.424 292.632 111.352H271.537C267.299 111.404 262.886 110.268 259.635 107.446C255.803 104.182 254.313 99.0346 254.13 94.1628C253.951 88.3122 253.693 82.1733 256.044 76.6854C257.282 73.6792 259.499 71.1791 262.335 69.5895C265.341 67.903 268.837 67.265 272.258 67.2694L272.28 67.2607ZM312.727 67.0772C316.913 66.6934 321.123 66.6525 325.315 66.9548C330.506 67.418 336.156 69.1395 339.21 73.6749C342.95 79.2414 343.234 86.2848 342.884 92.7646C342.447 97.9641 341.106 103.574 337.091 107.21C332.817 110.941 326.853 111.714 321.387 111.784C315.471 111.876 309.122 111.758 303.91 108.564C300.414 106.484 298.26 102.762 297.238 98.9166C296.036 94.5473 296.054 89.9726 296.325 85.494C296.761 80.4518 298.094 75.1343 301.817 71.4858C304.788 68.7681 308.808 67.6015 312.718 67.0772H312.727ZM314.61 76.0649C312.203 76.5761 309.891 78.018 308.878 80.3294C307.3 83.8249 307.48 87.7573 307.514 91.4975C307.589 94.7745 308.257 98.4404 310.914 100.642C314.195 103.325 318.779 103.146 322.742 102.827C326.626 102.548 330.27 99.7687 331.14 95.8843C331.939 92.1398 331.834 88.251 331.511 84.4585C331.271 81.1683 329.444 77.8695 326.268 76.6198C322.576 75.2872 318.46 75.3571 314.623 76.0868L314.61 76.0649Z" fill="white"/>
<path fill-rule="evenodd" clip-rule="evenodd" d="M96.1472 92.6157C96.8682 90.868 97.292 89.0154 98.0872 87.2939C99.114 93.4721 99.149 99.9257 97.2133 105.942C93.7397 117.984 83.4805 127.719 71.2943 130.625C66.2019 131.91 60.891 132.074 55.7289 131.105C50.5669 130.136 45.6768 128.058 41.397 125.013C37.1172 121.969 33.5498 118.031 30.9414 113.473C28.3331 108.914 26.746 103.843 26.29 98.6105C27.8805 100.262 29.0296 102.281 30.6113 103.946C35.5233 109.342 41.8358 113.27 48.8467 115.293C55.8577 117.317 63.2924 117.356 70.3243 115.406C81.8419 112.33 91.5725 103.587 96.1472 92.6157Z" fill="#E77C06"/>
<path fill-rule="evenodd" clip-rule="evenodd" d="M61.2185 36.7403C65.678 34.9029 70.4587 33.9716 75.2818 34.0007C80.1049 34.0298 84.8739 35.0187 89.3109 36.9098C93.7479 38.8009 97.764 41.5564 101.125 45.0155C104.486 48.4747 107.125 52.5683 108.888 57.0578C110.291 60.479 110.854 64.1624 111.409 67.7933C106.778 59.8411 99.0921 53.8114 90.4145 50.8097C81.5138 47.8202 71.8408 48.0881 63.1192 51.5656C51.5229 56.0704 42.6095 66.4825 39.5771 78.5114C38.3581 72.0185 38.4586 65.1805 40.6301 58.893C42.2617 53.9344 44.9464 49.3873 48.5001 45.5636C52.0539 41.7399 56.3925 38.73 61.2185 36.7403Z" fill="#E77C06"/>
<path fill-rule="evenodd" clip-rule="evenodd" d="M78.6128 55.5644C76.8651 54.8434 75.0125 54.4196 73.291 53.6244C79.4692 52.5976 85.9228 52.5626 91.9394 54.4982C103.981 57.9719 113.716 68.2311 116.622 80.4172C117.907 85.5097 118.071 90.8206 117.102 95.9827C116.134 101.145 114.055 106.035 111.011 110.314C107.966 114.594 104.028 118.162 99.4696 120.77C94.9108 123.378 89.84 124.966 84.6076 125.422C86.2592 123.831 88.2779 122.682 89.9426 121.1C95.2509 116.245 99.1437 110.042 101.207 103.151C106.983 83.9695 97.1782 63.2894 78.6128 55.5644Z" fill="white"/>
<path fill-rule="evenodd" clip-rule="evenodd" d="M22.7379 90.4925C20.9009 86.032 19.9704 81.2503 20.0007 76.4264C20.031 71.6025 21.0214 66.8328 22.9142 62.3957C24.807 57.9585 27.5643 53.9426 31.0253 50.5822C34.4863 47.2218 38.5818 44.5841 43.0728 42.8229C46.494 41.4203 50.1774 40.8567 53.8083 40.3018C45.8386 44.9333 39.7958 52.6365 36.8072 61.2965C35.0698 66.4478 34.4163 71.9027 34.8878 77.3186C35.3593 82.7346 36.9456 87.9945 39.547 92.7681C42.1484 97.5416 45.7087 101.726 50.0044 105.058C54.3 108.39 59.2382 110.797 64.5089 112.13C58.016 113.349 51.178 113.248 44.8905 111.077C39.9323 109.445 35.3855 106.761 31.5619 103.208C27.7382 99.6555 24.7281 95.3178 22.7379 90.4925Z" fill="white"/>
</g>
</svg>
