<svg width="120" height="32" viewBox="0 0 120 32" fill="none" xmlns="http://www.w3.org/2000/svg">
<path d="M0.519531 16.1732V30.8842H5.0627V16.1732H0.519531ZM113.809 21.487C112.404 21.2443 110.999 20.925 110.999 20.3629C110.999 20.0393 110.999 19.3964 112.898 19.3964C114.797 19.3964 114.963 20.2011 115.027 20.925L115.112 21.2443H119.57L119.485 20.8185C119.242 17.5229 117.011 15.8368 112.719 15.8368C108.176 15.8368 106.524 18.3915 106.524 20.8994C106.524 24.276 109.994 24.9998 112.553 25.4809C114.039 25.7236 115.444 26.0472 115.444 26.6902C115.444 27.1713 114.865 27.7334 113.375 27.7334C110.982 27.7334 110.654 26.7668 110.654 26.0302V25.63H106.047V26.0302C106.128 29.3258 108.768 31.2589 113.311 31.2589C116.53 31.2589 120 29.8921 120 26.0345C120 22.6537 116.368 21.9341 113.809 21.4487V21.487ZM95.726 19.6817C97.2929 19.6008 97.7059 20.8058 97.855 21.6105L97.9359 21.9341H102.479L102.394 21.5083C102.066 17.2504 98.7619 15.7985 95.709 15.7985C91.0849 15.7985 88.4408 18.6939 88.4408 23.9183C88.4408 25.6214 88.9347 31.2333 95.462 31.2333C100.495 31.2333 102.232 27.5375 102.394 25.4469V25.0466H97.7868V25.366C97.7868 25.6896 97.459 27.4566 95.6579 27.4566C93.431 27.4566 93.1841 25.366 93.1841 23.2753C93.1841 22.4749 93.3458 19.6604 95.7388 19.6604L95.726 19.6817ZM77.7364 19.5795C76.4165 19.5795 75.6075 20.2991 75.2583 21.7468H80.1336C79.8015 19.8179 78.3964 19.5795 77.7364 19.5795ZM77.8216 15.7985C79.9505 15.7985 84.9195 16.6032 84.9195 23.8374V24.8848H75.0795C75.2455 25.928 75.6628 27.5332 78.06 27.5332C78.886 27.5332 79.8781 27.133 80.1251 26.2559L80.206 26.0174H84.8301L84.7449 26.4986C83.838 29.4791 81.3386 31.2419 78.06 31.2419C73.1038 31.2419 70.5448 28.4274 70.5448 23.203C70.5448 21.998 70.8769 15.807 77.8131 15.807L77.8216 15.7985ZM50.8052 23.5734C50.8052 21.8064 50.3113 19.7157 47.7523 19.7157C45.1933 19.7157 44.7079 21.8064 44.7079 23.5734C44.7079 25.3404 45.2061 27.431 47.7651 27.431C50.3241 27.431 50.818 25.3447 50.818 23.5734H50.8052ZM47.7523 15.8581C51.3034 15.8581 55.4165 17.8678 55.4165 23.5734C55.4165 29.279 51.2864 31.2887 47.7523 31.2887C44.2183 31.2887 40.0881 29.279 40.0881 23.5734C40.0881 17.8678 44.2183 15.8581 47.7523 15.8581ZM18.9349 15.8581C16.8698 15.8581 15.6308 16.7437 14.9708 17.5613V16.1987H10.5937V30.8885H15.1369V22.526C15.1369 20.7589 16.129 19.7115 17.6916 19.7115C19.5906 19.7115 19.7567 20.8398 19.7567 22.0448V30.8885H24.2999V20.9207C24.2999 17.7827 22.239 15.8538 18.9349 15.8538V15.8581ZM65.0096 12.4816H60.4621V16.1987H58.5631V19.5752H60.4621V27.695C60.4621 29.4621 60.9561 31.0715 64.6732 31.0715H66.8021L67.3003 30.9906V27.4566L66.1422 27.5332C64.9883 27.5332 64.9883 27.5332 64.9883 26.8094V19.571H67.3003V16.1987H64.9883L65.0096 12.4816ZM34.8722 16.0156V16.1987H37.346V19.5752H34.8722V30.8885H30.329V19.5539H28.264V16.1987H30.329V15.4749C30.329 12.5795 31.9002 11.1318 34.9531 11.1318L37.2651 11.217V14.9128H35.7664C34.8594 14.9128 34.8594 14.9128 34.8594 16.0369" fill="white"/>
<path d="M11.9483 7.943C11.5525 7.99357 11.1506 7.96755 10.7646 7.86636C10.3841 7.79766 10.0313 7.62108 9.74822 7.35764C9.46516 7.0942 9.26373 6.75498 9.16791 6.38036C9.0622 5.97701 9.06944 5.55236 9.18884 5.15285C9.30825 4.75334 9.53521 4.39435 9.84491 4.11516C10.1578 3.895 10.4986 3.71745 10.8583 3.58718C14.0262 2.53974 20.3449 0.815291 31.3388 0.180865C42.3298 -0.488254 53.355 0.70222 63.95 3.70214C67.3563 4.68572 68.6081 5.38401 68.4293 6.00566C68.2504 6.62732 66.5473 6.43145 64.0351 5.98437C62.0978 5.65226 57.2225 5.00932 52.4196 4.53243C45.539 3.84942 38.6097 3.81093 31.722 4.41747C25.0556 5.11855 18.4476 6.29387 11.9483 7.93449" fill="#D66965"/>
<path d="M0.000119849 9.30245C0.0168803 10.0384 0.324824 10.7377 0.85642 11.2469C1.38802 11.7562 2.09987 12.0338 2.83588 12.019C3.19933 12.019 3.55922 11.9474 3.895 11.8083C4.23079 11.6692 4.53589 11.4654 4.79289 11.2084C5.04988 10.9514 5.25375 10.6463 5.39283 10.3105C5.53192 9.9747 5.60351 9.61481 5.60351 9.25136C5.60351 8.8879 5.53192 8.52801 5.39283 8.19223C5.25375 7.85644 5.04988 7.55134 4.79289 7.29434C4.53589 7.03735 4.23079 6.83348 3.895 6.6944C3.55922 6.55531 3.19933 6.48372 2.83588 6.48372C2.46334 6.47803 2.09344 6.54692 1.74793 6.68634C1.40243 6.82577 1.0883 7.0329 0.824061 7.29556C0.559817 7.55822 0.350792 7.87108 0.20929 8.21574C0.0677875 8.5604 -0.0033314 8.92989 0.000119849 9.30245Z" fill="#D66965"/>
</svg>
