<svg width="91" height="88" viewBox="0 0 91 88" fill="none" xmlns="http://www.w3.org/2000/svg">
<g id="_3192328593664">
<path id="Vector" fill-rule="evenodd" clip-rule="evenodd" d="M71.8627 9.09107C82.9552 17.0198 90.1435 29.7243 90.1435 44.0434V87.5465H80.288V44.0434C80.288 35.674 77.0652 27.9932 71.8627 22.0439C68.206 17.8902 63.5602 14.6043 58.2284 12.5588C54.1979 11.0103 49.7967 10.0832 45.1501 10.0832C25.8175 10.0832 10.0757 25.3857 10.0757 44.0434C10.0757 62.7573 25.8167 78.0032 45.1501 78.0032C46.6393 78.0032 48.0025 77.9401 49.4293 77.7553V87.5465H45.1501C20.4237 87.5465 0.223633 68.0256 0.223633 44.0434C0.224011 20.1209 20.4237 0.599609 45.1509 0.599609C49.7366 0.599609 54.1375 1.21832 58.2284 2.45876C63.1856 3.94525 67.7725 6.17857 71.8627 9.09107Z" fill="#195CA1"/>
<path id="Vector_2" fill-rule="evenodd" clip-rule="evenodd" d="M76.5116 44.0436C76.5116 49.8675 74.7749 55.2586 71.8628 59.9074C68.64 64.9882 63.868 69.0179 58.2285 71.5567C54.2638 73.3565 49.8629 74.3467 45.1502 74.3467C27.9228 74.3467 13.855 60.7121 13.855 44.0436C13.855 27.3717 27.9228 13.7998 45.1502 13.7998C49.8629 13.7998 54.2638 14.7897 58.2285 16.5865C63.868 19.0654 68.64 23.1583 71.8624 28.2418C74.7749 32.8252 76.5116 38.279 76.5116 44.0436ZM71.8624 36.5446C69.7512 29.5389 64.7354 23.7747 58.2285 20.369C54.3239 18.3243 49.9223 17.2055 45.1502 17.2055C29.845 17.2055 17.3862 29.294 17.3858 44.0436C17.3858 58.8529 29.845 70.9376 45.1502 70.9376C49.9223 70.9376 54.3239 69.7602 58.2285 67.7779C64.7354 64.3691 69.7512 58.5445 71.8624 51.6019C72.5439 49.1856 72.9785 46.6416 72.9785 44.0436C72.9785 41.4387 72.5439 38.9601 71.8624 36.5446Z" fill="#195CA1"/>
<path id="Vector_3" fill-rule="evenodd" clip-rule="evenodd" d="M76.8804 58.6074V87.5465H66.8428V70.7488C68.6399 69.3889 70.3135 67.7777 71.8624 66.1056C73.8455 63.8126 75.5194 61.3313 76.8804 58.6074Z" fill="#195CA1"/>
<path id="Vector_4" fill-rule="evenodd" clip-rule="evenodd" d="M63.0606 73.231V87.5467H53.3967V77.0732C55.068 76.6393 56.68 76.1435 58.2285 75.5867C59.9032 74.9026 61.5117 74.0987 63.0606 73.231Z" fill="#195CA1"/>
<path id="Vector_5" fill-rule="evenodd" clip-rule="evenodd" d="M27.7371 26.687H62.875V61.8275H51.5968V56.1881C56.1833 53.9574 59.3437 49.3706 59.3437 44.1031C59.3437 36.6672 53.086 30.5947 45.4018 30.5947C37.7146 30.5943 31.3934 36.6672 31.3934 44.1031C31.3938 49.4968 34.7394 54.2061 39.5715 56.3741V61.8275H27.7371V26.687Z" fill="#195CA1"/>
<path id="Vector_6" fill-rule="evenodd" clip-rule="evenodd" d="M45.4615 33.1362L47.8176 41.9323L56.6164 44.2911L47.8176 46.6416L45.4615 55.3837L43.1053 46.6416L34.3682 44.2911L43.1053 41.9323L45.4615 33.1362Z" fill="#195CA1"/>
<path id="Vector_7" fill-rule="evenodd" clip-rule="evenodd" d="M49.1182 37.8452C50.2335 38.4643 51.1633 39.3347 51.8421 40.3865L55.6243 41.4391C54.6949 37.9087 51.782 35.1186 48.1287 34.1889L49.1182 37.8452ZM51.9075 47.5748C51.2857 48.7529 50.2966 49.68 49.0554 50.3641L48.1287 54.0178C51.8421 53.091 54.7576 50.1755 55.687 46.5819L51.9075 47.5748ZM41.9273 50.4873C40.626 49.8675 39.5114 48.816 38.7698 47.5117L35.0508 46.5222C35.9802 50.2413 39.0148 53.1545 42.9198 54.0805L41.9273 50.4873ZM38.8923 40.509C39.5715 39.2686 40.626 38.3418 41.9273 37.6596L42.8593 34.125C39.0779 34.9962 36.0429 37.8452 35.1128 41.5019L38.8923 40.509Z" fill="#195CA1"/>
<path id="Vector_8" fill-rule="evenodd" clip-rule="evenodd" d="M45.4782 39.2075L46.5482 43.2025L50.5443 44.274L46.5482 45.3413L45.4782 49.3117L44.4078 45.3413L40.4397 44.274L44.4078 43.2025L45.4782 39.2075Z" fill="#FEFEFE"/>
</g>
</svg>
